<svg xmlns="http://www.w3.org/2000/svg" xmlns:xlink="http://www.w3.org/1999/xlink" width="100" zoomAndPan="magnify" viewBox="0 0 75 74.999997" height="100" preserveAspectRatio="xMidYMid meet" version="1.0"><defs><clipPath id="393a65b828"><path d="M 13.972656 12.132812 L 61.222656 12.132812 L 61.222656 63 L 13.972656 63 Z M 13.972656 12.132812 " clip-rule="nonzero"/></clipPath></defs><g clip-path="url(#393a65b828)"><path fill="#b59862" d="M 19.230469 62.859375 L 55.761719 62.859375 C 58.660156 62.859375 61.019531 60.5 61.019531 57.601562 L 61.019531 54.21875 C 61.019531 53.835938 60.710938 53.523438 60.328125 53.523438 L 58.453125 53.523438 L 58.453125 27.054688 C 58.453125 25.730469 57.375 24.65625 56.054688 24.65625 L 53.613281 24.65625 L 53.613281 20.179688 L 55.273438 20.179688 C 55.527344 20.179688 55.761719 20.039062 55.882812 19.816406 C 56.003906 19.59375 55.996094 19.320312 55.855469 19.109375 L 51.546875 12.453125 C 51.417969 12.253906 51.199219 12.136719 50.964844 12.136719 C 50.730469 12.136719 50.511719 12.253906 50.382812 12.453125 L 46.070312 19.109375 C 45.929688 19.320312 45.917969 19.59375 46.042969 19.816406 C 46.164062 20.039062 46.394531 20.179688 46.652344 20.179688 L 48.3125 20.179688 L 48.3125 24.65625 L 40.273438 24.65625 L 40.273438 20.609375 L 42.085938 20.609375 C 42.339844 20.609375 42.574219 20.46875 42.695312 20.246094 C 42.816406 20.023438 42.808594 19.75 42.667969 19.539062 L 38.078125 12.453125 C 37.949219 12.253906 37.730469 12.136719 37.496094 12.136719 C 37.261719 12.136719 37.039062 12.253906 36.914062 12.453125 L 32.324219 19.539062 C 32.1875 19.75 32.175781 20.023438 32.296875 20.246094 C 32.417969 20.46875 32.652344 20.609375 32.90625 20.609375 L 34.71875 20.609375 L 34.71875 24.65625 L 26.679688 24.65625 L 26.679688 20.179688 L 28.339844 20.179688 C 28.59375 20.179688 28.828125 20.039062 28.949219 19.816406 C 29.070312 19.59375 29.058594 19.320312 28.921875 19.109375 L 24.613281 12.453125 C 24.484375 12.253906 24.265625 12.136719 24.03125 12.136719 C 23.792969 12.136719 23.574219 12.253906 23.449219 12.453125 L 19.132812 19.109375 C 18.996094 19.320312 18.984375 19.59375 19.105469 19.816406 C 19.226562 20.039062 19.460938 20.179688 19.714844 20.179688 L 21.378906 20.179688 L 21.378906 24.65625 L 18.941406 24.65625 C 17.617188 24.65625 16.535156 25.730469 16.535156 27.054688 L 16.535156 53.523438 L 14.667969 53.523438 C 14.285156 53.523438 13.972656 53.835938 13.972656 54.21875 L 13.972656 57.601562 C 13.972656 60.5 16.332031 62.859375 19.230469 62.859375 Z M 49.007812 18.792969 L 47.925781 18.792969 L 50.964844 14.105469 L 54 18.792969 L 52.921875 18.792969 C 52.539062 18.792969 52.226562 19.101562 52.226562 19.484375 L 52.226562 24.65625 L 49.699219 24.65625 L 49.699219 19.484375 C 49.699219 19.101562 49.390625 18.792969 49.007812 18.792969 Z M 56.054688 26.042969 C 56.613281 26.042969 57.066406 26.496094 57.066406 27.054688 L 57.066406 53.523438 L 55.421875 53.523438 L 55.421875 29.824219 C 55.421875 28.644531 54.464844 27.6875 53.285156 27.6875 L 40.273438 27.6875 L 40.273438 26.042969 Z M 42.996094 53.523438 C 42.785156 53.523438 42.582031 53.621094 42.453125 53.789062 L 40.273438 56.5625 L 34.71875 56.5625 L 32.542969 53.789062 C 32.410156 53.621094 32.210938 53.523438 31.996094 53.523438 L 20.960938 53.523438 L 20.960938 29.824219 C 20.960938 29.410156 21.296875 29.074219 21.707031 29.074219 L 34.71875 29.074219 L 34.71875 38.804688 C 34.71875 39.1875 35.027344 39.5 35.410156 39.5 L 39.578125 39.5 C 39.960938 39.5 40.273438 39.1875 40.273438 38.804688 L 40.273438 29.074219 L 53.285156 29.074219 C 53.699219 29.074219 54.035156 29.410156 54.035156 29.824219 L 54.035156 53.523438 Z M 34.183594 19.222656 L 37.496094 14.105469 L 40.8125 19.222656 L 39.578125 19.222656 C 39.195312 19.222656 38.886719 19.53125 38.886719 19.914062 L 38.886719 38.113281 L 36.105469 38.113281 L 36.105469 19.914062 C 36.105469 19.53125 35.792969 19.222656 35.410156 19.222656 Z M 22.070312 18.792969 L 20.992188 18.792969 L 24.027344 14.105469 L 27.066406 18.792969 L 25.988281 18.792969 C 25.605469 18.792969 25.292969 19.101562 25.292969 19.484375 L 25.292969 24.65625 L 22.765625 24.65625 L 22.765625 19.484375 C 22.765625 19.101562 22.457031 18.792969 22.070312 18.792969 Z M 17.925781 27.054688 C 17.925781 26.496094 18.378906 26.042969 18.941406 26.042969 L 34.71875 26.042969 L 34.71875 27.6875 L 21.707031 27.6875 C 20.53125 27.6875 19.574219 28.644531 19.574219 29.824219 L 19.574219 53.523438 L 17.925781 53.523438 Z M 15.359375 54.910156 L 31.660156 54.910156 L 33.835938 57.683594 C 33.96875 57.851562 34.167969 57.949219 34.382812 57.949219 L 40.613281 57.949219 C 40.824219 57.949219 41.027344 57.851562 41.160156 57.683594 L 43.335938 54.910156 L 59.632812 54.910156 L 59.632812 57.601562 C 59.632812 59.734375 57.894531 61.472656 55.761719 61.472656 L 19.230469 61.472656 C 17.097656 61.472656 15.359375 59.734375 15.359375 57.601562 Z M 48.386719 38.734375 C 48.386719 38.246094 48.09375 37.816406 47.648438 37.636719 L 46.492188 37.171875 C 46.332031 36.65625 46.121094 36.152344 45.875 35.675781 L 46.359375 34.535156 C 46.550781 34.09375 46.453125 33.582031 46.105469 33.230469 L 44.289062 31.410156 C 43.945312 31.070312 43.4375 30.96875 42.988281 31.15625 L 41.535156 31.773438 C 41.277344 31.882812 41.113281 32.132812 41.113281 32.410156 L 41.113281 36.785156 C 41.113281 36.9375 41.160156 37.085938 41.253906 37.203125 C 42.648438 39.058594 42.460938 41.695312 40.816406 43.34375 C 39.015625 45.144531 35.976562 45.144531 34.175781 43.34375 C 32.476562 41.644531 32.296875 39.121094 33.742188 37.203125 C 33.832031 37.085938 33.882812 36.9375 33.882812 36.789062 L 33.882812 32.410156 C 33.882812 32.117188 33.695312 31.867188 33.433594 31.765625 L 32 31.15625 C 31.554688 30.96875 31.046875 31.070312 30.707031 31.410156 L 28.886719 33.230469 C 28.542969 33.570312 28.445312 34.082031 28.632812 34.53125 L 29.117188 35.675781 C 28.867188 36.152344 28.660156 36.65625 28.496094 37.171875 L 27.34375 37.636719 C 26.894531 37.820312 26.605469 38.25 26.605469 38.734375 L 26.605469 41.308594 C 26.605469 41.792969 26.894531 42.226562 27.34375 42.40625 L 28.496094 42.875 C 28.660156 43.390625 28.867188 43.890625 29.117188 44.371094 L 28.628906 45.515625 C 28.441406 45.96875 28.542969 46.476562 28.886719 46.8125 L 30.707031 48.632812 C 31.046875 48.976562 31.554688 49.074219 32.003906 48.886719 L 33.148438 48.402344 C 33.628906 48.648438 34.128906 48.855469 34.644531 49.019531 L 35.113281 50.179688 C 35.300781 50.625 35.730469 50.914062 36.210938 50.914062 L 38.785156 50.914062 C 39.269531 50.914062 39.699219 50.621094 39.878906 50.171875 L 40.347656 49.019531 C 40.863281 48.859375 41.363281 48.652344 41.84375 48.402344 L 42.992188 48.886719 C 43.4375 49.074219 43.945312 48.976562 44.289062 48.632812 L 46.105469 46.8125 C 46.453125 46.464844 46.550781 45.957031 46.359375 45.515625 L 45.875 44.371094 C 46.121094 43.894531 46.328125 43.390625 46.496094 42.875 L 47.640625 42.40625 C 48.09375 42.226562 48.386719 41.796875 48.386719 41.308594 Z M 47 41.171875 L 45.664062 41.714844 C 45.464844 41.792969 45.316406 41.960938 45.257812 42.167969 C 45.078125 42.808594 44.824219 43.421875 44.503906 43.992188 C 44.394531 44.179688 44.382812 44.40625 44.46875 44.605469 L 45.027344 45.929688 L 43.402344 47.554688 L 42.078125 46.996094 C 41.878906 46.910156 41.652344 46.921875 41.464844 47.03125 C 40.890625 47.355469 40.28125 47.605469 39.644531 47.78125 C 39.4375 47.839844 39.265625 47.988281 39.1875 48.191406 L 38.644531 49.527344 L 36.34375 49.527344 L 35.804688 48.191406 C 35.722656 47.988281 35.554688 47.839844 35.347656 47.78125 C 34.710938 47.605469 34.101562 47.355469 33.53125 47.03125 C 33.34375 46.921875 33.117188 46.910156 32.917969 46.992188 L 31.589844 47.554688 L 29.960938 45.925781 L 30.523438 44.605469 C 30.609375 44.40625 30.59375 44.179688 30.488281 43.992188 C 30.164062 43.421875 29.910156 42.808594 29.734375 42.171875 C 29.679688 41.964844 29.527344 41.792969 29.328125 41.714844 L 27.992188 41.171875 L 27.992188 38.871094 L 29.328125 38.332031 C 29.527344 38.25 29.679688 38.082031 29.734375 37.871094 C 29.910156 37.234375 30.164062 36.625 30.488281 36.054688 C 30.59375 35.867188 30.609375 35.640625 30.523438 35.441406 L 29.960938 34.117188 L 31.589844 32.488281 L 32.492188 32.871094 L 32.492188 36.5625 C 30.777344 39.019531 31.050781 42.179688 33.195312 44.324219 C 35.527344 46.65625 39.464844 46.65625 41.796875 44.324219 C 43.871094 42.246094 44.15625 38.953125 42.5 36.5625 L 42.5 32.871094 L 43.402344 32.488281 L 45.03125 34.113281 L 44.46875 35.441406 C 44.382812 35.640625 44.394531 35.867188 44.503906 36.054688 C 44.824219 36.625 45.078125 37.234375 45.253906 37.871094 C 45.3125 38.082031 45.464844 38.25 45.664062 38.332031 L 47 38.871094 Z M 34.800781 42.460938 L 34.800781 41.195312 C 34.800781 40.996094 34.96875 40.832031 35.167969 40.832031 L 39.824219 40.832031 C 40.027344 40.832031 40.191406 40.996094 40.191406 41.195312 L 40.191406 42.460938 C 40.191406 42.660156 40.027344 42.828125 39.824219 42.828125 L 35.167969 42.828125 C 34.96875 42.828125 34.800781 42.660156 34.800781 42.460938 Z M 26.945312 46.277344 C 26.945312 46.660156 26.632812 46.96875 26.25 46.96875 L 22.433594 46.96875 C 22.046875 46.96875 21.738281 46.660156 21.738281 46.277344 C 21.738281 45.894531 22.046875 45.582031 22.433594 45.582031 L 26.25 45.582031 C 26.632812 45.582031 26.945312 45.894531 26.945312 46.277344 Z M 26.945312 48.851562 C 26.945312 49.234375 26.632812 49.546875 26.25 49.546875 L 22.433594 49.546875 C 22.046875 49.546875 21.738281 49.234375 21.738281 48.851562 C 21.738281 48.46875 22.046875 48.15625 22.433594 48.15625 L 26.25 48.15625 C 26.632812 48.15625 26.945312 48.46875 26.945312 48.851562 Z M 26.945312 51.429688 C 26.945312 51.8125 26.632812 52.125 26.25 52.125 L 22.433594 52.125 C 22.046875 52.125 21.738281 51.8125 21.738281 51.429688 C 21.738281 51.046875 22.046875 50.734375 22.433594 50.734375 L 26.25 50.734375 C 26.632812 50.734375 26.945312 51.046875 26.945312 51.429688 Z M 53.253906 46.277344 C 53.253906 46.660156 52.941406 46.96875 52.558594 46.96875 L 48.738281 46.96875 C 48.355469 46.96875 48.046875 46.660156 48.046875 46.277344 C 48.046875 45.894531 48.355469 45.582031 48.738281 45.582031 L 52.558594 45.582031 C 52.941406 45.582031 53.253906 45.894531 53.253906 46.277344 Z M 53.253906 48.851562 C 53.253906 49.234375 52.941406 49.546875 52.558594 49.546875 L 48.738281 49.546875 C 48.355469 49.546875 48.046875 49.234375 48.046875 48.851562 C 48.046875 48.46875 48.355469 48.15625 48.738281 48.15625 L 52.558594 48.15625 C 52.941406 48.15625 53.253906 48.46875 53.253906 48.851562 Z M 53.253906 51.429688 C 53.253906 51.8125 52.941406 52.125 52.558594 52.125 L 48.738281 52.125 C 48.355469 52.125 48.046875 51.8125 48.046875 51.429688 C 48.046875 51.046875 48.355469 50.734375 48.738281 50.734375 L 52.558594 50.734375 C 52.941406 50.734375 53.253906 51.046875 53.253906 51.429688 Z M 53.253906 51.429688 " fill-opacity="1" fill-rule="nonzero"/></g></svg>