<svg xmlns="http://www.w3.org/2000/svg" xmlns:xlink="http://www.w3.org/1999/xlink" width="100" zoomAndPan="magnify" viewBox="0 0 75 74.999997" height="100" preserveAspectRatio="xMidYMid meet" version="1.0"><defs><clipPath id="fcbf893555"><path d="M 57 12.652344 L 64.378906 12.652344 L 64.378906 20 L 57 20 Z M 57 12.652344 " clip-rule="nonzero"/></clipPath><clipPath id="b8b51d6950"><path d="M 10.378906 22 L 17 22 L 17 29 L 10.378906 29 Z M 10.378906 22 " clip-rule="nonzero"/></clipPath><clipPath id="730cea72ba"><path d="M 57 55 L 64 55 L 64 62.152344 L 57 62.152344 Z M 57 55 " clip-rule="nonzero"/></clipPath></defs><path fill="#b59862" d="M 39.929688 53.15625 C 39.640625 53.15625 39.355469 53.15625 39.007812 53.125 C 38.5625 53.125 38.054688 53.125 37.449219 53.125 C 36.496094 53.125 35.765625 52.363281 35.765625 51.441406 L 35.765625 49.695312 C 34.941406 49.441406 34.113281 49.125 33.351562 48.679688 C 33.257812 48.804688 33.160156 48.902344 33.066406 48.964844 C 32.144531 49.917969 31.636719 50.457031 30.9375 50.457031 C 30.175781 50.457031 29.601562 49.855469 28.394531 48.613281 C 28.078125 48.296875 27.730469 47.917969 27.285156 47.503906 C 26.964844 47.183594 26.808594 46.742188 26.808594 46.296875 C 26.808594 45.851562 26.964844 45.4375 27.285156 45.121094 L 28.523438 43.882812 C 28.109375 43.117188 27.792969 42.292969 27.539062 41.46875 C 27.410156 41.46875 27.253906 41.46875 27.125 41.46875 C 25.824219 41.5 25.09375 41.5 24.582031 40.992188 C 24.042969 40.449219 24.074219 39.65625 24.105469 37.910156 C 24.105469 37.464844 24.105469 36.921875 24.105469 36.351562 C 24.105469 35.398438 24.871094 34.667969 25.789062 34.667969 L 27.539062 34.667969 C 27.792969 33.808594 28.109375 33.015625 28.554688 32.253906 C 28.425781 32.160156 28.332031 32.0625 28.269531 31.96875 C 27.316406 31.046875 26.777344 30.539062 26.777344 29.839844 C 26.777344 29.078125 27.347656 28.503906 28.617188 27.296875 C 28.9375 26.980469 29.316406 26.628906 29.730469 26.1875 C 30.398438 25.550781 31.445312 25.550781 32.113281 26.1875 L 33.351562 27.425781 C 34.113281 27.011719 34.941406 26.695312 35.765625 26.441406 C 35.765625 26.3125 35.765625 26.152344 35.765625 26.027344 C 35.734375 24.722656 35.734375 23.992188 36.242188 23.484375 C 36.78125 22.945312 37.578125 22.976562 39.324219 23.007812 C 39.769531 23.007812 40.308594 23.007812 40.882812 23.007812 C 41.835938 23.007812 42.566406 23.769531 42.566406 24.691406 L 42.566406 26.441406 C 43.421875 26.695312 44.21875 27.011719 44.980469 27.457031 C 45.074219 27.328125 45.171875 27.234375 45.265625 27.171875 C 46.1875 26.21875 46.695312 25.675781 47.394531 25.675781 C 48.15625 25.675781 48.726562 26.25 49.9375 27.519531 C 50.253906 27.835938 50.601562 28.21875 51.046875 28.632812 C 51.683594 29.300781 51.683594 30.347656 51.046875 31.015625 L 49.808594 32.253906 C 50.222656 33.015625 50.539062 33.84375 50.792969 34.667969 C 50.953125 34.667969 51.078125 34.667969 51.207031 34.667969 C 52.507812 34.636719 53.238281 34.636719 53.746094 35.144531 C 54.289062 35.683594 54.257812 36.480469 54.257812 38.226562 C 54.222656 38.671875 54.222656 39.210938 54.222656 39.78125 C 54.222656 40.734375 53.460938 41.46875 52.539062 41.46875 L 50.792969 41.46875 C 50.539062 42.324219 50.222656 43.117188 49.808594 43.882812 C 49.902344 43.976562 50 44.070312 50.09375 44.167969 C 51.015625 45.089844 51.554688 45.597656 51.554688 46.296875 C 51.554688 47.058594 50.984375 47.628906 49.714844 48.835938 C 49.394531 49.15625 49.015625 49.503906 48.601562 49.949219 C 47.964844 50.585938 46.855469 50.585938 46.21875 49.949219 L 44.980469 48.710938 C 44.21875 49.125 43.390625 49.441406 42.566406 49.695312 C 42.566406 49.855469 42.566406 49.980469 42.566406 50.109375 C 42.597656 51.410156 42.597656 52.140625 42.089844 52.648438 C 41.675781 53.0625 41.070312 53.15625 39.929688 53.15625 Z M 33.257812 47.28125 C 33.351562 47.28125 33.480469 47.3125 33.574219 47.34375 C 34.496094 47.917969 35.511719 48.328125 36.5625 48.582031 C 36.847656 48.648438 37.039062 48.902344 37.039062 49.21875 L 37.039062 51.441406 C 37.039062 51.664062 37.226562 51.855469 37.449219 51.855469 C 38.054688 51.855469 38.5625 51.855469 39.007812 51.886719 C 40.054688 51.886719 41.039062 51.917969 41.199219 51.761719 C 41.324219 51.601562 41.324219 50.839844 41.292969 50.109375 C 41.292969 49.855469 41.292969 49.535156 41.292969 49.21875 C 41.292969 48.902344 41.484375 48.648438 41.769531 48.582031 C 42.820312 48.328125 43.835938 47.917969 44.757812 47.34375 C 45.011719 47.21875 45.328125 47.25 45.519531 47.441406 L 47.109375 49.027344 C 47.265625 49.1875 47.554688 49.1875 47.710938 49.027344 C 48.125 48.613281 48.507812 48.234375 48.824219 47.917969 C 49.554688 47.183594 50.285156 46.519531 50.285156 46.296875 C 50.285156 46.136719 49.714844 45.597656 49.203125 45.058594 C 49.015625 44.867188 48.792969 44.675781 48.570312 44.421875 C 48.347656 44.230469 48.316406 43.914062 48.472656 43.660156 C 49.015625 42.738281 49.425781 41.722656 49.679688 40.671875 C 49.777344 40.386719 50.03125 40.195312 50.316406 40.195312 L 52.539062 40.195312 C 52.761719 40.195312 52.953125 40.003906 52.953125 39.78125 C 52.953125 39.179688 52.984375 38.671875 52.984375 38.226562 C 52.984375 37.179688 53.015625 36.191406 52.859375 36.035156 C 52.730469 35.90625 51.96875 35.90625 51.207031 35.90625 C 50.953125 35.9375 50.632812 35.9375 50.316406 35.9375 C 50.03125 35.9375 49.777344 35.75 49.679688 35.460938 C 49.425781 34.414062 49.015625 33.398438 48.472656 32.476562 C 48.316406 32.222656 48.347656 31.902344 48.570312 31.714844 L 50.125 30.125 C 50.285156 29.964844 50.285156 29.679688 50.125 29.519531 C 49.714844 29.109375 49.332031 28.726562 49.046875 28.410156 C 48.316406 27.648438 47.617188 26.949219 47.394531 26.949219 C 47.234375 26.949219 46.695312 27.519531 46.1875 28.027344 C 45.996094 28.25 45.773438 28.441406 45.550781 28.695312 C 45.328125 28.886719 45.011719 28.917969 44.757812 28.789062 C 43.835938 28.21875 42.851562 27.804688 41.800781 27.550781 C 41.515625 27.488281 41.324219 27.234375 41.324219 26.917969 L 41.324219 24.691406 C 41.324219 24.46875 41.136719 24.28125 40.914062 24.28125 C 40.308594 24.28125 39.769531 24.28125 39.324219 24.28125 C 38.277344 24.246094 37.292969 24.246094 37.132812 24.40625 C 37.003906 24.535156 37.039062 25.296875 37.039062 26.027344 C 37.039062 26.28125 37.039062 26.597656 37.039062 26.917969 C 37.039062 27.234375 36.847656 27.488281 36.5625 27.550781 C 35.511719 27.804688 34.527344 28.21875 33.605469 28.789062 C 33.351562 28.917969 33.035156 28.886719 32.8125 28.695312 L 31.222656 27.105469 C 31.066406 26.949219 30.808594 26.949219 30.652344 27.105469 C 30.207031 27.519531 29.824219 27.902344 29.507812 28.21875 C 28.777344 28.917969 28.078125 29.617188 28.078125 29.839844 C 28.078125 29.996094 28.617188 30.539062 29.160156 31.078125 C 29.347656 31.269531 29.570312 31.460938 29.792969 31.714844 C 29.984375 31.902344 30.046875 32.222656 29.890625 32.476562 C 29.316406 33.398438 28.902344 34.414062 28.648438 35.429688 C 28.585938 35.714844 28.332031 35.9375 28.046875 35.9375 L 25.789062 35.9375 C 25.570312 35.9375 25.378906 36.128906 25.378906 36.351562 C 25.378906 36.957031 25.378906 37.464844 25.378906 37.910156 C 25.378906 38.957031 25.347656 39.941406 25.503906 40.101562 C 25.632812 40.226562 26.394531 40.195312 27.125 40.195312 C 27.410156 40.195312 27.695312 40.195312 28.046875 40.195312 C 28.332031 40.195312 28.585938 40.386719 28.648438 40.671875 C 28.902344 41.722656 29.347656 42.738281 29.890625 43.660156 C 30.046875 43.914062 29.984375 44.230469 29.792969 44.421875 L 28.207031 46.011719 C 28.140625 46.074219 28.078125 46.199219 28.078125 46.296875 C 28.078125 46.421875 28.140625 46.519531 28.207031 46.582031 C 28.648438 47.027344 29 47.40625 29.316406 47.726562 C 30.046875 48.457031 30.714844 49.15625 30.9375 49.15625 C 31.128906 49.15625 31.667969 48.613281 32.175781 48.074219 C 32.367188 47.882812 32.589844 47.660156 32.8125 47.441406 C 32.90625 47.3125 33.097656 47.28125 33.257812 47.28125 Z M 33.257812 47.28125 " fill-opacity="1" fill-rule="evenodd"/><path fill="#b59862" d="M 39.164062 44.960938 C 35.351562 44.960938 32.273438 41.878906 32.273438 38.066406 C 32.273438 34.253906 35.351562 31.171875 39.164062 31.171875 C 42.976562 31.171875 46.058594 34.253906 46.058594 38.066406 C 46.058594 41.878906 42.976562 44.960938 39.164062 44.960938 Z M 39.164062 32.445312 C 36.050781 32.445312 33.542969 34.953125 33.542969 38.066406 C 33.542969 41.148438 36.050781 43.691406 39.164062 43.691406 C 42.277344 43.691406 44.789062 41.148438 44.789062 38.066406 C 44.789062 34.953125 42.277344 32.445312 39.164062 32.445312 Z M 39.164062 32.445312 " fill-opacity="1" fill-rule="evenodd"/><path fill="#b59862" d="M 46.664062 24.3125 C 46.34375 24.3125 46.027344 24.023438 46.027344 23.675781 L 46.027344 16.019531 C 46.027344 15.671875 46.34375 15.382812 46.664062 15.382812 L 58.511719 15.382812 C 58.863281 15.382812 59.148438 15.671875 59.148438 16.019531 C 59.148438 16.367188 58.863281 16.65625 58.511719 16.65625 L 47.296875 16.65625 L 47.296875 23.675781 C 47.296875 24.023438 47.042969 24.3125 46.664062 24.3125 Z M 46.664062 24.3125 " fill-opacity="1" fill-rule="evenodd"/><g clip-path="url(#fcbf893555)"><path fill="#b59862" d="M 61.246094 19.386719 C 59.371094 19.386719 57.878906 17.894531 57.878906 16.019531 C 57.878906 14.175781 59.371094 12.652344 61.246094 12.652344 C 63.089844 12.652344 64.613281 14.175781 64.613281 16.019531 C 64.613281 17.894531 63.089844 19.386719 61.246094 19.386719 Z M 61.246094 13.921875 C 60.101562 13.921875 59.148438 14.875 59.148438 16.019531 C 59.148438 17.164062 60.101562 18.117188 61.246094 18.117188 C 62.390625 18.117188 63.34375 17.164062 63.34375 16.019531 C 63.34375 14.875 62.390625 13.921875 61.246094 13.921875 Z M 61.246094 13.921875 " fill-opacity="1" fill-rule="evenodd"/></g><path fill="#b59862" d="M 24.871094 32.539062 C 24.519531 32.539062 24.234375 32.253906 24.234375 31.902344 L 24.234375 26.40625 L 15.402344 26.40625 C 15.050781 26.40625 14.765625 26.121094 14.765625 25.773438 C 14.765625 25.421875 15.050781 25.136719 15.402344 25.136719 L 24.871094 25.136719 C 25.21875 25.136719 25.503906 25.421875 25.503906 25.773438 L 25.503906 31.902344 C 25.503906 32.253906 25.21875 32.539062 24.871094 32.539062 Z M 24.871094 32.539062 " fill-opacity="1" fill-rule="evenodd"/><g clip-path="url(#b8b51d6950)"><path fill="#b59862" d="M 13.210938 28.601562 C 11.652344 28.601562 10.382812 27.328125 10.382812 25.773438 C 10.382812 24.214844 11.652344 22.945312 13.210938 22.945312 C 14.765625 22.945312 16.003906 24.214844 16.003906 25.773438 C 16.039062 27.328125 14.765625 28.601562 13.210938 28.601562 Z M 13.210938 24.214844 C 12.351562 24.214844 11.652344 24.914062 11.652344 25.773438 C 11.652344 26.628906 12.351562 27.328125 13.210938 27.328125 C 14.066406 27.328125 14.765625 26.628906 14.765625 25.773438 C 14.765625 24.914062 14.066406 24.214844 13.210938 24.214844 Z M 13.210938 24.214844 " fill-opacity="1" fill-rule="evenodd"/></g><path fill="#b59862" d="M 33.890625 25.519531 C 33.542969 25.519531 33.257812 25.234375 33.257812 24.882812 L 33.257812 20.847656 C 33.257812 20.5 33.542969 20.214844 33.890625 20.214844 C 34.273438 20.214844 34.527344 20.5 34.527344 20.847656 L 34.527344 24.882812 C 34.527344 25.234375 34.242188 25.519531 33.890625 25.519531 Z M 33.890625 25.519531 " fill-opacity="1" fill-rule="evenodd"/><path fill="#b59862" d="M 33.890625 21.484375 C 32.335938 21.484375 31.097656 20.214844 31.097656 18.65625 C 31.097656 17.097656 32.367188 15.859375 33.890625 15.859375 C 35.449219 15.859375 36.71875 17.097656 36.71875 18.65625 C 36.71875 20.214844 35.449219 21.484375 33.890625 21.484375 Z M 33.890625 17.132812 C 33.035156 17.132812 32.367188 17.796875 32.367188 18.65625 C 32.367188 19.515625 33.066406 20.214844 33.890625 20.214844 C 34.75 20.214844 35.449219 19.515625 35.449219 18.65625 C 35.449219 17.832031 34.75 17.132812 33.890625 17.132812 Z M 33.890625 17.132812 " fill-opacity="1" fill-rule="evenodd"/><path fill="#b59862" d="M 57.402344 32.824219 L 53.367188 32.824219 C 53.015625 32.824219 52.730469 32.539062 52.730469 32.191406 C 52.730469 31.839844 53.015625 31.554688 53.367188 31.554688 L 57.402344 31.554688 C 57.75 31.554688 58.035156 31.839844 58.035156 32.191406 C 58.035156 32.539062 57.78125 32.824219 57.402344 32.824219 Z M 57.402344 32.824219 " fill-opacity="1" fill-rule="evenodd"/><path fill="#b59862" d="M 59.59375 35.019531 C 58.035156 35.019531 56.765625 33.746094 56.765625 32.191406 C 56.765625 30.632812 58.035156 29.363281 59.59375 29.363281 C 61.148438 29.363281 62.421875 30.632812 62.421875 32.191406 C 62.421875 33.746094 61.148438 35.019531 59.59375 35.019531 Z M 59.59375 30.632812 C 58.734375 30.632812 58.070312 31.332031 58.070312 32.191406 C 58.070312 33.046875 58.734375 33.746094 59.59375 33.746094 C 60.453125 33.746094 61.148438 33.046875 61.148438 32.191406 C 61.148438 31.332031 60.453125 30.632812 59.59375 30.632812 Z M 59.59375 30.632812 " fill-opacity="1" fill-rule="evenodd"/><path fill="#b59862" d="M 60.417969 56.90625 C 60.070312 56.90625 59.785156 56.621094 59.785156 56.269531 L 59.785156 45.058594 L 52.792969 45.058594 C 52.445312 45.058594 52.160156 44.769531 52.160156 44.421875 C 52.160156 44.070312 52.445312 43.785156 52.792969 43.785156 L 60.417969 43.785156 C 60.769531 43.785156 61.054688 44.070312 61.054688 44.421875 L 61.054688 56.269531 C 61.054688 56.621094 60.769531 56.90625 60.417969 56.90625 Z M 60.417969 56.90625 " fill-opacity="1" fill-rule="evenodd"/><g clip-path="url(#730cea72ba)"><path fill="#b59862" d="M 60.417969 62.339844 C 58.578125 62.339844 57.050781 60.847656 57.050781 58.972656 C 57.050781 57.128906 58.578125 55.636719 60.417969 55.636719 C 62.261719 55.636719 63.785156 57.128906 63.785156 58.972656 C 63.785156 60.847656 62.261719 62.339844 60.417969 62.339844 Z M 60.417969 56.90625 C 59.277344 56.90625 58.324219 57.828125 58.324219 58.972656 C 58.324219 60.148438 59.277344 61.070312 60.417969 61.070312 C 61.5625 61.070312 62.515625 60.148438 62.515625 58.972656 C 62.515625 57.828125 61.5625 56.90625 60.417969 56.90625 Z M 60.417969 56.90625 " fill-opacity="1" fill-rule="evenodd"/></g><path fill="#b59862" d="M 44.3125 56.398438 C 43.964844 56.398438 43.675781 56.113281 43.675781 55.761719 L 43.675781 51.726562 C 43.675781 51.378906 43.964844 51.09375 44.3125 51.09375 C 44.660156 51.09375 44.949219 51.378906 44.949219 51.726562 L 44.949219 55.761719 C 44.949219 56.113281 44.660156 56.398438 44.3125 56.398438 Z M 44.3125 56.398438 " fill-opacity="1" fill-rule="evenodd"/><path fill="#b59862" d="M 44.3125 60.75 C 42.753906 60.75 41.515625 59.480469 41.515625 57.921875 C 41.515625 56.367188 42.753906 55.097656 44.3125 55.097656 C 45.867188 55.097656 47.140625 56.367188 47.140625 57.921875 C 47.140625 59.480469 45.867188 60.75 44.3125 60.75 Z M 44.3125 56.398438 C 43.453125 56.398438 42.789062 57.097656 42.789062 57.921875 C 42.789062 58.78125 43.488281 59.480469 44.3125 59.480469 C 45.171875 59.480469 45.867188 58.78125 45.867188 57.921875 C 45.867188 57.097656 45.171875 56.398438 44.3125 56.398438 Z M 44.3125 56.398438 " fill-opacity="1" fill-rule="evenodd"/><path fill="#b59862" d="M 32.875 58.113281 L 23.375 58.113281 C 23.027344 58.113281 22.742188 57.828125 22.742188 57.480469 C 22.742188 57.128906 23.027344 56.84375 23.375 56.84375 L 32.238281 56.84375 L 32.238281 51.347656 C 32.238281 50.996094 32.527344 50.710938 32.875 50.710938 C 33.226562 50.710938 33.511719 50.996094 33.511719 51.347656 L 33.511719 57.480469 C 33.511719 57.828125 33.226562 58.113281 32.875 58.113281 Z M 32.875 58.113281 " fill-opacity="1" fill-rule="evenodd"/><path fill="#b59862" d="M 21.183594 60.304688 C 19.628906 60.304688 18.355469 59.035156 18.355469 57.480469 C 18.355469 55.921875 19.628906 54.652344 21.183594 54.652344 C 22.742188 54.652344 24.011719 55.921875 24.011719 57.480469 C 24.011719 59.035156 22.742188 60.304688 21.183594 60.304688 Z M 21.183594 55.921875 C 20.328125 55.921875 19.628906 56.621094 19.628906 57.480469 C 19.628906 58.335938 20.328125 59.003906 21.183594 59.003906 C 22.042969 59.003906 22.742188 58.304688 22.742188 57.480469 C 22.742188 56.621094 22.042969 55.921875 21.183594 55.921875 Z M 21.183594 55.921875 " fill-opacity="1" fill-rule="evenodd"/><path fill="#b59862" d="M 25.695312 44.390625 L 21.660156 44.390625 C 21.3125 44.390625 21.023438 44.105469 21.023438 43.753906 C 21.023438 43.40625 21.3125 43.117188 21.660156 43.117188 L 25.695312 43.117188 C 26.042969 43.117188 26.332031 43.40625 26.332031 43.753906 C 26.332031 44.105469 26.042969 44.390625 25.695312 44.390625 Z M 25.695312 44.390625 " fill-opacity="1" fill-rule="evenodd"/><path fill="#b59862" d="M 19.5 46.550781 C 17.945312 46.550781 16.671875 45.3125 16.671875 43.753906 C 16.671875 42.199219 17.945312 40.925781 19.5 40.925781 C 21.058594 40.925781 22.296875 42.199219 22.296875 43.753906 C 22.296875 45.3125 21.023438 46.550781 19.5 46.550781 Z M 19.5 42.199219 C 18.644531 42.199219 17.945312 42.894531 17.945312 43.753906 C 17.945312 44.613281 18.644531 45.277344 19.5 45.277344 C 20.328125 45.277344 21.023438 44.582031 21.023438 43.753906 C 21.023438 42.894531 20.328125 42.199219 19.5 42.199219 Z M 19.5 42.199219 " fill-opacity="1" fill-rule="evenodd"/></svg>