<svg xmlns="http://www.w3.org/2000/svg" xmlns:xlink="http://www.w3.org/1999/xlink" width="100" zoomAndPan="magnify" viewBox="0 0 75 74.999997" height="100" preserveAspectRatio="xMidYMid meet" version="1.0"><defs><clipPath id="a8b9db0bab"><path d="M 12.253906 15.820312 L 62.503906 15.820312 L 62.503906 59.320312 L 12.253906 59.320312 Z M 12.253906 15.820312 " clip-rule="nonzero"/></clipPath></defs><g clip-path="url(#a8b9db0bab)"><path fill="#b59862" d="M 18.855469 27.449219 C 18.742188 27.652344 18.527344 27.765625 18.3125 27.765625 C 18.207031 27.765625 18.097656 27.738281 18 27.679688 L 16.753906 26.960938 C 16.453125 26.789062 16.351562 26.402344 16.523438 26.105469 C 16.699219 25.804688 17.082031 25.699219 17.382812 25.875 L 18.628906 26.589844 C 18.925781 26.765625 19.03125 27.148438 18.855469 27.449219 Z M 19.707031 23.5625 C 19.53125 23.261719 19.636719 22.878906 19.9375 22.703125 C 20.238281 22.53125 20.621094 22.632812 20.792969 22.933594 L 21.511719 24.179688 C 21.6875 24.480469 21.582031 24.863281 21.28125 25.039062 C 21.183594 25.09375 21.074219 25.121094 20.96875 25.121094 C 20.75 25.121094 20.539062 25.007812 20.425781 24.808594 Z M 30.304688 27.480469 C 30.132812 27.179688 30.234375 26.792969 30.535156 26.621094 L 31.78125 25.902344 C 32.082031 25.730469 32.464844 25.832031 32.636719 26.132812 C 32.8125 26.433594 32.707031 26.816406 32.410156 26.992188 L 31.164062 27.710938 C 31.066406 27.765625 30.957031 27.792969 30.851562 27.792969 C 30.632812 27.792969 30.421875 27.679688 30.304688 27.480469 Z M 27.664062 24.195312 L 28.382812 22.949219 C 28.554688 22.648438 28.9375 22.546875 29.238281 22.71875 C 29.539062 22.894531 29.644531 23.277344 29.46875 23.578125 L 28.75 24.824219 C 28.632812 25.023438 28.421875 25.136719 28.207031 25.136719 C 28.097656 25.136719 27.992188 25.109375 27.894531 25.054688 C 27.59375 24.878906 27.488281 24.496094 27.664062 24.195312 Z M 23.960938 23.53125 L 23.960938 22.09375 C 23.960938 21.75 24.242188 21.464844 24.589844 21.464844 C 24.9375 21.464844 25.21875 21.75 25.21875 22.09375 L 25.21875 23.53125 C 25.21875 23.878906 24.9375 24.160156 24.589844 24.160156 C 24.242188 24.160156 23.960938 23.878906 23.960938 23.53125 Z M 25.921875 31.1875 C 25.921875 31.09375 26 31.015625 26.09375 31.015625 C 26.1875 31.015625 26.265625 31.09375 26.265625 31.1875 C 26.265625 31.28125 26.1875 31.359375 26.09375 31.359375 C 26 31.359375 25.921875 31.28125 25.921875 31.1875 Z M 20.546875 30.097656 C 20.546875 31.292969 21.074219 32.421875 21.988281 33.191406 C 22.59375 33.703125 22.976562 34.355469 23.113281 35.101562 L 23.257812 35.101562 L 23.257812 32.605469 C 23.203125 32.613281 23.144531 32.617188 23.085938 32.617188 C 22.296875 32.617188 21.65625 31.976562 21.65625 31.1875 C 21.65625 30.398438 22.296875 29.757812 23.085938 29.757812 C 23.875 29.757812 24.515625 30.398438 24.515625 31.1875 L 24.515625 35.105469 L 24.664062 35.105469 L 24.664062 31.1875 C 24.664062 31.167969 24.664062 31.144531 24.667969 31.125 C 24.699219 30.367188 25.328125 29.757812 26.09375 29.757812 C 26.882812 29.757812 27.523438 30.398438 27.523438 31.1875 C 27.523438 31.976562 26.882812 32.617188 26.09375 32.617188 C 26.035156 32.617188 25.976562 32.613281 25.921875 32.605469 L 25.921875 34.765625 C 26.136719 34.207031 26.507812 33.714844 27.019531 33.332031 C 28.042969 32.558594 28.632812 31.382812 28.632812 30.101562 C 28.632812 27.871094 26.816406 26.058594 24.589844 26.058594 C 22.363281 26.058594 20.546875 27.871094 20.546875 30.097656 Z M 25.363281 38.597656 L 23.503906 38.597656 C 23.320312 38.597656 23.167969 38.449219 23.167969 38.265625 L 23.167969 38.109375 L 25.695312 38.109375 L 25.695312 38.265625 C 25.695312 38.449219 25.546875 38.597656 25.363281 38.597656 Z M 25.695312 36.359375 L 25.695312 36.851562 L 23.167969 36.851562 L 23.167969 36.359375 Z M 23.257812 31.1875 C 23.257812 31.28125 23.179688 31.359375 23.085938 31.359375 C 22.992188 31.359375 22.914062 31.28125 22.914062 31.1875 C 22.914062 31.09375 22.992188 31.015625 23.085938 31.015625 C 23.179688 31.015625 23.257812 31.09375 23.257812 31.1875 Z M 21.914062 35.730469 L 21.914062 38.265625 C 21.914062 39.140625 22.625 39.855469 23.503906 39.855469 L 25.363281 39.855469 C 26.238281 39.855469 26.953125 39.140625 26.953125 38.265625 L 26.953125 35.980469 C 26.953125 35.308594 27.238281 34.738281 27.777344 34.332031 C 29.117188 33.320312 29.886719 31.777344 29.886719 30.097656 C 29.886719 27.179688 27.511719 24.800781 24.589844 24.800781 C 21.667969 24.800781 19.292969 27.175781 19.292969 30.097656 C 19.292969 31.664062 19.980469 33.144531 21.179688 34.152344 C 21.664062 34.5625 21.914062 35.09375 21.914062 35.730469 Z M 58.988281 48.285156 L 24.539062 48.285156 C 23.164062 48.285156 22.046875 47.167969 22.046875 45.796875 L 22.046875 45.285156 L 33.808594 45.285156 C 34.042969 45.285156 34.261719 45.152344 34.367188 44.941406 C 34.476562 44.730469 34.457031 44.480469 34.316406 44.289062 C 33.953125 43.78125 33.648438 43.21875 33.402344 42.613281 L 61.480469 42.613281 L 61.480469 45.796875 C 61.480469 47.167969 60.363281 48.285156 58.988281 48.285156 Z M 46.296875 53.917969 L 37.230469 53.917969 C 38.0625 52.726562 38.636719 51.265625 38.9375 49.542969 L 44.589844 49.542969 C 44.890625 51.265625 45.464844 52.726562 46.296875 53.917969 Z M 50.167969 56.546875 L 50.167969 57.902344 L 33.359375 57.902344 L 33.359375 56.546875 C 33.359375 55.789062 33.976562 55.171875 34.734375 55.171875 L 48.792969 55.171875 C 49.550781 55.171875 50.167969 55.789062 50.167969 56.546875 Z M 20.53125 40.257812 C 20.699219 40.257812 20.859375 40.320312 20.980469 40.4375 C 21.097656 40.554688 21.167969 40.71875 21.167969 40.886719 L 21.167969 44.027344 L 32.679688 44.027344 C 32.382812 43.46875 32.136719 42.871094 31.945312 42.25 C 31.917969 42.195312 31.902344 42.140625 31.894531 42.082031 C 31.226562 39.792969 31.265625 37.171875 32.09375 34.871094 C 32.101562 34.84375 32.113281 34.816406 32.128906 34.789062 C 32.402344 34.265625 32.6875 33.746094 32.996094 33.195312 C 34.472656 30.519531 36 27.753906 35.5625 25.371094 C 34.917969 21.851562 32.707031 19.191406 29.503906 18.070312 C 25.785156 16.769531 21.386719 17.785156 18.019531 20.714844 C 15.234375 23.136719 14.5 25.289062 15.558594 27.90625 C 15.628906 28.085938 15.613281 28.289062 15.515625 28.457031 L 13.574219 31.785156 C 13.507812 31.898438 13.492188 32.035156 13.523438 32.167969 C 13.558594 32.300781 13.644531 32.410156 13.757812 32.480469 C 13.941406 32.585938 14.101562 32.660156 14.246094 32.730469 C 14.867188 33.027344 15.394531 33.382812 15.011719 34.46875 C 14.921875 34.730469 14.972656 34.792969 15.113281 34.988281 C 15.246094 35.164062 15.488281 35.496094 15.355469 35.933594 C 15.292969 36.136719 15.335938 36.324219 15.476562 36.480469 C 15.839844 36.886719 15.621094 37.378906 15.425781 37.8125 C 15.175781 38.371094 14.988281 38.863281 15.21875 39.214844 C 15.488281 39.625 16.535156 40.304688 20.53125 40.257812 Z M 39.414062 25.109375 C 39.265625 25.109375 39.148438 24.988281 39.148438 24.84375 C 39.148438 24.695312 39.265625 24.578125 39.414062 24.578125 C 39.5625 24.578125 39.679688 24.695312 39.679688 24.84375 C 39.679688 24.988281 39.5625 25.109375 39.414062 25.109375 Z M 43.96875 27.246094 C 44.117188 27.246094 44.234375 27.363281 44.234375 27.511719 C 44.234375 27.65625 44.117188 27.777344 43.96875 27.777344 C 43.824219 27.777344 43.703125 27.65625 43.703125 27.511719 C 43.703125 27.363281 43.824219 27.246094 43.96875 27.246094 Z M 48.523438 22.03125 C 48.378906 22.03125 48.257812 21.910156 48.257812 21.765625 C 48.257812 21.617188 48.378906 21.5 48.523438 21.5 C 48.671875 21.5 48.789062 21.617188 48.789062 21.765625 C 48.789062 21.910156 48.671875 22.03125 48.523438 22.03125 Z M 53.378906 23.019531 L 55.394531 19.773438 L 34.257812 19.773438 C 35.535156 21.21875 36.414062 23.046875 36.800781 25.140625 C 37.320312 27.96875 35.605469 31.066406 34.09375 33.800781 C 33.800781 34.335938 33.523438 34.835938 33.261719 35.335938 C 32.578125 37.261719 32.507812 39.425781 32.992188 41.355469 L 61.480469 41.355469 L 61.480469 22.265625 C 61.480469 20.894531 60.363281 19.777344 58.988281 19.777344 L 56.875 19.777344 L 54.398438 23.757812 C 54.527344 23.980469 54.605469 24.238281 54.605469 24.511719 C 54.605469 25.355469 53.917969 26.035156 53.078125 26.035156 C 52.242188 26.035156 51.558594 25.355469 51.558594 24.511719 C 51.558594 24.355469 51.582031 24.203125 51.625 24.0625 L 49.5625 22.875 C 49.292969 23.128906 48.925781 23.289062 48.523438 23.289062 C 48.410156 23.289062 48.300781 23.273438 48.195312 23.25 L 45.394531 26.976562 C 45.457031 27.144531 45.492188 27.320312 45.492188 27.511719 C 45.492188 28.351562 44.808594 29.03125 43.96875 29.03125 C 43.128906 29.03125 42.445312 28.351562 42.445312 27.511719 C 42.445312 27.449219 42.449219 27.390625 42.457031 27.335938 L 40.332031 26.054688 C 40.078125 26.25 39.757812 26.367188 39.414062 26.367188 C 38.574219 26.367188 37.890625 25.679688 37.890625 24.84375 C 37.890625 24.003906 38.574219 23.320312 39.414062 23.320312 C 40.253906 23.320312 40.9375 24.003906 40.9375 24.84375 C 40.9375 24.878906 40.933594 24.914062 40.929688 24.945312 L 43.105469 26.257812 C 43.351562 26.085938 43.648438 25.984375 43.96875 25.984375 C 44.152344 25.984375 44.328125 26.019531 44.492188 26.082031 L 47.1875 22.496094 C 47.070312 22.277344 47 22.027344 47 21.761719 C 47 20.921875 47.683594 20.242188 48.523438 20.242188 C 49.34375 20.242188 50.011719 20.890625 50.042969 21.699219 L 52.492188 23.109375 C 52.671875 23.03125 52.871094 22.988281 53.078125 22.988281 C 53.183594 22.992188 53.28125 23 53.378906 23.019531 Z M 53.078125 24.246094 C 53.226562 24.246094 53.347656 24.367188 53.347656 24.511719 C 53.347656 24.660156 53.226562 24.78125 53.078125 24.78125 C 52.933594 24.78125 52.8125 24.660156 52.8125 24.511719 C 52.8125 24.367188 52.933594 24.246094 53.078125 24.246094 Z M 57.636719 17.097656 C 57.78125 17.097656 57.902344 17.21875 57.902344 17.363281 C 57.902344 17.511719 57.78125 17.628906 57.636719 17.628906 C 57.488281 17.628906 57.371094 17.511719 57.371094 17.363281 C 57.371094 17.21875 57.488281 17.097656 57.636719 17.097656 Z M 58.988281 18.519531 L 58.625 18.519531 C 58.953125 18.238281 59.160156 17.824219 59.160156 17.363281 C 59.160156 16.523438 58.476562 15.84375 57.636719 15.84375 C 56.796875 15.84375 56.113281 16.527344 56.113281 17.363281 C 56.113281 17.679688 56.207031 17.96875 56.371094 18.210938 L 56.179688 18.519531 L 32.921875 18.519531 C 32.039062 17.828125 31.03125 17.273438 29.917969 16.886719 C 27.929688 16.191406 25.722656 16.066406 23.542969 16.53125 C 21.265625 17.015625 19.070312 18.136719 17.195312 19.769531 C 15.246094 21.464844 12.855469 24.15625 14.277344 28.085938 L 12.492188 31.152344 C 12.253906 31.558594 12.1875 32.03125 12.308594 32.488281 C 12.429688 32.945312 12.71875 33.328125 13.125 33.566406 C 13.351562 33.695312 13.546875 33.789062 13.703125 33.863281 C 13.757812 33.890625 13.8125 33.917969 13.863281 33.941406 C 13.855469 33.972656 13.84375 34.011719 13.828125 34.054688 C 13.515625 34.941406 13.914062 35.480469 14.101562 35.738281 C 14.105469 35.738281 14.105469 35.742188 14.109375 35.742188 C 14.007812 36.222656 14.101562 36.695312 14.367188 37.101562 C 14.339844 37.164062 14.304688 37.242188 14.277344 37.300781 C 14.003906 37.917969 13.542969 38.953125 14.171875 39.910156 C 14.871094 40.976562 16.703125 41.492188 19.910156 41.515625 L 19.910156 44.65625 C 19.910156 45.003906 20.191406 45.285156 20.539062 45.285156 L 20.792969 45.285156 L 20.792969 45.796875 C 20.792969 47.863281 22.472656 49.542969 24.539062 49.542969 L 37.660156 49.542969 C 37.308594 51.363281 36.625 52.828125 35.621094 53.917969 L 34.734375 53.917969 C 33.28125 53.917969 32.101562 55.101562 32.101562 56.550781 L 32.101562 58.535156 C 32.101562 58.878906 32.382812 59.164062 32.730469 59.164062 L 50.796875 59.164062 C 51.144531 59.164062 51.425781 58.878906 51.425781 58.535156 L 51.425781 56.550781 C 51.425781 55.101562 50.246094 53.917969 48.792969 53.917969 L 47.90625 53.917969 C 46.898438 52.828125 46.214844 51.363281 45.867188 49.542969 L 58.988281 49.542969 C 61.054688 49.542969 62.734375 47.863281 62.734375 45.796875 L 62.734375 22.265625 C 62.734375 20.199219 61.054688 18.519531 58.988281 18.519531 Z M 42.550781 31.792969 L 44.613281 31.792969 L 44.613281 38.0625 L 42.550781 38.0625 Z M 47.933594 33.738281 L 47.933594 38.0625 L 45.871094 38.0625 L 45.871094 33.738281 Z M 49.1875 29.875 L 51.25 29.875 L 51.25 38.0625 L 49.1875 38.0625 Z M 54.566406 31.792969 L 54.566406 38.0625 L 52.507812 38.0625 L 52.507812 31.792969 Z M 55.824219 26.769531 L 57.886719 26.769531 L 57.886719 38.0625 L 55.824219 38.0625 Z M 41.921875 39.320312 L 58.515625 39.320312 C 58.863281 39.320312 59.144531 39.039062 59.144531 38.691406 L 59.144531 26.140625 C 59.144531 25.792969 58.863281 25.511719 58.515625 25.511719 L 55.195312 25.511719 C 54.851562 25.511719 54.566406 25.792969 54.566406 26.140625 L 54.566406 30.535156 L 52.507812 30.535156 L 52.507812 29.246094 C 52.507812 28.898438 52.226562 28.617188 51.878906 28.617188 L 48.558594 28.617188 C 48.210938 28.617188 47.933594 28.898438 47.933594 29.246094 L 47.933594 32.480469 L 45.871094 32.480469 L 45.871094 31.164062 C 45.871094 30.816406 45.589844 30.535156 45.242188 30.535156 L 41.921875 30.535156 C 41.574219 30.535156 41.292969 30.816406 41.292969 31.164062 L 41.292969 38.691406 C 41.292969 39.039062 41.574219 39.320312 41.921875 39.320312 Z M 41.921875 39.320312 " fill-opacity="1" fill-rule="evenodd"/></g></svg>