<svg xmlns="http://www.w3.org/2000/svg" xmlns:xlink="http://www.w3.org/1999/xlink" width="100" zoomAndPan="magnify" viewBox="0 0 75 74.999997" height="100" preserveAspectRatio="xMidYMid meet" version="1.0"><defs><clipPath id="dcb1799eb0"><path d="M 9.300781 9.300781 L 65.550781 9.300781 L 65.550781 65.550781 L 9.300781 65.550781 Z M 9.300781 9.300781 " clip-rule="nonzero"/></clipPath></defs><g clip-path="url(#dcb1799eb0)"><path fill="#b59862" d="M 15.355469 16.292969 L 15.355469 21.046875 C 15.355469 21.457031 15.023438 21.792969 14.613281 21.792969 L 10.039062 21.792969 C 9.628906 21.792969 9.296875 21.457031 9.296875 21.046875 L 9.296875 10.046875 C 9.296875 9.636719 9.628906 9.304688 10.039062 9.304688 L 14.613281 9.304688 C 15.023438 9.304688 15.355469 9.636719 15.355469 10.046875 L 15.355469 14.804688 L 17.414062 14.804688 C 17.636719 14.804688 17.84375 14.902344 17.984375 15.070312 L 26.027344 24.644531 L 27.035156 23.636719 C 27.285156 23.386719 27.683594 23.347656 27.976562 23.550781 C 27.976562 23.550781 30.386719 25.191406 30.386719 25.191406 C 31.460938 24.570312 32.609375 24.09375 33.808594 23.773438 L 34.351562 20.910156 C 34.417969 20.558594 34.726562 20.304688 35.082031 20.304688 L 39.898438 20.304688 C 40.253906 20.304688 40.5625 20.558594 40.628906 20.910156 C 40.628906 20.910156 41.171875 23.773438 41.171875 23.773438 C 42.371094 24.09375 43.519531 24.570312 44.59375 25.191406 L 47.003906 23.550781 C 47.296875 23.347656 47.695312 23.386719 47.945312 23.636719 L 48.863281 24.554688 L 56.832031 15.070312 C 56.972656 14.902344 57.183594 14.804688 57.402344 14.804688 L 59.625 14.804688 L 59.625 10.046875 C 59.625 9.636719 59.957031 9.304688 60.367188 9.304688 L 64.941406 9.304688 C 65.351562 9.304688 65.6875 9.636719 65.6875 10.046875 L 65.6875 21.046875 C 65.6875 21.457031 65.351562 21.792969 64.941406 21.792969 L 60.367188 21.792969 C 59.957031 21.792969 59.625 21.457031 59.625 21.046875 L 59.625 16.292969 L 57.75 16.292969 L 49.921875 25.609375 L 51.351562 27.042969 C 51.605469 27.296875 51.640625 27.691406 51.441406 27.988281 C 51.441406 27.988281 49.800781 30.398438 49.800781 30.398438 C 50.417969 31.472656 50.894531 32.621094 51.214844 33.816406 L 54.082031 34.363281 C 54.433594 34.429688 54.6875 34.734375 54.6875 35.09375 L 54.6875 36.757812 L 59.625 36.757812 L 59.625 32 C 59.625 31.589844 59.957031 31.257812 60.367188 31.257812 L 64.941406 31.257812 C 65.351562 31.257812 65.6875 31.589844 65.6875 32 L 65.6875 43 C 65.6875 43.410156 65.351562 43.742188 64.941406 43.742188 L 60.367188 43.742188 C 59.957031 43.742188 59.625 43.410156 59.625 43 L 59.625 38.242188 L 54.6875 38.242188 L 54.6875 39.90625 C 54.6875 40.265625 54.433594 40.570312 54.082031 40.636719 C 54.082031 40.636719 51.214844 41.183594 51.214844 41.183594 C 50.894531 42.378906 50.417969 43.527344 49.800781 44.601562 L 51.441406 47.011719 C 51.640625 47.308594 51.605469 47.703125 51.351562 47.957031 L 49.921875 49.386719 C 51.628906 51.421875 57.75 58.707031 57.75 58.707031 L 59.625 58.707031 L 59.625 53.953125 C 59.625 53.542969 59.957031 53.207031 60.367188 53.207031 L 64.941406 53.207031 C 65.351562 53.207031 65.6875 53.542969 65.6875 53.953125 L 65.6875 64.953125 C 65.6875 65.363281 65.351562 65.695312 64.941406 65.695312 L 60.367188 65.695312 C 59.957031 65.695312 59.625 65.363281 59.625 64.953125 L 59.625 60.195312 L 57.402344 60.195312 C 57.183594 60.195312 56.972656 60.097656 56.832031 59.929688 L 48.863281 50.445312 L 47.945312 51.359375 C 47.695312 51.613281 47.296875 51.652344 47.003906 51.449219 C 47.003906 51.449219 44.59375 49.808594 44.59375 49.808594 C 43.519531 50.429688 42.371094 50.90625 41.171875 51.226562 L 40.628906 54.089844 C 40.5625 54.441406 40.253906 54.695312 39.898438 54.695312 L 35.082031 54.695312 C 34.726562 54.695312 34.417969 54.441406 34.351562 54.089844 C 34.351562 54.089844 33.808594 51.226562 33.808594 51.226562 C 32.609375 50.90625 31.460938 50.429688 30.386719 49.808594 L 27.976562 51.449219 C 27.683594 51.652344 27.285156 51.613281 27.035156 51.359375 L 26.027344 50.355469 L 17.984375 59.929688 C 17.84375 60.097656 17.636719 60.195312 17.414062 60.195312 L 15.355469 60.195312 L 15.355469 64.953125 C 15.355469 65.363281 15.023438 65.695312 14.613281 65.695312 L 10.039062 65.695312 C 9.628906 65.695312 9.296875 65.363281 9.296875 64.953125 L 9.296875 53.953125 C 9.296875 53.542969 9.628906 53.207031 10.039062 53.207031 L 14.613281 53.207031 C 15.023438 53.207031 15.355469 53.542969 15.355469 53.953125 L 15.355469 58.707031 C 16.078125 58.707031 17.070312 58.707031 17.070312 58.707031 L 24.972656 49.300781 L 23.628906 47.957031 C 23.375 47.703125 23.339844 47.308594 23.539062 47.011719 C 23.539062 47.011719 25.179688 44.601562 25.179688 44.601562 C 24.5625 43.527344 24.085938 42.378906 23.765625 41.183594 L 20.898438 40.636719 C 20.546875 40.570312 20.292969 40.265625 20.292969 39.90625 L 20.292969 38.242188 L 15.355469 38.242188 L 15.355469 43 C 15.355469 43.410156 15.023438 43.742188 14.613281 43.742188 L 10.039062 43.742188 C 9.628906 43.742188 9.296875 43.410156 9.296875 43 L 9.296875 32 C 9.296875 31.589844 9.628906 31.257812 10.039062 31.257812 L 14.613281 31.257812 C 15.023438 31.257812 15.355469 31.589844 15.355469 32 L 15.355469 36.757812 L 20.292969 36.757812 L 20.292969 35.09375 C 20.292969 34.734375 20.546875 34.429688 20.898438 34.363281 C 20.898438 34.363281 23.765625 33.816406 23.765625 33.816406 C 24.085938 32.621094 24.5625 31.472656 25.179688 30.398438 L 23.539062 27.988281 C 23.339844 27.691406 23.375 27.296875 23.628906 27.042969 L 24.972656 25.699219 L 17.070312 16.292969 Z M 64.199219 32.742188 C 64.199219 32.742188 61.109375 32.742188 61.109375 32.742188 C 61.109375 32.742188 61.109375 42.257812 61.109375 42.257812 C 61.109375 42.257812 64.199219 42.257812 64.199219 42.257812 Z M 39.28125 21.792969 L 35.699219 21.792969 L 35.179688 24.519531 C 35.125 24.808594 34.902344 25.039062 34.617188 25.105469 C 33.25 25.421875 31.945312 25.960938 30.757812 26.703125 C 30.507812 26.859375 30.1875 26.851562 29.945312 26.6875 L 27.648438 25.125 L 25.117188 27.660156 L 26.675781 29.953125 C 26.84375 30.199219 26.847656 30.515625 26.695312 30.765625 C 25.953125 31.957031 25.410156 33.261719 25.09375 34.625 C 25.027344 34.914062 24.796875 35.132812 24.507812 35.1875 L 21.78125 35.707031 L 21.78125 39.292969 L 24.507812 39.808594 C 24.796875 39.867188 25.027344 40.085938 25.09375 40.371094 C 25.410156 41.738281 25.953125 43.042969 26.695312 44.234375 C 26.847656 44.484375 26.84375 44.800781 26.675781 45.046875 L 25.117188 47.339844 L 27.648438 49.875 L 29.945312 48.3125 C 30.1875 48.148438 30.507812 48.140625 30.757812 48.296875 C 31.945312 49.039062 33.25 49.578125 34.617188 49.894531 C 34.902344 49.960938 35.125 50.191406 35.179688 50.480469 L 35.699219 53.207031 L 39.28125 53.207031 L 39.800781 50.480469 C 39.855469 50.191406 40.078125 49.960938 40.363281 49.894531 C 41.730469 49.578125 43.035156 49.039062 44.222656 48.296875 C 44.472656 48.140625 44.792969 48.148438 45.035156 48.3125 L 47.332031 49.875 L 49.867188 47.339844 L 48.304688 45.046875 C 48.136719 44.800781 48.132812 44.484375 48.289062 44.234375 C 49.03125 43.042969 49.570312 41.738281 49.886719 40.371094 C 49.953125 40.085938 50.183594 39.867188 50.472656 39.808594 L 53.199219 39.292969 L 53.199219 35.707031 L 50.472656 35.1875 C 50.183594 35.132812 49.953125 34.914062 49.886719 34.625 C 49.570312 33.261719 49.03125 31.957031 48.289062 30.765625 C 48.132812 30.515625 48.136719 30.199219 48.304688 29.953125 L 49.867188 27.660156 L 47.332031 25.125 L 45.035156 26.6875 C 44.792969 26.851562 44.472656 26.859375 44.222656 26.703125 C 43.035156 25.960938 41.730469 25.421875 40.363281 25.105469 C 40.078125 25.039062 39.855469 24.808594 39.800781 24.519531 Z M 33.433594 38.351562 C 33.144531 38.0625 33.144531 37.589844 33.433594 37.300781 C 33.722656 37.011719 34.195312 37.011719 34.484375 37.300781 C 34.484375 37.300781 36.09375 38.910156 36.09375 38.910156 L 40.496094 34.511719 C 40.785156 34.21875 41.257812 34.21875 41.546875 34.511719 C 41.835938 34.800781 41.835938 35.273438 41.546875 35.5625 L 36.621094 40.488281 C 36.332031 40.777344 35.859375 40.777344 35.570312 40.488281 Z M 45.15625 34.824219 L 44.953125 35.390625 C 44.8125 35.777344 44.386719 35.976562 44 35.835938 C 43.613281 35.695312 43.414062 35.269531 43.554688 34.882812 L 44.363281 32.648438 C 44.5 32.273438 44.902344 32.070312 45.28125 32.1875 L 47.554688 32.890625 C 47.949219 33.011719 48.167969 33.425781 48.046875 33.820312 C 47.925781 34.210938 47.511719 34.429688 47.117188 34.308594 L 46.480469 34.113281 C 46.878906 35.167969 47.097656 36.308594 47.097656 37.5 C 47.097656 42.789062 42.78125 47.109375 37.492188 47.109375 C 35.667969 47.109375 33.957031 46.59375 32.503906 45.707031 C 32.152344 45.492188 32.042969 45.035156 32.253906 44.683594 C 32.46875 44.335938 32.925781 44.222656 33.277344 44.4375 C 34.507812 45.1875 35.949219 45.621094 37.492188 45.621094 C 41.960938 45.621094 45.613281 41.972656 45.613281 37.5 C 45.613281 36.5625 45.453125 35.660156 45.15625 34.824219 Z M 28.5 40.886719 C 28.101562 39.832031 27.882812 38.691406 27.882812 37.5 C 27.882812 32.207031 32.199219 27.890625 37.492188 27.890625 C 39.3125 27.890625 41.023438 28.402344 42.476562 29.292969 C 42.828125 29.507812 42.9375 29.964844 42.726562 30.316406 C 42.511719 30.664062 42.054688 30.777344 41.703125 30.5625 C 40.472656 29.8125 39.03125 29.378906 37.492188 29.378906 C 33.019531 29.378906 29.367188 33.027344 29.367188 37.5 C 29.367188 38.4375 29.527344 39.335938 29.824219 40.175781 L 30.027344 39.609375 C 30.167969 39.222656 30.59375 39.023438 30.980469 39.164062 C 31.367188 39.304688 31.566406 39.730469 31.425781 40.117188 L 30.617188 42.351562 C 30.480469 42.726562 30.078125 42.925781 29.699219 42.8125 L 27.425781 42.109375 C 27.03125 41.988281 26.8125 41.574219 26.933594 41.179688 C 27.054688 40.789062 27.46875 40.566406 27.863281 40.6875 Z M 13.871094 32.742188 C 13.871094 32.742188 10.78125 32.742188 10.78125 32.742188 C 10.78125 32.742188 10.78125 42.257812 10.78125 42.257812 C 10.78125 42.257812 13.871094 42.257812 13.871094 42.257812 Z M 64.199219 54.695312 C 64.199219 54.695312 61.109375 54.695312 61.109375 54.695312 C 61.109375 54.695312 61.109375 64.207031 61.109375 64.207031 C 61.109375 64.207031 64.199219 64.207031 64.199219 64.207031 Z M 13.871094 54.695312 C 13.871094 54.695312 10.78125 54.695312 10.78125 54.695312 C 10.78125 54.695312 10.78125 64.207031 10.78125 64.207031 C 10.78125 64.207031 13.871094 64.207031 13.871094 64.207031 Z M 13.871094 10.792969 C 13.871094 10.792969 10.78125 10.792969 10.78125 10.792969 C 10.78125 10.792969 10.78125 20.304688 10.78125 20.304688 C 10.78125 20.304688 13.871094 20.304688 13.871094 20.304688 Z M 64.199219 10.792969 C 64.199219 10.792969 61.109375 10.792969 61.109375 10.792969 C 61.109375 10.792969 61.109375 20.304688 61.109375 20.304688 C 61.109375 20.304688 64.199219 20.304688 64.199219 20.304688 Z M 64.199219 10.792969 " fill-opacity="1" fill-rule="evenodd"/></g></svg>