<svg xmlns="http://www.w3.org/2000/svg" xmlns:xlink="http://www.w3.org/1999/xlink" width="100" zoomAndPan="magnify" viewBox="0 0 75 74.999997" height="100" preserveAspectRatio="xMidYMid meet" version="1.0"><defs><clipPath id="f2c6c6e5b9"><path d="M 9.761719 20 L 50 20 L 50 33 L 9.761719 33 Z M 9.761719 20 " clip-rule="nonzero"/></clipPath><clipPath id="6dcae701f0"><path d="M 9.761719 36 L 50 36 L 50 49 L 9.761719 49 Z M 9.761719 36 " clip-rule="nonzero"/></clipPath><clipPath id="3d0a45c374"><path d="M 43 9.015625 L 65.261719 9.015625 L 65.261719 32 L 43 32 Z M 43 9.015625 " clip-rule="nonzero"/></clipPath></defs><g clip-path="url(#f2c6c6e5b9)"><path fill="#b59862" d="M 47.066406 32.394531 L 12.199219 32.394531 C 10.863281 32.394531 9.761719 31.292969 9.761719 29.957031 L 9.761719 23.351562 C 9.761719 22.015625 10.863281 20.949219 12.199219 20.949219 L 47.066406 20.949219 C 48.398438 20.949219 49.5 22.015625 49.5 23.351562 L 49.5 29.957031 C 49.5 31.292969 48.398438 32.394531 47.066406 32.394531 Z M 12.199219 22.285156 C 11.597656 22.285156 11.097656 22.75 11.097656 23.351562 L 11.097656 29.957031 C 11.097656 30.558594 11.597656 31.058594 12.199219 31.058594 L 47.066406 31.058594 C 47.664062 31.058594 48.164062 30.558594 48.164062 29.957031 L 48.164062 23.351562 C 48.164062 22.75 47.664062 22.285156 47.066406 22.285156 Z M 12.199219 22.285156 " fill-opacity="1" fill-rule="evenodd"/></g><path fill="#b59862" d="M 16.203125 27.320312 L 14.199219 27.320312 C 13.832031 27.320312 13.535156 27.019531 13.535156 26.65625 C 13.535156 26.289062 13.832031 25.988281 14.199219 25.988281 L 16.203125 25.988281 C 16.570312 25.988281 16.871094 26.289062 16.871094 26.65625 C 16.871094 27.019531 16.570312 27.320312 16.203125 27.320312 Z M 16.203125 27.320312 " fill-opacity="1" fill-rule="evenodd"/><path fill="#b59862" d="M 21.574219 27.320312 L 19.574219 27.320312 C 19.207031 27.320312 18.90625 27.019531 18.90625 26.65625 C 18.90625 26.289062 19.207031 25.988281 19.574219 25.988281 L 21.574219 25.988281 C 21.941406 25.988281 22.242188 26.289062 22.242188 26.65625 C 22.242188 27.019531 21.941406 27.320312 21.574219 27.320312 Z M 21.574219 27.320312 " fill-opacity="1" fill-rule="evenodd"/><path fill="#b59862" d="M 26.945312 27.320312 L 24.945312 27.320312 C 24.578125 27.320312 24.277344 27.019531 24.277344 26.65625 C 24.277344 26.289062 24.578125 25.988281 24.945312 25.988281 L 26.945312 25.988281 C 27.3125 25.988281 27.613281 26.289062 27.613281 26.65625 C 27.613281 27.019531 27.3125 27.320312 26.945312 27.320312 Z M 26.945312 27.320312 " fill-opacity="1" fill-rule="evenodd"/><path fill="#b59862" d="M 45.0625 27.320312 L 32.851562 27.320312 C 32.484375 27.320312 32.183594 27.019531 32.183594 26.65625 C 32.183594 26.289062 32.484375 25.988281 32.851562 25.988281 L 45.0625 25.988281 C 45.429688 25.988281 45.730469 26.289062 45.730469 26.65625 C 45.730469 27.019531 45.429688 27.320312 45.0625 27.320312 Z M 45.0625 27.320312 " fill-opacity="1" fill-rule="evenodd"/><g clip-path="url(#6dcae701f0)"><path fill="#b59862" d="M 47.066406 48.242188 L 12.199219 48.242188 C 10.863281 48.242188 9.761719 47.140625 9.761719 45.804688 L 9.761719 39.199219 C 9.761719 37.863281 10.863281 36.765625 12.199219 36.765625 L 47.066406 36.765625 C 48.398438 36.765625 49.5 37.863281 49.5 39.199219 L 49.5 45.804688 C 49.5 47.140625 48.398438 48.242188 47.066406 48.242188 Z M 12.199219 38.097656 C 11.597656 38.097656 11.097656 38.597656 11.097656 39.199219 L 11.097656 45.804688 C 11.097656 46.40625 11.597656 46.90625 12.199219 46.90625 L 47.066406 46.90625 C 47.664062 46.90625 48.164062 46.40625 48.164062 45.804688 L 48.164062 39.199219 C 48.164062 38.597656 47.664062 38.097656 47.066406 38.097656 Z M 12.199219 38.097656 " fill-opacity="1" fill-rule="evenodd"/></g><path fill="#b59862" d="M 16.203125 43.167969 L 14.199219 43.167969 C 13.832031 43.167969 13.535156 42.871094 13.535156 42.503906 C 13.535156 42.136719 13.832031 41.835938 14.199219 41.835938 L 16.203125 41.835938 C 16.570312 41.835938 16.871094 42.136719 16.871094 42.503906 C 16.871094 42.871094 16.570312 43.167969 16.203125 43.167969 Z M 16.203125 43.167969 " fill-opacity="1" fill-rule="evenodd"/><path fill="#b59862" d="M 21.574219 43.167969 L 19.574219 43.167969 C 19.207031 43.167969 18.90625 42.871094 18.90625 42.503906 C 18.90625 42.136719 19.207031 41.835938 19.574219 41.835938 L 21.574219 41.835938 C 21.941406 41.835938 22.242188 42.136719 22.242188 42.503906 C 22.242188 42.871094 21.941406 43.167969 21.574219 43.167969 Z M 21.574219 43.167969 " fill-opacity="1" fill-rule="evenodd"/><path fill="#b59862" d="M 26.945312 43.167969 L 24.945312 43.167969 C 24.578125 43.167969 24.277344 42.871094 24.277344 42.503906 C 24.277344 42.136719 24.578125 41.835938 24.945312 41.835938 L 26.945312 41.835938 C 27.3125 41.835938 27.613281 42.136719 27.613281 42.503906 C 27.613281 42.871094 27.3125 43.167969 26.945312 43.167969 Z M 26.945312 43.167969 " fill-opacity="1" fill-rule="evenodd"/><path fill="#b59862" d="M 45.0625 43.167969 L 32.851562 43.167969 C 32.484375 43.167969 32.183594 42.871094 32.183594 42.503906 C 32.183594 42.136719 32.484375 41.835938 32.851562 41.835938 L 45.0625 41.835938 C 45.429688 41.835938 45.730469 42.136719 45.730469 42.503906 C 45.730469 42.871094 45.429688 43.167969 45.0625 43.167969 Z M 45.0625 43.167969 " fill-opacity="1" fill-rule="evenodd"/><path fill="#b59862" d="M 44.0625 38.097656 C 43.695312 38.097656 43.394531 37.796875 43.394531 37.429688 L 43.394531 31.726562 C 43.394531 31.359375 43.695312 31.058594 44.0625 31.058594 C 44.429688 31.058594 44.730469 31.359375 44.730469 31.726562 L 44.730469 37.429688 C 44.730469 37.796875 44.429688 38.097656 44.0625 38.097656 Z M 15.203125 38.097656 C 14.835938 38.097656 14.535156 37.796875 14.535156 37.429688 L 14.535156 31.726562 C 14.535156 31.359375 14.835938 31.058594 15.203125 31.058594 C 15.570312 31.058594 15.867188 31.359375 15.867188 31.726562 L 15.867188 37.429688 C 15.867188 37.796875 15.570312 38.097656 15.203125 38.097656 Z M 15.203125 38.097656 " fill-opacity="1" fill-rule="evenodd"/><path fill="#b59862" d="M 54.472656 25.019531 C 51.9375 25.019531 49.867188 22.984375 49.867188 20.449219 C 49.867188 17.914062 51.9375 15.878906 54.472656 15.878906 C 56.972656 15.878906 59.042969 17.914062 59.042969 20.449219 C 59.042969 22.984375 56.972656 25.019531 54.472656 25.019531 Z M 54.472656 17.210938 C 52.667969 17.210938 51.203125 18.648438 51.203125 20.449219 C 51.203125 22.25 52.667969 23.683594 54.472656 23.683594 C 56.238281 23.683594 57.707031 22.25 57.707031 20.449219 C 57.707031 18.648438 56.238281 17.210938 54.472656 17.210938 Z M 54.472656 17.210938 " fill-opacity="1" fill-rule="evenodd"/><g clip-path="url(#3d0a45c374)"><path fill="#b59862" d="M 56.074219 31.824219 L 52.835938 31.824219 C 52.503906 31.824219 52.234375 31.59375 52.203125 31.257812 L 51.9375 28.554688 C 50.566406 28.15625 49.367188 27.386719 48.367188 26.386719 C 48.097656 26.121094 48.097656 25.6875 48.367188 25.453125 C 48.632812 25.1875 49.066406 25.1875 49.300781 25.453125 C 50.234375 26.421875 51.402344 27.089844 52.703125 27.421875 C 52.96875 27.488281 53.171875 27.722656 53.203125 27.988281 L 53.4375 30.523438 L 55.472656 30.523438 L 55.707031 27.988281 C 55.738281 27.722656 55.9375 27.488281 56.207031 27.421875 C 57.507812 27.089844 58.675781 26.421875 59.609375 25.453125 C 59.808594 25.253906 60.109375 25.1875 60.34375 25.320312 L 62.679688 26.355469 L 63.679688 24.621094 L 61.609375 23.117188 C 61.378906 22.949219 61.277344 22.683594 61.378906 22.417969 C 61.542969 21.785156 61.644531 21.117188 61.644531 20.449219 C 61.644531 19.78125 61.542969 19.113281 61.378906 18.480469 C 61.277344 18.214844 61.378906 17.945312 61.609375 17.78125 L 63.679688 16.277344 L 62.679688 14.542969 L 60.34375 15.578125 C 60.109375 15.710938 59.808594 15.644531 59.609375 15.445312 C 58.675781 14.476562 57.507812 13.808594 56.207031 13.476562 C 55.9375 13.410156 55.738281 13.175781 55.707031 12.910156 L 55.472656 10.371094 L 53.4375 10.371094 L 53.203125 12.910156 C 53.171875 13.175781 52.96875 13.410156 52.703125 13.476562 C 51.402344 13.808594 50.234375 14.476562 49.300781 15.445312 C 49.101562 15.644531 48.832031 15.710938 48.566406 15.578125 L 46.230469 14.542969 L 45.230469 16.277344 L 47.296875 17.78125 C 47.53125 17.945312 47.632812 18.214844 47.566406 18.480469 C 47.363281 19.113281 47.296875 19.78125 47.296875 20.449219 C 47.296875 20.816406 47.296875 21.148438 47.363281 21.515625 C 47.398438 21.882812 47.164062 22.21875 46.796875 22.25 C 46.429688 22.316406 46.097656 22.082031 46.03125 21.714844 C 45.996094 21.28125 45.964844 20.882812 45.964844 20.449219 C 45.964844 19.816406 46.03125 19.179688 46.164062 18.582031 L 43.960938 17.011719 C 43.695312 16.8125 43.628906 16.445312 43.792969 16.144531 L 45.394531 13.34375 C 45.5625 13.074219 45.929688 12.941406 46.230469 13.074219 L 48.699219 14.175781 C 49.632812 13.34375 50.734375 12.707031 51.9375 12.339844 L 52.203125 9.640625 C 52.234375 9.304688 52.503906 9.039062 52.835938 9.039062 L 56.074219 9.039062 C 56.40625 9.039062 56.707031 9.304688 56.738281 9.640625 L 57.007812 12.339844 C 58.207031 12.707031 59.308594 13.34375 60.210938 14.175781 L 62.679688 13.074219 C 62.980469 12.941406 63.347656 13.074219 63.511719 13.34375 L 65.113281 16.144531 C 65.316406 16.445312 65.214844 16.8125 64.949219 17.011719 L 62.746094 18.582031 C 62.914062 19.179688 62.980469 19.816406 62.980469 20.449219 C 62.980469 21.082031 62.914062 21.714844 62.746094 22.316406 L 64.949219 23.886719 C 65.214844 24.085938 65.316406 24.453125 65.148438 24.753906 L 63.511719 27.554688 C 63.347656 27.820312 62.980469 27.957031 62.679688 27.820312 L 60.210938 26.722656 C 59.308594 27.554688 58.207031 28.1875 57.007812 28.554688 L 56.738281 31.257812 C 56.707031 31.59375 56.40625 31.824219 56.074219 31.824219 Z M 56.074219 31.824219 " fill-opacity="1" fill-rule="evenodd"/></g><path fill="#b59862" d="M 29.648438 56.015625 C 29.28125 56.015625 28.980469 55.714844 28.980469 55.347656 L 28.980469 47.574219 C 28.980469 47.207031 29.28125 46.90625 29.648438 46.90625 C 30.015625 46.90625 30.316406 47.207031 30.316406 47.574219 L 30.316406 55.347656 C 30.316406 55.714844 30.015625 56.015625 29.648438 56.015625 Z M 29.648438 56.015625 " fill-opacity="1" fill-rule="evenodd"/><path fill="#b59862" d="M 45.730469 60.585938 C 45.363281 60.585938 45.0625 60.285156 45.0625 59.917969 L 45.0625 56.015625 L 14.234375 56.015625 L 14.234375 59.917969 C 14.234375 60.285156 13.933594 60.585938 13.566406 60.585938 C 13.199219 60.585938 12.898438 60.285156 12.898438 59.917969 L 12.898438 55.347656 C 12.898438 54.980469 13.199219 54.679688 13.566406 54.679688 L 45.730469 54.679688 C 46.097656 54.679688 46.398438 54.980469 46.398438 55.347656 L 46.398438 59.917969 C 46.398438 60.285156 46.097656 60.585938 45.730469 60.585938 Z M 45.730469 60.585938 " fill-opacity="1" fill-rule="evenodd"/><path fill="#b59862" d="M 16.234375 65.957031 L 10.863281 65.957031 C 10.496094 65.957031 10.195312 65.65625 10.195312 65.289062 L 10.195312 59.917969 C 10.195312 59.550781 10.496094 59.285156 10.863281 59.285156 L 16.234375 59.285156 C 16.601562 59.285156 16.902344 59.585938 16.902344 59.917969 L 16.902344 65.289062 C 16.902344 65.65625 16.601562 65.957031 16.234375 65.957031 Z M 11.53125 64.625 L 15.570312 64.625 L 15.570312 60.585938 L 11.53125 60.585938 Z M 11.53125 64.625 " fill-opacity="1" fill-rule="evenodd"/><path fill="#b59862" d="M 48.398438 65.957031 L 43.027344 65.957031 C 42.660156 65.957031 42.394531 65.65625 42.394531 65.289062 L 42.394531 59.917969 C 42.394531 59.550781 42.660156 59.285156 43.027344 59.285156 L 48.398438 59.285156 C 48.765625 59.285156 49.066406 59.585938 49.066406 59.917969 L 49.066406 65.289062 C 49.066406 65.65625 48.765625 65.957031 48.398438 65.957031 Z M 43.695312 64.625 L 47.730469 64.625 L 47.730469 60.585938 L 43.695312 60.585938 Z M 43.695312 64.625 " fill-opacity="1" fill-rule="evenodd"/></svg>