<svg xmlns="http://www.w3.org/2000/svg" xmlns:xlink="http://www.w3.org/1999/xlink" width="100" zoomAndPan="magnify" viewBox="0 0 75 74.999997" height="100" preserveAspectRatio="xMidYMid meet" version="1.0"><defs><clipPath id="bda1979983"><path d="M 12.714844 9 L 62.214844 9 L 62.214844 65.96875 L 12.714844 65.96875 Z M 12.714844 9 " clip-rule="nonzero"/></clipPath></defs><g clip-path="url(#bda1979983)"><path fill="#b59862" d="M 56.933594 47.917969 C 55.914062 46.960938 54.453125 46.878906 53.386719 47.714844 C 50.382812 50.070312 47.578125 51.496094 44.402344 52.269531 C 44.40625 52.226562 44.40625 52.179688 44.40625 52.136719 C 44.40625 50.363281 42.992188 48.921875 41.253906 48.921875 L 35.617188 48.921875 C 34.921875 48.921875 34.34375 48.765625 33.742188 48.410156 C 32.398438 47.625 30.902344 47.273438 29.292969 47.375 C 25.972656 47.578125 23.132812 49.050781 20.855469 51.75 C 20.5 52.171875 20.140625 52.46875 19.660156 52.746094 L 19.480469 52.855469 L 19.300781 52.546875 C 19.066406 52.140625 18.683594 51.847656 18.226562 51.722656 C 17.769531 51.601562 17.292969 51.664062 16.886719 51.898438 L 13.59375 53.800781 C 12.75 54.289062 12.457031 55.375 12.945312 56.21875 L 18.070312 65.09375 C 18.304688 65.5 18.6875 65.792969 19.144531 65.914062 C 19.300781 65.957031 19.453125 65.976562 19.609375 65.976562 C 19.914062 65.976562 20.21875 65.898438 20.488281 65.742188 L 23.78125 63.839844 C 24.625 63.351562 24.914062 62.269531 24.425781 61.421875 L 24.378906 61.335938 L 24.773438 61.109375 C 25.390625 60.753906 26.007812 60.625 26.714844 60.710938 C 28.425781 60.917969 30.128906 61.289062 31.773438 61.648438 C 33.613281 62.050781 35.519531 62.46875 37.5 62.671875 C 37.886719 62.714844 38.265625 62.734375 38.636719 62.734375 C 40.238281 62.734375 41.710938 62.355469 43.195312 61.574219 C 47.972656 59.0625 52.464844 55.910156 56.933594 51.933594 C 57.511719 51.417969 57.824219 50.738281 57.832031 49.964844 C 57.84375 49.175781 57.539062 48.488281 56.933594 47.917969 Z M 23.070312 62.613281 L 19.777344 64.511719 C 19.613281 64.609375 19.390625 64.546875 19.296875 64.382812 L 14.171875 55.507812 C 14.109375 55.398438 14.125 55.296875 14.140625 55.242188 C 14.152344 55.1875 14.191406 55.089844 14.300781 55.027344 L 17.59375 53.128906 C 17.652344 53.09375 17.714844 53.082031 17.765625 53.082031 C 17.804688 53.082031 17.835938 53.085938 17.859375 53.09375 C 17.914062 53.109375 18.011719 53.148438 18.074219 53.257812 L 23.199219 62.132812 C 23.292969 62.296875 23.234375 62.515625 23.070312 62.613281 Z M 55.988281 50.875 C 51.609375 54.769531 47.207031 57.859375 42.535156 60.320312 C 40.964844 61.144531 39.410156 61.445312 37.644531 61.261719 C 35.742188 61.0625 33.878906 60.65625 32.074219 60.261719 C 30.398438 59.898438 28.660156 59.515625 26.882812 59.300781 C 25.867188 59.179688 24.949219 59.367188 24.0625 59.878906 L 23.667969 60.109375 L 20.1875 54.082031 L 20.371094 53.976562 C 20.992188 53.617188 21.476562 53.210938 21.9375 52.664062 C 23.960938 50.273438 26.464844 48.972656 29.382812 48.789062 C 30.699219 48.707031 31.925781 48.992188 33.023438 49.636719 C 33.84375 50.117188 34.667969 50.339844 35.617188 50.339844 L 41.253906 50.339844 C 42.226562 50.339844 42.988281 51.128906 42.988281 52.136719 C 42.988281 52.628906 42.808594 53.082031 42.476562 53.421875 C 42.148438 53.753906 41.714844 53.933594 41.253906 53.933594 L 34.261719 53.933594 C 33.339844 53.933594 32.421875 54.289062 31.535156 54.988281 C 31.226562 55.230469 31.175781 55.679688 31.417969 55.984375 C 31.558594 56.164062 31.765625 56.253906 31.976562 56.253906 C 32.128906 56.253906 32.28125 56.203125 32.414062 56.101562 C 33.054688 55.597656 33.65625 55.351562 34.261719 55.351562 L 41.253906 55.351562 C 42.097656 55.351562 42.890625 55.019531 43.484375 54.414062 C 43.660156 54.238281 43.8125 54.039062 43.9375 53.828125 C 47.652344 53.058594 50.84375 51.511719 54.257812 48.832031 C 54.773438 48.429688 55.457031 48.476562 55.960938 48.953125 C 56.28125 49.25 56.417969 49.558594 56.414062 49.945312 C 56.410156 50.320312 56.269531 50.621094 55.988281 50.875 Z M 40.953125 18.015625 C 38.796875 18.015625 37.039062 19.769531 37.039062 21.929688 C 37.039062 24.089844 38.796875 25.84375 40.953125 25.84375 C 43.113281 25.84375 44.867188 24.089844 44.867188 21.929688 C 44.867188 19.773438 43.113281 18.015625 40.953125 18.015625 Z M 40.953125 24.429688 C 39.578125 24.429688 38.457031 23.308594 38.457031 21.929688 C 38.457031 20.554688 39.578125 19.433594 40.953125 19.433594 C 42.332031 19.433594 43.449219 20.554688 43.449219 21.929688 C 43.449219 23.308594 42.332031 24.429688 40.953125 24.429688 Z M 56.980469 22.640625 C 57.292969 23.78125 58.339844 24.625 59.582031 24.625 C 61.066406 24.625 62.277344 23.417969 62.277344 21.929688 C 62.277344 20.445312 61.066406 19.238281 59.582031 19.238281 C 58.339844 19.238281 57.292969 20.078125 56.980469 21.222656 L 51.410156 21.222656 C 51.3125 18.832031 50.40625 16.644531 48.960938 14.925781 L 51.464844 12.421875 L 56.980469 12.421875 C 57.292969 13.566406 58.339844 14.410156 59.582031 14.410156 C 61.066406 14.410156 62.277344 13.199219 62.277344 11.714844 C 62.277344 10.230469 61.066406 9.019531 59.582031 9.019531 C 58.339844 9.019531 57.292969 9.863281 56.980469 11.003906 L 51.167969 11.003906 C 50.980469 11.003906 50.800781 11.082031 50.667969 11.214844 L 47.976562 13.902344 C 46.117188 12.21875 43.652344 11.191406 40.953125 11.191406 C 38.253906 11.191406 35.789062 12.21875 33.929688 13.902344 L 31.238281 11.214844 C 31.105469 11.082031 30.925781 11.003906 30.738281 11.003906 L 24.925781 11.003906 C 24.613281 9.863281 23.566406 9.019531 22.328125 9.019531 C 20.839844 9.019531 19.632812 10.230469 19.632812 11.714844 C 19.632812 13.199219 20.839844 14.410156 22.328125 14.410156 C 23.566406 14.410156 24.613281 13.566406 24.925781 12.421875 L 30.445312 12.421875 L 32.945312 14.925781 C 31.503906 16.644531 30.597656 18.832031 30.5 21.222656 L 24.925781 21.222656 C 24.613281 20.078125 23.566406 19.238281 22.328125 19.238281 C 20.839844 19.238281 19.632812 20.445312 19.632812 21.929688 C 19.632812 23.417969 20.839844 24.625 22.328125 24.625 C 23.566406 24.625 24.613281 23.78125 24.925781 22.640625 L 30.535156 22.640625 C 30.746094 24.886719 31.671875 26.996094 33.203125 28.683594 L 30.445312 31.4375 L 24.925781 31.4375 C 24.613281 30.296875 23.566406 29.453125 22.328125 29.453125 C 20.839844 29.453125 19.632812 30.664062 19.632812 32.148438 C 19.632812 33.632812 20.839844 34.84375 22.328125 34.84375 C 23.566406 34.84375 24.613281 34 24.925781 32.855469 L 30.738281 32.855469 C 30.925781 32.855469 31.105469 32.78125 31.238281 32.648438 L 34.125 29.761719 C 35.410156 31.441406 36.089844 33.328125 36.195312 35.488281 C 35.191406 35.804688 34.460938 36.742188 34.460938 37.847656 C 34.460938 38.539062 34.746094 39.164062 35.207031 39.613281 C 34.746094 40.0625 34.460938 40.691406 34.460938 41.382812 C 34.460938 42.710938 35.515625 43.796875 36.832031 43.851562 L 36.832031 44.914062 C 36.832031 46.277344 37.945312 47.390625 39.308594 47.390625 L 41.988281 47.390625 C 43.230469 48.542969 44.894531 49.253906 46.722656 49.253906 C 50.558594 49.253906 53.683594 46.132812 53.683594 42.292969 C 53.683594 38.453125 50.5625 35.332031 46.722656 35.332031 C 46.378906 35.332031 46.042969 35.355469 45.71875 35.40625 C 45.835938 33.277344 46.515625 31.421875 47.78125 29.761719 L 50.667969 32.648438 C 50.800781 32.78125 50.980469 32.855469 51.167969 32.855469 L 56.980469 32.855469 C 57.292969 34 58.339844 34.84375 59.582031 34.84375 C 61.066406 34.84375 62.277344 33.632812 62.277344 32.148438 C 62.277344 30.664062 61.066406 29.453125 59.582031 29.453125 C 58.339844 29.453125 57.292969 30.296875 56.980469 31.4375 L 51.464844 31.4375 L 48.707031 28.683594 C 50.234375 26.996094 51.164062 24.886719 51.371094 22.640625 Z M 59.582031 10.4375 C 60.285156 10.4375 60.859375 11.011719 60.859375 11.714844 C 60.859375 12.417969 60.285156 12.992188 59.582031 12.992188 C 58.878906 12.992188 58.304688 12.417969 58.304688 11.714844 C 58.304688 11.011719 58.878906 10.4375 59.582031 10.4375 Z M 22.328125 12.992188 C 21.621094 12.992188 21.050781 12.417969 21.050781 11.714844 C 21.050781 11.011719 21.625 10.4375 22.328125 10.4375 C 23.03125 10.4375 23.601562 11.011719 23.601562 11.714844 C 23.601562 12.417969 23.03125 12.992188 22.328125 12.992188 Z M 22.328125 33.421875 C 21.621094 33.421875 21.050781 32.851562 21.050781 32.148438 C 21.050781 31.441406 21.625 30.871094 22.328125 30.871094 C 23.03125 30.871094 23.601562 31.445312 23.601562 32.148438 C 23.605469 32.851562 23.03125 33.421875 22.328125 33.421875 Z M 59.582031 30.871094 C 60.285156 30.871094 60.859375 31.441406 60.859375 32.144531 C 60.859375 32.851562 60.285156 33.421875 59.582031 33.421875 C 58.878906 33.421875 58.304688 32.847656 58.304688 32.144531 C 58.304688 31.441406 58.878906 30.871094 59.582031 30.871094 Z M 59.582031 20.652344 C 60.285156 20.652344 60.859375 21.226562 60.859375 21.929688 C 60.859375 22.632812 60.285156 23.207031 59.582031 23.207031 C 58.878906 23.207031 58.304688 22.632812 58.304688 21.929688 C 58.304688 21.226562 58.878906 20.652344 59.582031 20.652344 Z M 49.988281 21.222656 L 48.820312 21.222656 L 48.820312 20.683594 C 48.820312 20.332031 48.566406 20.035156 48.21875 19.980469 L 47.105469 19.8125 C 47.019531 19.5625 46.917969 19.316406 46.800781 19.078125 L 47.46875 18.171875 C 47.675781 17.890625 47.648438 17.5 47.398438 17.25 L 47.019531 16.867188 L 47.953125 15.933594 C 49.148438 17.390625 49.894531 19.21875 49.988281 21.222656 Z M 46.449219 22.714844 C 46.171875 22.757812 45.945312 22.960938 45.871094 23.234375 C 45.757812 23.671875 45.582031 24.09375 45.351562 24.484375 C 45.210938 24.730469 45.226562 25.035156 45.394531 25.261719 L 45.964844 26.039062 L 45.058594 26.945312 L 44.285156 26.375 C 44.054688 26.207031 43.75 26.1875 43.507812 26.332031 C 43.117188 26.558594 42.695312 26.734375 42.257812 26.851562 C 41.984375 26.921875 41.78125 27.148438 41.738281 27.429688 L 41.59375 28.382812 L 40.3125 28.382812 L 40.167969 27.429688 C 40.125 27.152344 39.921875 26.921875 39.648438 26.851562 C 39.210938 26.734375 38.789062 26.558594 38.398438 26.332031 C 38.152344 26.191406 37.847656 26.207031 37.621094 26.375 L 36.84375 26.945312 L 35.9375 26.039062 L 36.511719 25.261719 C 36.675781 25.035156 36.691406 24.730469 36.550781 24.484375 C 36.324219 24.09375 36.148438 23.675781 36.03125 23.234375 C 35.960938 22.960938 35.734375 22.757812 35.453125 22.714844 L 34.5 22.570312 L 34.5 21.289062 L 35.453125 21.144531 C 35.730469 21.101562 35.960938 20.898438 36.03125 20.625 C 36.148438 20.1875 36.324219 19.769531 36.550781 19.375 C 36.691406 19.128906 36.675781 18.824219 36.511719 18.597656 L 35.9375 17.824219 L 36.84375 16.917969 L 37.621094 17.488281 C 37.847656 17.65625 38.152344 17.671875 38.398438 17.53125 C 38.789062 17.300781 39.207031 17.128906 39.648438 17.011719 C 39.921875 16.9375 40.125 16.710938 40.167969 16.433594 L 40.3125 15.480469 L 41.59375 15.480469 L 41.738281 16.433594 C 41.78125 16.710938 41.984375 16.9375 42.257812 17.011719 C 42.695312 17.125 43.117188 17.300781 43.507812 17.53125 C 43.753906 17.671875 44.058594 17.65625 44.285156 17.488281 L 45.058594 16.917969 L 45.964844 17.824219 L 45.394531 18.597656 C 45.226562 18.828125 45.210938 19.132812 45.351562 19.375 C 45.582031 19.765625 45.757812 20.1875 45.871094 20.625 C 45.945312 20.898438 46.171875 21.101562 46.449219 21.144531 L 47.402344 21.289062 L 47.402344 22.570312 Z M 40.953125 12.609375 C 43.261719 12.609375 45.371094 13.480469 46.972656 14.910156 L 46.015625 15.867188 L 45.632812 15.484375 C 45.386719 15.234375 44.996094 15.207031 44.710938 15.414062 L 43.804688 16.082031 C 43.566406 15.964844 43.324219 15.863281 43.074219 15.777344 L 42.902344 14.664062 C 42.851562 14.320312 42.554688 14.0625 42.203125 14.0625 L 39.703125 14.0625 C 39.355469 14.0625 39.058594 14.316406 39.003906 14.664062 L 38.835938 15.777344 C 38.585938 15.863281 38.339844 15.964844 38.101562 16.082031 L 37.195312 15.414062 C 36.914062 15.207031 36.523438 15.234375 36.273438 15.484375 L 35.890625 15.867188 L 34.933594 14.910156 C 36.535156 13.480469 38.644531 12.609375 40.953125 12.609375 Z M 33.953125 15.933594 L 34.890625 16.867188 L 34.507812 17.25 C 34.261719 17.5 34.230469 17.890625 34.4375 18.171875 L 35.105469 19.078125 C 34.992188 19.316406 34.886719 19.5625 34.800781 19.8125 L 33.6875 19.980469 C 33.34375 20.035156 33.085938 20.332031 33.085938 20.683594 L 33.085938 21.222656 L 31.917969 21.222656 C 32.011719 19.21875 32.761719 17.386719 33.953125 15.933594 Z M 22.328125 23.207031 C 21.621094 23.207031 21.050781 22.632812 21.050781 21.929688 C 21.050781 21.226562 21.625 20.65625 22.328125 20.65625 C 23.03125 20.65625 23.601562 21.226562 23.601562 21.929688 C 23.601562 22.632812 23.03125 23.207031 22.328125 23.207031 Z M 31.960938 22.640625 L 33.085938 22.640625 L 33.085938 23.179688 C 33.085938 23.53125 33.34375 23.828125 33.6875 23.882812 L 34.800781 24.050781 C 34.886719 24.300781 34.988281 24.546875 35.105469 24.78125 L 34.4375 25.691406 C 34.230469 25.972656 34.261719 26.363281 34.507812 26.613281 L 34.890625 26.992188 L 34.207031 27.675781 C 32.941406 26.261719 32.164062 24.507812 31.960938 22.640625 Z M 36.9375 36.789062 L 42.464844 36.789062 C 41.726562 37.363281 41.105469 38.082031 40.644531 38.902344 L 37.082031 38.902344 C 37.058594 38.902344 37.035156 38.90625 37.007812 38.90625 C 36.984375 38.90625 36.960938 38.902344 36.9375 38.902344 C 36.355469 38.902344 35.878906 38.429688 35.878906 37.847656 C 35.878906 37.265625 36.355469 36.789062 36.9375 36.789062 Z M 35.878906 41.378906 C 35.878906 40.796875 36.355469 40.320312 36.9375 40.320312 C 36.960938 40.320312 36.984375 40.320312 37.007812 40.316406 C 37.035156 40.320312 37.058594 40.320312 37.082031 40.320312 L 40.046875 40.320312 C 39.863281 40.945312 39.761719 41.605469 39.761719 42.289062 C 39.761719 42.339844 39.765625 42.386719 39.765625 42.433594 L 36.9375 42.433594 C 36.355469 42.4375 35.878906 41.960938 35.878906 41.378906 Z M 38.25 44.910156 L 38.25 43.851562 L 39.941406 43.851562 C 40.113281 44.613281 40.414062 45.324219 40.816406 45.96875 L 39.308594 45.96875 C 38.726562 45.96875 38.25 45.496094 38.25 44.910156 Z M 52.265625 42.292969 C 52.265625 45.347656 49.777344 47.835938 46.722656 47.835938 C 43.664062 47.835938 41.179688 45.347656 41.179688 42.292969 C 41.179688 39.234375 43.664062 36.746094 46.722656 36.746094 C 49.777344 36.746094 52.265625 39.234375 52.265625 42.292969 Z M 44.300781 35.371094 L 37.609375 35.371094 C 37.476562 32.898438 36.648438 30.675781 35.136719 28.75 L 35.894531 27.996094 L 36.273438 28.375 C 36.523438 28.621094 36.914062 28.652344 37.195312 28.445312 L 38.105469 27.777344 C 38.339844 27.894531 38.585938 27.996094 38.835938 28.082031 L 39.003906 29.195312 C 39.058594 29.542969 39.355469 29.796875 39.707031 29.796875 L 42.203125 29.796875 C 42.554688 29.796875 42.851562 29.542969 42.90625 29.195312 L 43.074219 28.082031 C 43.324219 27.996094 43.570312 27.894531 43.804688 27.777344 L 44.714844 28.445312 C 44.996094 28.652344 45.386719 28.625 45.636719 28.375 L 46.015625 27.996094 L 46.773438 28.75 C 45.261719 30.675781 44.429688 32.898438 44.300781 35.371094 Z M 47.703125 27.675781 L 47.019531 26.992188 L 47.402344 26.613281 C 47.648438 26.363281 47.679688 25.972656 47.472656 25.691406 L 46.804688 24.78125 C 46.917969 24.546875 47.019531 24.300781 47.105469 24.050781 L 48.21875 23.882812 C 48.566406 23.828125 48.824219 23.53125 48.824219 23.179688 L 48.824219 22.640625 L 49.949219 22.640625 C 49.746094 24.507812 48.96875 26.261719 47.703125 27.675781 Z M 44.449219 40.726562 C 44.449219 39.722656 45.105469 38.867188 46.011719 38.570312 L 46.011719 38.015625 C 46.011719 37.625 46.332031 37.308594 46.722656 37.308594 C 47.113281 37.308594 47.429688 37.625 47.429688 38.015625 L 47.429688 38.570312 C 48.214844 38.824219 48.8125 39.492188 48.960938 40.339844 C 49.027344 40.726562 48.769531 41.089844 48.382812 41.15625 C 47.996094 41.222656 47.628906 40.964844 47.5625 40.582031 C 47.492188 40.171875 47.140625 39.871094 46.722656 39.871094 C 46.25 39.871094 45.867188 40.253906 45.867188 40.726562 C 45.867188 41.199219 46.25 41.582031 46.722656 41.582031 C 47.976562 41.582031 48.992188 42.601562 48.992188 43.851562 C 48.992188 44.859375 48.335938 45.710938 47.429688 46.011719 L 47.429688 46.5625 C 47.429688 46.953125 47.113281 47.273438 46.722656 47.273438 C 46.332031 47.273438 46.011719 46.953125 46.011719 46.5625 L 46.011719 46.011719 C 45.230469 45.753906 44.628906 45.089844 44.484375 44.242188 C 44.417969 43.855469 44.675781 43.488281 45.058594 43.421875 C 45.445312 43.355469 45.8125 43.613281 45.878906 44 C 45.949219 44.410156 46.304688 44.707031 46.722656 44.707031 C 47.191406 44.707031 47.574219 44.324219 47.574219 43.851562 C 47.574219 43.382812 47.191406 43 46.722656 43 C 45.46875 43 44.449219 41.980469 44.449219 40.726562 Z M 44.449219 40.726562 " fill-opacity="1" fill-rule="nonzero"/></g></svg>