<svg xmlns="http://www.w3.org/2000/svg" xmlns:xlink="http://www.w3.org/1999/xlink" width="100" zoomAndPan="magnify" viewBox="0 0 75 74.999997" height="100" preserveAspectRatio="xMidYMid meet" version="1.0"><defs><clipPath id="43dfcbaef0"><path d="M 11.09375 14.890625 L 63.59375 14.890625 L 63.59375 59.890625 L 11.09375 59.890625 Z M 11.09375 14.890625 " clip-rule="nonzero"/></clipPath></defs><g clip-path="url(#43dfcbaef0)"><path fill="#b59862" d="M 27.09375 48.421875 L 15.542969 48.421875 C 13.105469 48.421875 11.109375 46.425781 11.109375 43.988281 L 11.109375 19.332031 C 11.109375 16.890625 13.105469 14.894531 15.542969 14.894531 L 54.996094 14.894531 C 57.4375 14.894531 59.433594 16.890625 59.433594 19.332031 L 59.433594 38.125 L 61.96875 38.125 C 63.027344 38.125 63.882812 38.984375 63.882812 40.039062 L 63.882812 58.191406 C 63.882812 59.25 63.027344 60.105469 61.96875 60.105469 L 37.828125 60.105469 C 37.058594 60.105469 36.394531 59.65625 36.089844 59 L 19.433594 59 C 18.964844 59 18.582031 58.621094 18.582031 58.148438 L 18.582031 55.707031 C 18.582031 53.953125 20.296875 52.417969 22.488281 52.417969 L 27.09375 52.417969 Z M 57.730469 38.125 L 57.730469 19.332031 C 57.730469 17.828125 56.5 16.597656 54.996094 16.597656 L 15.542969 16.597656 C 14.042969 16.597656 12.8125 17.828125 12.8125 19.332031 L 12.8125 43.988281 C 12.8125 45.492188 14.042969 46.722656 15.542969 46.722656 L 35.910156 46.722656 L 35.910156 42.085938 L 15.488281 42.085938 C 15.019531 42.085938 14.636719 41.707031 14.636719 41.234375 L 14.636719 19.527344 C 14.636719 18.789062 15.238281 18.191406 15.976562 18.191406 L 54.570312 18.191406 C 55.300781 18.191406 55.902344 18.789062 55.902344 19.527344 L 55.902344 38.125 Z M 35.910156 48.421875 L 28.796875 48.421875 L 28.796875 52.417969 L 35.910156 52.417969 Z M 35.910156 57.300781 L 35.910156 54.117188 L 22.488281 54.117188 C 21.324219 54.117188 20.285156 54.773438 20.285156 55.707031 L 20.285156 57.300781 Z M 35.910156 40.386719 L 35.910156 40.039062 C 35.910156 39.25 36.390625 38.570312 37.074219 38.277344 L 37.074219 32.550781 C 37.074219 32.503906 37.0625 32.457031 37.035156 32.425781 C 37.03125 32.421875 37.03125 32.414062 37.027344 32.414062 L 33.511719 32.414062 C 33.507812 32.414062 33.511719 32.421875 33.507812 32.425781 C 33.476562 32.457031 33.464844 32.503906 33.464844 32.550781 L 33.464844 40.386719 Z M 38.777344 38.125 L 39.941406 38.125 C 39.941406 35.132812 39.941406 25.171875 39.941406 23.28125 L 30.601562 23.28125 L 30.601562 40.386719 L 31.761719 40.386719 L 31.761719 32.550781 C 31.761719 32.074219 31.941406 31.617188 32.246094 31.28125 C 32.582031 30.910156 33.039062 30.710938 33.511719 30.710938 L 37.027344 30.710938 C 37.503906 30.710938 37.960938 30.910156 38.292969 31.28125 C 38.601562 31.617188 38.777344 32.074219 38.777344 32.550781 Z M 41.644531 38.125 L 47.265625 38.125 L 47.265625 25.648438 L 41.644531 25.648438 Z M 48.96875 38.125 L 54.203125 38.125 L 54.203125 19.894531 L 16.339844 19.894531 L 16.339844 40.386719 L 21.574219 40.386719 L 21.574219 24.796875 C 21.574219 24.328125 21.957031 23.945312 22.425781 23.945312 L 28.898438 23.945312 L 28.898438 22.960938 C 28.898438 22.179688 29.519531 21.578125 30.238281 21.578125 L 40.304688 21.578125 C 41.023438 21.578125 41.644531 22.179688 41.644531 22.960938 L 41.644531 23.945312 L 48.117188 23.945312 C 48.585938 23.945312 48.96875 24.328125 48.96875 24.796875 Z M 23.277344 40.386719 L 28.898438 40.386719 L 28.898438 25.648438 L 23.277344 25.648438 Z M 32.613281 26.53125 C 32.144531 26.53125 31.761719 26.148438 31.761719 25.679688 C 31.761719 25.207031 32.144531 24.828125 32.613281 24.828125 L 37.925781 24.828125 C 38.398438 24.828125 38.777344 25.207031 38.777344 25.679688 C 38.777344 26.148438 38.398438 26.53125 37.925781 26.53125 Z M 32.613281 29.390625 C 32.144531 29.390625 31.761719 29.011719 31.761719 28.539062 C 31.761719 28.070312 32.144531 27.6875 32.613281 27.6875 L 37.925781 27.6875 C 38.398438 27.6875 38.777344 28.070312 38.777344 28.539062 C 38.777344 29.011719 38.398438 29.390625 37.925781 29.390625 Z M 60.492188 58.402344 L 61.96875 58.402344 C 62.085938 58.402344 62.183594 58.308594 62.183594 58.191406 L 62.183594 40.039062 C 62.183594 39.921875 62.085938 39.828125 61.96875 39.828125 L 37.828125 39.828125 C 37.710938 39.828125 37.613281 39.921875 37.613281 40.039062 L 37.613281 58.191406 C 37.613281 58.308594 37.710938 58.402344 37.828125 58.402344 L 39.304688 58.402344 L 39.304688 51.324219 C 39.304688 50.851562 39.683594 50.472656 40.15625 50.472656 L 44.292969 50.472656 C 44.761719 50.472656 45.144531 50.851562 45.144531 51.324219 L 45.144531 58.402344 L 46.984375 58.402344 L 46.984375 47.167969 C 46.984375 46.699219 47.363281 46.320312 47.835938 46.320312 L 51.96875 46.320312 C 52.4375 46.320312 52.816406 46.699219 52.816406 47.167969 L 52.816406 58.402344 L 54.660156 58.402344 L 54.660156 42.828125 C 54.660156 42.359375 55.039062 41.976562 55.507812 41.976562 L 59.640625 41.976562 C 60.113281 41.976562 60.492188 42.359375 60.492188 42.828125 Z M 41.007812 58.402344 L 43.441406 58.402344 C 43.441406 56.523438 43.441406 52.175781 43.441406 52.175781 L 41.007812 52.175781 Z M 48.6875 58.402344 L 51.117188 58.402344 C 51.117188 55.785156 51.117188 48.019531 51.117188 48.019531 L 48.6875 48.019531 Z M 56.359375 58.402344 L 58.789062 58.402344 C 58.789062 55.148438 58.789062 43.679688 58.789062 43.679688 L 56.359375 43.679688 Z M 43.195312 34.863281 C 42.726562 34.863281 42.34375 34.480469 42.34375 34.011719 C 42.34375 33.542969 42.726562 33.160156 43.195312 33.160156 L 45.511719 33.160156 C 45.980469 33.160156 46.363281 33.542969 46.363281 34.011719 C 46.363281 34.480469 45.980469 34.863281 45.511719 34.863281 Z M 43.195312 29.1875 C 42.726562 29.1875 42.34375 28.804688 42.34375 28.335938 C 42.34375 27.867188 42.726562 27.484375 43.195312 27.484375 L 45.511719 27.484375 C 45.980469 27.484375 46.363281 27.867188 46.363281 28.335938 C 46.363281 28.804688 45.980469 29.1875 45.511719 29.1875 Z M 43.195312 32.023438 C 42.726562 32.023438 42.34375 31.644531 42.34375 31.175781 C 42.34375 30.703125 42.726562 30.324219 43.195312 30.324219 L 45.511719 30.324219 C 45.980469 30.324219 46.363281 30.703125 46.363281 31.175781 C 46.363281 31.644531 45.980469 32.023438 45.511719 32.023438 Z M 43.195312 37.699219 C 42.726562 37.699219 42.34375 37.320312 42.34375 36.847656 C 42.34375 36.378906 42.726562 35.996094 43.195312 35.996094 L 45.511719 35.996094 C 45.980469 35.996094 46.363281 36.378906 46.363281 36.847656 C 46.363281 37.320312 45.980469 37.699219 45.511719 37.699219 Z M 24.957031 29.1875 C 24.484375 29.1875 24.105469 28.804688 24.105469 28.335938 C 24.105469 27.867188 24.484375 27.484375 24.957031 27.484375 L 27.273438 27.484375 C 27.742188 27.484375 28.125 27.867188 28.125 28.335938 C 28.125 28.804688 27.742188 29.1875 27.273438 29.1875 Z M 24.957031 34.863281 C 24.484375 34.863281 24.105469 34.480469 24.105469 34.011719 C 24.105469 33.542969 24.484375 33.160156 24.957031 33.160156 L 27.273438 33.160156 C 27.742188 33.160156 28.125 33.542969 28.125 34.011719 C 28.125 34.480469 27.742188 34.863281 27.273438 34.863281 Z M 24.957031 32.023438 C 24.484375 32.023438 24.105469 31.644531 24.105469 31.175781 C 24.105469 30.703125 24.484375 30.324219 24.957031 30.324219 L 27.273438 30.324219 C 27.742188 30.324219 28.125 30.703125 28.125 31.175781 C 28.125 31.644531 27.742188 32.023438 27.273438 32.023438 Z M 24.957031 37.699219 C 24.484375 37.699219 24.105469 37.320312 24.105469 36.847656 C 24.105469 36.378906 24.484375 35.996094 24.957031 35.996094 L 27.273438 35.996094 C 27.742188 35.996094 28.125 36.378906 28.125 36.847656 C 28.125 37.320312 27.742188 37.699219 27.273438 37.699219 Z M 24.957031 37.699219 " fill-opacity="1" fill-rule="evenodd"/></g></svg>