<svg xmlns="http://www.w3.org/2000/svg" xmlns:xlink="http://www.w3.org/1999/xlink" width="100" zoomAndPan="magnify" viewBox="0 0 75 74.999997" height="100" preserveAspectRatio="xMidYMid meet" version="1.0"><defs><clipPath id="27fb93e216"><path d="M 10 12.265625 L 26 12.265625 L 26 23 L 10 23 Z M 10 12.265625 " clip-rule="nonzero"/></clipPath><clipPath id="065629e8e6"><path d="M 9.144531 32 L 19 32 L 19 43 L 9.144531 43 Z M 9.144531 32 " clip-rule="nonzero"/></clipPath><clipPath id="ac8d7ccb78"><path d="M 32 52 L 43 52 L 43 62.515625 L 32 62.515625 Z M 32 52 " clip-rule="nonzero"/></clipPath></defs><g clip-path="url(#27fb93e216)"><path fill="#b59862" d="M 16.414062 22.285156 C 16.359375 22.542969 16.195312 22.671875 15.914062 22.671875 C 15.078125 22.671875 14.503906 22.671875 14.191406 22.679688 C 13.585938 22.6875 13.113281 22.636719 12.777344 22.53125 C 11.800781 22.226562 11.105469 21.644531 10.691406 20.789062 C 10.011719 19.386719 10.253906 17.820312 11.347656 16.734375 C 12.023438 16.066406 12.882812 15.730469 13.933594 15.726562 C 13.96875 15.726562 13.992188 15.710938 14 15.675781 C 14.324219 14.285156 15.121094 13.285156 16.394531 12.671875 C 17.179688 12.292969 18.125 12.183594 19 12.402344 C 20.53125 12.78125 21.859375 14.046875 22.125 15.648438 C 22.136719 15.722656 22.179688 15.757812 22.253906 15.757812 C 23.601562 15.789062 24.914062 16.753906 25.351562 18.042969 C 26.003906 19.972656 25.007812 21.933594 23.058594 22.546875 C 22.78125 22.632812 22.398438 22.671875 21.914062 22.664062 C 21.5625 22.65625 20.964844 22.65625 20.121094 22.65625 C 19.839844 22.660156 19.597656 22.609375 19.503906 22.339844 C 19.398438 22.039062 19.664062 21.730469 19.972656 21.726562 C 20.878906 21.726562 21.609375 21.726562 22.15625 21.726562 C 23.601562 21.734375 24.710938 20.472656 24.605469 19.0625 C 24.503906 17.644531 23.351562 16.605469 21.90625 16.6875 C 21.625 16.703125 21.3125 16.585938 21.289062 16.285156 C 21.21875 15.46875 20.921875 14.789062 20.390625 14.246094 C 18.566406 12.390625 15.664062 13.242188 14.960938 15.683594 C 14.945312 15.742188 14.929688 15.882812 14.910156 16.105469 C 14.859375 16.78125 14.503906 16.742188 13.964844 16.6875 C 12.535156 16.539062 11.277344 17.707031 11.25 19.128906 C 11.226562 20.335938 11.964844 21.355469 13.140625 21.667969 C 13.320312 21.714844 13.648438 21.738281 14.117188 21.738281 C 15.132812 21.738281 15.652344 21.738281 15.671875 21.738281 C 16.042969 21.71875 16.351562 21.816406 16.414062 22.191406 C 16.417969 22.222656 16.417969 22.253906 16.414062 22.285156 Z M 16.414062 22.285156 " fill-opacity="1" fill-rule="nonzero"/></g><path fill="#b59862" d="M 42.328125 21.707031 C 42.328125 21.941406 42.285156 22.167969 42.195312 22.386719 C 42.105469 22.601562 41.976562 22.792969 41.808594 22.960938 C 41.644531 23.128906 41.453125 23.253906 41.234375 23.34375 C 41.015625 23.433594 40.789062 23.480469 40.554688 23.480469 L 34.441406 23.480469 C 34.207031 23.480469 33.980469 23.433594 33.761719 23.34375 C 33.542969 23.253906 33.351562 23.128906 33.1875 22.960938 C 33.019531 22.792969 32.890625 22.601562 32.800781 22.386719 C 32.710938 22.167969 32.667969 21.941406 32.667969 21.707031 L 32.667969 15.527344 C 32.667969 15.292969 32.710938 15.066406 32.800781 14.851562 C 32.890625 14.632812 33.019531 14.441406 33.1875 14.273438 C 33.351562 14.109375 33.542969 13.980469 33.761719 13.890625 C 33.980469 13.800781 34.207031 13.753906 34.441406 13.753906 L 40.554688 13.753906 C 40.789062 13.753906 41.015625 13.800781 41.234375 13.890625 C 41.453125 13.980469 41.644531 14.109375 41.808594 14.273438 C 41.976562 14.441406 42.105469 14.632812 42.195312 14.851562 C 42.285156 15.066406 42.328125 15.292969 42.328125 15.527344 Z M 41.402344 15.550781 C 41.402344 15.320312 41.320312 15.128906 41.160156 14.964844 C 41 14.804688 40.804688 14.722656 40.574219 14.722656 L 34.429688 14.722656 C 34.199219 14.722656 34.003906 14.804688 33.84375 14.964844 C 33.683594 15.128906 33.601562 15.320312 33.601562 15.550781 L 33.601562 21.695312 C 33.601562 21.925781 33.683594 22.121094 33.84375 22.28125 C 34.003906 22.445312 34.199219 22.523438 34.429688 22.523438 L 40.574219 22.523438 C 40.804688 22.523438 41 22.445312 41.160156 22.28125 C 41.320312 22.121094 41.402344 21.925781 41.402344 21.695312 Z M 41.402344 15.550781 " fill-opacity="1" fill-rule="nonzero"/><path fill="#b59862" d="M 45.261719 18.296875 C 45.261719 18.324219 45.269531 18.34375 45.289062 18.359375 C 46.40625 19.46875 47.117188 20.1875 47.425781 20.511719 C 47.648438 20.753906 47.507812 21.148438 47.199219 21.242188 C 46.980469 21.308594 46.820312 21.199219 46.660156 21.039062 C 46.402344 20.785156 45.605469 19.992188 44.265625 18.65625 C 44.160156 18.550781 44.105469 18.433594 44.105469 18.300781 C 44.105469 18.171875 44.15625 18.054688 44.265625 17.945312 C 45.589844 16.601562 46.378906 15.796875 46.632812 15.542969 C 46.792969 15.378906 46.953125 15.269531 47.175781 15.332031 C 47.480469 15.425781 47.625 15.820312 47.402344 16.0625 C 47.101562 16.390625 46.394531 17.113281 45.289062 18.234375 C 45.269531 18.25 45.261719 18.273438 45.261719 18.296875 Z M 45.261719 18.296875 " fill-opacity="1" fill-rule="nonzero"/><path fill="#b59862" d="M 37.488281 16.027344 C 37.605469 16.027344 37.710938 16.074219 37.800781 16.167969 C 38.351562 16.734375 38.992188 17.390625 39.726562 18.132812 C 40.148438 18.554688 39.5 19.21875 39.039062 18.777344 C 38.828125 18.574219 38.5 18.234375 38.054688 17.757812 C 38.035156 17.738281 38.011719 17.730469 37.984375 17.742188 C 37.960938 17.753906 37.945312 17.773438 37.949219 17.800781 C 37.964844 18.566406 37.972656 19.519531 37.96875 20.65625 C 37.96875 20.996094 37.875 21.3125 37.496094 21.316406 C 37.117188 21.316406 37.023438 21 37.023438 20.65625 C 37.015625 19.519531 37.019531 18.566406 37.035156 17.800781 C 37.035156 17.773438 37.023438 17.753906 36.996094 17.746094 C 36.972656 17.734375 36.949219 17.738281 36.929688 17.757812 C 36.484375 18.238281 36.15625 18.578125 35.945312 18.78125 C 35.488281 19.226562 34.835938 18.5625 35.257812 18.136719 C 35.988281 17.394531 36.628906 16.738281 37.179688 16.167969 C 37.269531 16.074219 37.371094 16.027344 37.488281 16.027344 Z M 37.488281 16.027344 " fill-opacity="1" fill-rule="nonzero"/><path fill="#b59862" d="M 58.28125 29.667969 C 58.28125 29.824219 58.128906 30.003906 57.941406 30.0625 C 57.730469 30.125 57.523438 30.019531 57.414062 29.839844 C 57.371094 29.765625 57.347656 29.640625 57.347656 29.460938 C 57.34375 28.464844 57.34375 27.773438 57.347656 27.382812 C 57.351562 26.476562 57.320312 25.785156 57.253906 25.3125 C 56.667969 20.992188 53.101562 17.746094 48.761719 17.546875 C 48.441406 17.53125 48.289062 17.148438 48.433594 16.871094 C 48.59375 16.558594 48.941406 16.636719 49.308594 16.671875 C 52.300781 16.929688 55.003906 18.59375 56.636719 21.074219 C 57.457031 22.320312 57.972656 23.707031 58.191406 25.242188 C 58.261719 25.75 58.289062 26.488281 58.277344 27.453125 C 58.273438 27.621094 58.277344 28.359375 58.28125 29.667969 Z M 58.28125 29.667969 " fill-opacity="1" fill-rule="nonzero"/><path fill="#b59862" d="M 18.46875 19.160156 C 18.433594 19.152344 18.414062 19.167969 18.414062 19.203125 C 18.417969 20.566406 18.421875 22.621094 18.421875 25.371094 C 18.421875 25.804688 18.527344 26.296875 18.730469 26.84375 C 19.484375 28.863281 21.144531 30.160156 23.246094 30.574219 C 23.601562 30.644531 24.148438 30.683594 24.886719 30.683594 C 25.007812 30.683594 25.644531 30.679688 26.796875 30.679688 C 26.972656 30.675781 27.097656 30.695312 27.164062 30.726562 C 27.429688 30.867188 27.523438 31.195312 27.316406 31.4375 C 27.226562 31.546875 27.085938 31.597656 26.894531 31.597656 C 26.015625 31.597656 25.410156 31.597656 25.082031 31.605469 C 24.328125 31.621094 23.722656 31.589844 23.273438 31.515625 C 20.46875 31.046875 18.199219 29.089844 17.597656 26.296875 C 17.496094 25.832031 17.453125 25.09375 17.460938 24.078125 C 17.472656 22.441406 17.476562 20.828125 17.476562 19.238281 C 17.476562 19.214844 17.46875 19.199219 17.445312 19.1875 C 17.425781 19.179688 17.40625 19.183594 17.390625 19.199219 C 17.109375 19.492188 16.796875 19.808594 16.449219 20.15625 C 16.132812 20.46875 15.722656 20.261719 15.636719 19.863281 C 15.601562 19.679688 15.785156 19.496094 15.90625 19.375 C 16.0625 19.21875 16.617188 18.660156 17.578125 17.699219 C 17.820312 17.457031 18.066406 17.46875 18.324219 17.726562 C 19.269531 18.6875 19.835938 19.265625 20.027344 19.460938 C 20.265625 19.707031 20.269531 19.9375 20.039062 20.148438 C 19.820312 20.351562 19.597656 20.339844 19.375 20.117188 C 18.976562 19.71875 18.699219 19.414062 18.539062 19.207031 C 18.523438 19.183594 18.5 19.171875 18.46875 19.160156 Z M 18.46875 19.160156 " fill-opacity="1" fill-rule="nonzero"/><path fill="#b59862" d="M 48.75 20.484375 C 48.289062 20.441406 48.257812 19.753906 48.707031 19.601562 C 48.8125 19.5625 48.957031 19.558594 49.132812 19.582031 C 51.015625 19.832031 52.535156 20.648438 53.695312 22.03125 C 54.78125 23.328125 55.335938 24.832031 55.355469 26.550781 C 55.355469 26.734375 55.355469 27.691406 55.351562 29.425781 C 55.351562 29.605469 55.339844 29.722656 55.3125 29.785156 C 55.191406 30.085938 54.820312 30.171875 54.574219 29.960938 C 54.464844 29.867188 54.410156 29.703125 54.410156 29.476562 C 54.414062 28.027344 54.414062 27.0625 54.417969 26.585938 C 54.445312 23.3125 51.972656 20.765625 48.75 20.484375 Z M 48.75 20.484375 " fill-opacity="1" fill-rule="nonzero"/><path fill="#b59862" d="M 37.488281 24.3125 L 37.519531 24.3125 C 37.640625 24.3125 37.746094 24.355469 37.835938 24.445312 C 37.921875 24.53125 37.964844 24.636719 37.964844 24.761719 L 37.964844 27.085938 C 37.964844 27.210938 37.921875 27.316406 37.835938 27.402344 C 37.746094 27.492188 37.640625 27.535156 37.519531 27.535156 L 37.488281 27.535156 C 37.367188 27.535156 37.261719 27.492188 37.171875 27.402344 C 37.085938 27.316406 37.042969 27.210938 37.042969 27.085938 L 37.042969 24.761719 C 37.042969 24.636719 37.085938 24.53125 37.171875 24.445312 C 37.261719 24.355469 37.367188 24.3125 37.488281 24.3125 Z M 37.488281 24.3125 " fill-opacity="1" fill-rule="nonzero"/><path fill="#b59862" d="M 20.863281 25.207031 C 21.335938 25.132812 21.390625 25.65625 21.511719 25.960938 C 21.824219 26.757812 22.53125 27.34375 23.320312 27.59375 C 23.601562 27.683594 24.066406 27.730469 24.710938 27.726562 C 26.222656 27.71875 27.503906 27.714844 28.546875 27.714844 C 28.851562 27.714844 29.027344 27.835938 29.074219 28.078125 C 29.15625 28.484375 28.859375 28.667969 28.480469 28.667969 C 27.78125 28.664062 26.539062 28.667969 24.761719 28.667969 C 24.152344 28.671875 23.703125 28.640625 23.421875 28.574219 C 22.457031 28.355469 21.679688 27.863281 21.089844 27.089844 C 20.832031 26.75 19.976562 25.347656 20.863281 25.207031 Z M 20.863281 25.207031 " fill-opacity="1" fill-rule="nonzero"/><path fill="#b59862" d="M 40.976562 25.554688 L 41.023438 25.554688 C 41.144531 25.554688 41.246094 25.597656 41.332031 25.683594 C 41.417969 25.773438 41.460938 25.875 41.457031 25.996094 L 41.449219 27.089844 C 41.449219 27.210938 41.40625 27.316406 41.316406 27.402344 C 41.230469 27.484375 41.128906 27.527344 41.007812 27.527344 L 40.960938 27.527344 C 40.839844 27.523438 40.738281 27.480469 40.652344 27.394531 C 40.566406 27.308594 40.523438 27.203125 40.527344 27.082031 L 40.535156 25.988281 C 40.535156 25.867188 40.578125 25.765625 40.667969 25.679688 C 40.753906 25.59375 40.855469 25.550781 40.976562 25.554688 Z M 40.976562 25.554688 " fill-opacity="1" fill-rule="nonzero"/><path fill="#b59862" d="M 34.003906 25.558594 L 34.042969 25.558594 C 34.167969 25.558594 34.269531 25.601562 34.355469 25.6875 C 34.441406 25.773438 34.484375 25.878906 34.484375 26 L 34.480469 27.082031 C 34.480469 27.207031 34.4375 27.308594 34.351562 27.394531 C 34.261719 27.480469 34.160156 27.523438 34.035156 27.523438 L 33.996094 27.523438 C 33.871094 27.523438 33.769531 27.480469 33.683594 27.394531 C 33.597656 27.308594 33.554688 27.203125 33.554688 27.078125 L 33.558594 26 C 33.558594 25.875 33.601562 25.773438 33.6875 25.6875 C 33.773438 25.601562 33.878906 25.558594 34.003906 25.558594 Z M 34.003906 25.558594 " fill-opacity="1" fill-rule="nonzero"/><path fill="#b59862" d="M 37.507812 28.421875 C 41.339844 28.421875 43.496094 28.425781 43.976562 28.433594 C 44.105469 28.433594 44.214844 28.480469 44.308594 28.566406 C 44.585938 28.835938 44.949219 29.195312 45.398438 29.644531 C 45.847656 30.09375 46.207031 30.457031 46.476562 30.734375 C 46.5625 30.828125 46.609375 30.9375 46.609375 31.066406 C 46.617188 31.546875 46.621094 33.703125 46.621094 37.539062 C 46.617188 41.371094 46.617188 43.527344 46.609375 44.007812 C 46.609375 44.136719 46.5625 44.246094 46.472656 44.339844 C 46.207031 44.617188 45.847656 44.980469 45.398438 45.429688 C 44.945312 45.878906 44.582031 46.238281 44.304688 46.507812 C 44.214844 46.59375 44.105469 46.640625 43.976562 46.640625 C 43.496094 46.648438 41.339844 46.652344 37.503906 46.652344 C 33.671875 46.652344 31.511719 46.648438 31.03125 46.640625 C 30.90625 46.640625 30.792969 46.59375 30.703125 46.503906 C 30.425781 46.238281 30.0625 45.878906 29.609375 45.429688 C 29.160156 44.976562 28.800781 44.613281 28.535156 44.335938 C 28.445312 44.246094 28.402344 44.136719 28.398438 44.007812 C 28.394531 43.527344 28.390625 41.371094 28.390625 37.535156 C 28.390625 33.703125 28.394531 31.542969 28.402344 31.0625 C 28.402344 30.9375 28.449219 30.824219 28.535156 30.734375 C 28.804688 30.457031 29.164062 30.09375 29.613281 29.644531 C 30.0625 29.191406 30.425781 28.832031 30.703125 28.566406 C 30.796875 28.476562 30.90625 28.433594 31.035156 28.429688 C 31.515625 28.425781 33.671875 28.421875 37.507812 28.421875 Z M 30.277344 30.308594 C 29.71875 30.867188 29.429688 31.160156 29.40625 31.183594 C 29.363281 31.230469 29.339844 31.285156 29.339844 31.347656 C 29.335938 31.585938 29.335938 33.648438 29.335938 37.539062 C 29.335938 41.425781 29.339844 43.492188 29.339844 43.726562 C 29.339844 43.789062 29.363281 43.84375 29.40625 43.890625 C 29.429688 43.914062 29.71875 44.207031 30.28125 44.765625 C 30.839844 45.328125 31.132812 45.617188 31.15625 45.640625 C 31.203125 45.683594 31.257812 45.707031 31.320312 45.707031 C 31.558594 45.710938 33.621094 45.710938 37.511719 45.710938 C 41.398438 45.710938 43.460938 45.707031 43.699219 45.707031 C 43.761719 45.703125 43.816406 45.683594 43.863281 45.640625 C 43.886719 45.617188 44.179688 45.324219 44.738281 44.765625 C 45.300781 44.207031 45.589844 43.914062 45.613281 43.890625 C 45.65625 43.84375 45.675781 43.789062 45.679688 43.726562 C 45.679688 43.488281 45.683594 41.425781 45.683594 37.535156 C 45.683594 33.648438 45.679688 31.582031 45.679688 31.347656 C 45.675781 31.285156 45.65625 31.230469 45.613281 31.183594 C 45.589844 31.15625 45.296875 30.867188 44.738281 30.304688 C 44.179688 29.746094 43.886719 29.457031 43.863281 29.433594 C 43.816406 29.390625 43.761719 29.367188 43.699219 29.367188 C 43.460938 29.363281 41.398438 29.363281 37.507812 29.363281 C 33.617188 29.363281 31.554688 29.367188 31.320312 29.367188 C 31.257812 29.367188 31.203125 29.390625 31.152344 29.433594 C 31.128906 29.457031 30.839844 29.746094 30.277344 30.308594 Z M 30.277344 30.308594 " fill-opacity="1" fill-rule="nonzero"/><path fill="#b59862" d="M 56.160156 40.347656 L 56.160156 34.195312 C 56.160156 33.960938 56.207031 33.734375 56.296875 33.515625 C 56.386719 33.300781 56.511719 33.109375 56.679688 32.941406 C 56.84375 32.777344 57.035156 32.648438 57.253906 32.558594 C 57.472656 32.46875 57.695312 32.421875 57.933594 32.421875 L 64.085938 32.421875 C 64.320312 32.421875 64.546875 32.46875 64.765625 32.558594 C 64.980469 32.648438 65.171875 32.777344 65.339844 32.941406 C 65.503906 33.109375 65.632812 33.300781 65.722656 33.515625 C 65.8125 33.734375 65.855469 33.960938 65.855469 34.195312 L 65.855469 40.347656 C 65.855469 40.585938 65.8125 40.808594 65.722656 41.027344 C 65.632812 41.242188 65.503906 41.433594 65.339844 41.601562 C 65.171875 41.769531 64.980469 41.894531 64.765625 41.984375 C 64.546875 42.074219 64.320312 42.121094 64.085938 42.121094 L 57.933594 42.121094 C 57.695312 42.121094 57.472656 42.074219 57.253906 41.984375 C 57.035156 41.894531 56.84375 41.769531 56.679688 41.601562 C 56.511719 41.433594 56.386719 41.242188 56.296875 41.027344 C 56.207031 40.808594 56.160156 40.585938 56.160156 40.347656 Z M 64.902344 34.199219 C 64.902344 33.96875 64.820312 33.773438 64.65625 33.613281 C 64.492188 33.449219 64.296875 33.367188 64.066406 33.367188 L 57.925781 33.378906 C 57.695312 33.378906 57.496094 33.460938 57.335938 33.625 C 57.171875 33.785156 57.09375 33.984375 57.09375 34.214844 L 57.101562 40.355469 C 57.105469 40.585938 57.183594 40.78125 57.347656 40.945312 C 57.511719 41.105469 57.707031 41.1875 57.9375 41.1875 L 64.078125 41.175781 C 64.308594 41.175781 64.507812 41.09375 64.667969 40.933594 C 64.832031 40.769531 64.910156 40.574219 64.910156 40.34375 Z M 64.902344 34.199219 " fill-opacity="1" fill-rule="nonzero"/><g clip-path="url(#065629e8e6)"><path fill="#b59862" d="M 18.828125 34.714844 L 18.828125 40.855469 C 18.828125 41.089844 18.785156 41.316406 18.695312 41.535156 C 18.605469 41.75 18.476562 41.941406 18.308594 42.109375 C 18.144531 42.273438 17.953125 42.402344 17.734375 42.492188 C 17.519531 42.582031 17.292969 42.625 17.058594 42.625 L 10.917969 42.625 C 10.683594 42.625 10.457031 42.582031 10.238281 42.492188 C 10.023438 42.402344 9.832031 42.273438 9.664062 42.109375 C 9.5 41.941406 9.371094 41.75 9.28125 41.535156 C 9.191406 41.316406 9.144531 41.089844 9.144531 40.855469 L 9.144531 34.714844 C 9.144531 34.480469 9.191406 34.253906 9.28125 34.039062 C 9.371094 33.820312 9.5 33.628906 9.664062 33.464844 C 9.832031 33.296875 10.023438 33.171875 10.238281 33.082031 C 10.457031 32.992188 10.683594 32.945312 10.917969 32.945312 L 17.058594 32.945312 C 17.292969 32.945312 17.519531 32.992188 17.734375 33.082031 C 17.953125 33.171875 18.144531 33.296875 18.308594 33.464844 C 18.476562 33.628906 18.605469 33.820312 18.695312 34.039062 C 18.785156 34.253906 18.828125 34.480469 18.828125 34.714844 Z M 17.890625 34.707031 C 17.890625 34.480469 17.808594 34.285156 17.648438 34.125 C 17.488281 33.960938 17.292969 33.882812 17.066406 33.882812 L 10.917969 33.882812 C 10.691406 33.882812 10.496094 33.960938 10.335938 34.125 C 10.175781 34.285156 10.09375 34.480469 10.09375 34.707031 L 10.09375 40.855469 C 10.09375 41.082031 10.175781 41.277344 10.335938 41.4375 C 10.496094 41.597656 10.691406 41.679688 10.917969 41.679688 L 17.066406 41.679688 C 17.292969 41.679688 17.488281 41.597656 17.648438 41.4375 C 17.808594 41.277344 17.890625 41.082031 17.890625 40.855469 Z M 17.890625 34.707031 " fill-opacity="1" fill-rule="nonzero"/></g><path fill="#b59862" d="M 36.214844 33.46875 C 36.339844 33.46875 36.460938 33.527344 36.582031 33.648438 C 37.320312 34.359375 37.996094 35.027344 38.609375 35.644531 C 38.699219 35.734375 38.742188 35.835938 38.742188 35.957031 C 38.75 36.445312 38.753906 38.109375 38.753906 40.953125 C 38.753906 41.691406 37.8125 41.667969 37.8125 41 C 37.8125 39.804688 37.816406 39.035156 37.816406 38.6875 C 37.816406 38.640625 37.792969 38.617188 37.746094 38.617188 C 37.390625 38.625 36.878906 38.628906 36.21875 38.628906 C 35.554688 38.628906 35.042969 38.625 34.6875 38.621094 C 34.640625 38.621094 34.617188 38.640625 34.617188 38.6875 C 34.621094 39.035156 34.621094 39.808594 34.625 41 C 34.625 41.667969 33.6875 41.695312 33.683594 40.953125 C 33.683594 38.113281 33.683594 36.449219 33.6875 35.957031 C 33.691406 35.839844 33.734375 35.734375 33.824219 35.648438 C 34.4375 35.027344 35.113281 34.359375 35.847656 33.648438 C 35.96875 33.53125 36.09375 33.46875 36.214844 33.46875 Z M 36.214844 37.6875 C 36.691406 37.6875 37.203125 37.683594 37.742188 37.679688 C 37.789062 37.679688 37.808594 37.65625 37.808594 37.609375 L 37.808594 36.230469 C 37.808594 36.175781 37.792969 36.132812 37.753906 36.097656 C 37.238281 35.601562 36.738281 35.105469 36.257812 34.605469 C 36.246094 34.597656 36.230469 34.589844 36.210938 34.589844 C 36.191406 34.589844 36.179688 34.597656 36.167969 34.605469 C 35.6875 35.109375 35.1875 35.605469 34.671875 36.101562 C 34.636719 36.136719 34.617188 36.183594 34.617188 36.234375 L 34.621094 37.613281 C 34.621094 37.660156 34.644531 37.683594 34.691406 37.683594 C 35.230469 37.6875 35.738281 37.6875 36.214844 37.6875 Z M 36.214844 37.6875 " fill-opacity="1" fill-rule="nonzero"/><path fill="#b59862" d="M 40.808594 33.53125 L 40.820312 33.53125 C 40.949219 33.53125 41.0625 33.574219 41.152344 33.667969 C 41.246094 33.761719 41.292969 33.871094 41.292969 34 L 41.292969 41.042969 C 41.292969 41.171875 41.246094 41.285156 41.152344 41.375 C 41.0625 41.46875 40.949219 41.515625 40.820312 41.515625 L 40.808594 41.515625 C 40.675781 41.515625 40.566406 41.46875 40.472656 41.375 C 40.382812 41.285156 40.335938 41.171875 40.335938 41.042969 L 40.335938 34 C 40.335938 33.871094 40.382812 33.761719 40.472656 33.667969 C 40.566406 33.574219 40.675781 33.53125 40.808594 33.53125 Z M 40.808594 33.53125 " fill-opacity="1" fill-rule="nonzero"/><path fill="#b59862" d="M 25.878906 33.59375 L 27.035156 33.589844 C 27.15625 33.589844 27.261719 33.628906 27.347656 33.714844 C 27.433594 33.800781 27.476562 33.90625 27.476562 34.027344 L 27.476562 34.070312 C 27.476562 34.191406 27.433594 34.292969 27.347656 34.378906 C 27.261719 34.46875 27.160156 34.511719 27.039062 34.511719 L 25.878906 34.515625 C 25.757812 34.515625 25.65625 34.472656 25.570312 34.386719 C 25.484375 34.300781 25.441406 34.199219 25.441406 34.078125 L 25.441406 34.035156 C 25.4375 33.914062 25.480469 33.808594 25.566406 33.722656 C 25.652344 33.636719 25.757812 33.59375 25.878906 33.59375 Z M 25.878906 33.59375 " fill-opacity="1" fill-rule="nonzero"/><path fill="#b59862" d="M 47.976562 33.59375 L 49.125 33.582031 C 49.25 33.582031 49.351562 33.625 49.441406 33.710938 C 49.527344 33.796875 49.570312 33.902344 49.574219 34.023438 L 49.574219 34.066406 C 49.574219 34.1875 49.53125 34.292969 49.445312 34.382812 C 49.359375 34.46875 49.253906 34.511719 49.132812 34.511719 L 47.984375 34.519531 C 47.859375 34.523438 47.753906 34.480469 47.667969 34.394531 C 47.582031 34.308594 47.539062 34.203125 47.535156 34.082031 L 47.535156 34.039062 C 47.535156 33.914062 47.578125 33.8125 47.664062 33.722656 C 47.75 33.636719 47.855469 33.59375 47.976562 33.59375 Z M 47.976562 33.59375 " fill-opacity="1" fill-rule="nonzero"/><path fill="#b59862" d="M 61.003906 39.890625 C 60.890625 39.890625 60.777344 39.832031 60.660156 39.714844 C 60.097656 39.152344 59.523438 38.578125 58.9375 37.992188 C 58.679688 37.730469 58.488281 37.484375 58.789062 37.179688 C 58.992188 36.976562 59.207031 36.972656 59.433594 37.175781 C 59.511719 37.246094 59.851562 37.597656 60.449219 38.226562 C 60.464844 38.242188 60.480469 38.246094 60.5 38.238281 C 60.519531 38.230469 60.53125 38.214844 60.53125 38.195312 C 60.527344 36.375 60.527344 35.371094 60.527344 35.1875 C 60.523438 34.894531 60.679688 34.628906 60.996094 34.625 C 61.308594 34.625 61.46875 34.894531 61.464844 35.1875 C 61.464844 35.371094 61.464844 36.375 61.46875 38.191406 C 61.46875 38.214844 61.480469 38.230469 61.5 38.238281 C 61.519531 38.246094 61.535156 38.242188 61.550781 38.226562 C 62.148438 37.59375 62.484375 37.242188 62.5625 37.171875 C 62.785156 36.96875 63.003906 36.96875 63.207031 37.175781 C 63.507812 37.476562 63.320312 37.726562 63.058594 37.984375 C 62.476562 38.574219 61.90625 39.148438 61.34375 39.710938 C 61.226562 39.832031 61.113281 39.890625 61.003906 39.890625 Z M 61.003906 39.890625 " fill-opacity="1" fill-rule="nonzero"/><path fill="#b59862" d="M 13.507812 36.953125 C 13.488281 36.914062 13.46875 36.910156 13.4375 36.9375 C 13.175781 37.175781 12.914062 37.429688 12.664062 37.695312 C 12.472656 37.898438 12.324219 38.015625 12.21875 38.042969 C 11.8125 38.152344 11.417969 37.675781 11.742188 37.320312 C 12.207031 36.804688 12.847656 36.144531 13.65625 35.339844 C 13.878906 35.125 14.097656 35.128906 14.324219 35.359375 C 15.4375 36.5 16.050781 37.128906 16.160156 37.238281 C 16.5 37.578125 16.351562 38.015625 15.871094 38.082031 C 15.644531 38.113281 15.042969 37.40625 14.519531 36.863281 C 14.507812 36.851562 14.492188 36.847656 14.472656 36.855469 C 14.457031 36.859375 14.449219 36.875 14.449219 36.894531 C 14.464844 37.941406 14.464844 38.964844 14.441406 39.957031 C 14.429688 40.625 13.53125 40.59375 13.527344 39.976562 C 13.511719 38.417969 13.507812 37.492188 13.515625 37.203125 C 13.519531 37.105469 13.535156 37.019531 13.507812 36.953125 Z M 13.507812 36.953125 " fill-opacity="1" fill-rule="nonzero"/><path fill="#b59862" d="M 20.144531 37.070312 L 27.039062 37.070312 C 27.164062 37.070312 27.273438 37.113281 27.363281 37.203125 C 27.453125 37.292969 27.496094 37.402344 27.496094 37.527344 L 27.496094 37.546875 C 27.496094 37.671875 27.453125 37.78125 27.363281 37.871094 C 27.273438 37.957031 27.164062 38.003906 27.039062 38.003906 L 20.144531 38.003906 C 20.019531 38.003906 19.910156 37.957031 19.820312 37.871094 C 19.730469 37.78125 19.6875 37.671875 19.6875 37.546875 L 19.6875 37.527344 C 19.6875 37.402344 19.730469 37.292969 19.820312 37.203125 C 19.910156 37.113281 20.019531 37.070312 20.144531 37.070312 Z M 20.144531 37.070312 " fill-opacity="1" fill-rule="nonzero"/><path fill="#b59862" d="M 47.9375 37.078125 L 54.867188 37.078125 C 54.992188 37.078125 55.09375 37.121094 55.183594 37.207031 C 55.269531 37.292969 55.3125 37.398438 55.3125 37.519531 L 55.3125 37.5625 C 55.3125 37.683594 55.269531 37.789062 55.183594 37.875 C 55.09375 37.960938 54.992188 38.003906 54.867188 38.003906 L 47.9375 38.003906 C 47.816406 38.003906 47.710938 37.960938 47.625 37.875 C 47.539062 37.789062 47.496094 37.683594 47.496094 37.5625 L 47.496094 37.519531 C 47.496094 37.398438 47.539062 37.292969 47.625 37.207031 C 47.710938 37.121094 47.816406 37.078125 47.9375 37.078125 Z M 47.9375 37.078125 " fill-opacity="1" fill-rule="nonzero"/><path fill="#b59862" d="M 25.875 40.53125 L 27.023438 40.523438 C 27.148438 40.523438 27.253906 40.566406 27.339844 40.652344 C 27.429688 40.738281 27.472656 40.84375 27.472656 40.96875 L 27.472656 41.011719 C 27.472656 41.136719 27.429688 41.242188 27.34375 41.328125 C 27.257812 41.417969 27.152344 41.460938 27.03125 41.460938 L 25.878906 41.46875 C 25.757812 41.46875 25.652344 41.425781 25.566406 41.339844 C 25.476562 41.253906 25.433594 41.148438 25.433594 41.027344 L 25.429688 40.980469 C 25.429688 40.859375 25.472656 40.753906 25.558594 40.664062 C 25.644531 40.578125 25.75 40.535156 25.875 40.53125 Z M 25.875 40.53125 " fill-opacity="1" fill-rule="nonzero"/><path fill="#b59862" d="M 47.976562 40.519531 L 49.128906 40.515625 C 49.25 40.515625 49.355469 40.558594 49.445312 40.648438 C 49.53125 40.734375 49.574219 40.839844 49.574219 40.960938 L 49.578125 41.007812 C 49.578125 41.132812 49.535156 41.238281 49.445312 41.324219 C 49.359375 41.414062 49.253906 41.457031 49.128906 41.457031 L 47.976562 41.460938 C 47.855469 41.460938 47.75 41.417969 47.660156 41.332031 C 47.574219 41.242188 47.53125 41.140625 47.53125 41.015625 L 47.527344 40.96875 C 47.527344 40.847656 47.570312 40.742188 47.660156 40.652344 C 47.746094 40.566406 47.851562 40.519531 47.976562 40.519531 Z M 47.976562 40.519531 " fill-opacity="1" fill-rule="nonzero"/><path fill="#b59862" d="M 60.515625 49.625 C 60.265625 49.894531 59.746094 49.894531 59.683594 49.476562 C 59.300781 46.972656 57.550781 45.015625 55.074219 44.425781 C 54.664062 44.328125 53.890625 44.285156 52.75 44.296875 C 51.472656 44.3125 49.949219 44.320312 48.167969 44.3125 C 47.914062 44.3125 47.742188 44.226562 47.664062 44.058594 C 47.492188 43.695312 47.734375 43.378906 48.128906 43.378906 C 49.777344 43.378906 51.34375 43.371094 52.828125 43.363281 C 53.90625 43.355469 54.699219 43.40625 55.207031 43.511719 C 57.976562 44.082031 60.074219 46.328125 60.5625 49.117188 C 60.589844 49.273438 60.589844 49.414062 60.558594 49.539062 C 60.550781 49.574219 60.535156 49.601562 60.515625 49.625 Z M 60.515625 49.625 " fill-opacity="1" fill-rule="nonzero"/><path fill="#b59862" d="M 17.523438 45.175781 C 17.695312 45.324219 17.6875 45.582031 17.6875 45.882812 C 17.691406 46.714844 17.691406 47.359375 17.6875 47.8125 C 17.683594 48.644531 17.710938 49.289062 17.777344 49.734375 C 18.238281 52.914062 20.3125 55.53125 23.246094 56.777344 C 24.417969 57.277344 25.628906 57.511719 26.867188 57.484375 C 27.351562 57.476562 27.582031 58.109375 27.136719 58.363281 C 27.0625 58.40625 26.910156 58.425781 26.683594 58.421875 C 25.273438 58.390625 23.980469 58.117188 22.804688 57.605469 C 19.535156 56.175781 17.292969 53.242188 16.824219 49.695312 C 16.765625 49.25 16.742188 48.574219 16.746094 47.675781 C 16.75 46.792969 16.75 46.117188 16.746094 45.648438 C 16.746094 45.503906 16.769531 45.386719 16.820312 45.289062 C 16.957031 45.019531 17.316406 45 17.523438 45.175781 Z M 17.523438 45.175781 " fill-opacity="1" fill-rule="nonzero"/><path fill="#b59862" d="M 19.667969 45.648438 C 19.671875 44.871094 20.605469 44.851562 20.605469 45.636719 C 20.605469 46.488281 20.601562 47.15625 20.597656 47.640625 C 20.585938 48.53125 20.625 49.195312 20.710938 49.632812 C 21.289062 52.53125 23.730469 54.5 26.675781 54.550781 C 27.070312 54.558594 27.328125 54.613281 27.390625 55.011719 C 27.398438 55.042969 27.394531 55.074219 27.386719 55.105469 C 27.296875 55.359375 27.140625 55.484375 26.917969 55.488281 C 25.152344 55.496094 23.605469 54.976562 22.285156 53.929688 C 20.617188 52.605469 19.699219 50.613281 19.667969 48.484375 C 19.660156 48.089844 19.660156 47.144531 19.667969 45.648438 Z M 19.667969 45.648438 " fill-opacity="1" fill-rule="nonzero"/><path fill="#b59862" d="M 46.253906 47.175781 C 45.917969 47.015625 45.945312 46.460938 46.316406 46.339844 C 46.398438 46.316406 46.488281 46.300781 46.585938 46.300781 C 50.175781 46.3125 52.375 46.3125 53.1875 46.300781 C 53.890625 46.292969 54.414062 46.332031 54.753906 46.425781 C 56.117188 46.800781 57.179688 47.800781 57.574219 49.199219 C 57.609375 49.3125 57.597656 49.421875 57.542969 49.523438 C 57.492188 49.625 57.410156 49.699219 57.300781 49.738281 L 57.269531 49.75 C 57.164062 49.789062 57.0625 49.78125 56.960938 49.734375 C 56.855469 49.6875 56.785156 49.613281 56.746094 49.507812 C 56.664062 49.277344 56.496094 48.84375 56.28125 48.558594 C 55.84375 47.964844 55.289062 47.566406 54.617188 47.359375 C 54.351562 47.277344 53.925781 47.234375 53.335938 47.238281 C 49.710938 47.242188 47.445312 47.242188 46.535156 47.242188 C 46.4375 47.242188 46.339844 47.21875 46.253906 47.175781 Z M 46.253906 47.175781 " fill-opacity="1" fill-rule="nonzero"/><path fill="#b59862" d="M 37.492188 47.535156 L 37.519531 47.535156 C 37.640625 47.535156 37.746094 47.578125 37.832031 47.664062 C 37.917969 47.75 37.960938 47.855469 37.960938 47.976562 L 37.96875 51.183594 C 37.96875 51.308594 37.925781 51.410156 37.839844 51.5 C 37.753906 51.585938 37.648438 51.628906 37.527344 51.628906 L 37.5 51.628906 C 37.378906 51.628906 37.273438 51.585938 37.1875 51.5 C 37.101562 51.414062 37.058594 51.308594 37.058594 51.1875 L 37.050781 47.980469 C 37.050781 47.855469 37.09375 47.753906 37.179688 47.664062 C 37.265625 47.578125 37.371094 47.535156 37.492188 47.535156 Z M 37.492188 47.535156 " fill-opacity="1" fill-rule="nonzero"/><path fill="#b59862" d="M 33.992188 47.550781 L 34.035156 47.550781 C 34.160156 47.550781 34.261719 47.59375 34.351562 47.679688 C 34.4375 47.765625 34.480469 47.871094 34.480469 47.992188 L 34.484375 49.09375 C 34.484375 49.214844 34.441406 49.320312 34.355469 49.40625 C 34.269531 49.492188 34.167969 49.535156 34.042969 49.539062 L 34 49.539062 C 33.875 49.539062 33.773438 49.496094 33.683594 49.410156 C 33.597656 49.324219 33.554688 49.21875 33.554688 49.097656 L 33.550781 47.996094 C 33.550781 47.871094 33.59375 47.769531 33.679688 47.679688 C 33.765625 47.59375 33.871094 47.550781 33.992188 47.550781 Z M 33.992188 47.550781 " fill-opacity="1" fill-rule="nonzero"/><path fill="#b59862" d="M 40.964844 47.554688 L 41.011719 47.554688 C 41.132812 47.554688 41.234375 47.59375 41.320312 47.679688 C 41.40625 47.765625 41.449219 47.867188 41.449219 47.988281 L 41.457031 49.101562 C 41.457031 49.222656 41.414062 49.324219 41.328125 49.410156 C 41.246094 49.496094 41.140625 49.539062 41.023438 49.542969 L 40.976562 49.542969 C 40.855469 49.542969 40.753906 49.5 40.667969 49.414062 C 40.582031 49.332031 40.539062 49.226562 40.539062 49.105469 L 40.53125 47.992188 C 40.53125 47.871094 40.574219 47.769531 40.65625 47.683594 C 40.742188 47.597656 40.84375 47.554688 40.964844 47.554688 Z M 40.964844 47.554688 " fill-opacity="1" fill-rule="nonzero"/><path fill="#b59862" d="M 64.726562 58.597656 C 64.726562 58.832031 64.683594 59.058594 64.59375 59.277344 C 64.5 59.496094 64.371094 59.6875 64.207031 59.851562 C 64.039062 60.019531 63.847656 60.148438 63.628906 60.238281 C 63.410156 60.328125 63.183594 60.371094 62.945312 60.371094 L 56.828125 60.359375 C 56.589844 60.359375 56.363281 60.316406 56.144531 60.222656 C 55.929688 60.132812 55.734375 60.003906 55.570312 59.839844 C 55.402344 59.671875 55.273438 59.476562 55.183594 59.261719 C 55.09375 59.042969 55.050781 58.816406 55.050781 58.578125 L 55.0625 52.457031 C 55.0625 52.222656 55.109375 51.996094 55.199219 51.777344 C 55.289062 51.5625 55.417969 51.367188 55.585938 51.203125 C 55.75 51.035156 55.945312 50.90625 56.164062 50.816406 C 56.378906 50.726562 56.605469 50.683594 56.84375 50.683594 L 62.964844 50.695312 C 63.199219 50.695312 63.425781 50.742188 63.644531 50.832031 C 63.863281 50.921875 64.054688 51.050781 64.21875 51.21875 C 64.386719 51.382812 64.515625 51.578125 64.605469 51.796875 C 64.695312 52.011719 64.738281 52.238281 64.738281 52.476562 Z M 63.796875 52.480469 C 63.796875 52.25 63.71875 52.054688 63.554688 51.890625 C 63.394531 51.726562 63.199219 51.648438 62.96875 51.644531 L 56.84375 51.636719 C 56.617188 51.636719 56.417969 51.714844 56.257812 51.878906 C 56.09375 52.039062 56.011719 52.234375 56.011719 52.464844 L 56 58.589844 C 56 58.816406 56.082031 59.015625 56.242188 59.175781 C 56.40625 59.339844 56.601562 59.421875 56.832031 59.421875 L 62.953125 59.433594 C 63.183594 59.433594 63.378906 59.351562 63.542969 59.191406 C 63.707031 59.027344 63.789062 58.832031 63.789062 58.601562 Z M 63.796875 52.480469 " fill-opacity="1" fill-rule="nonzero"/><g clip-path="url(#ac8d7ccb78)"><path fill="#b59862" d="M 37.535156 52.550781 C 38.160156 52.550781 38.476562 52.554688 38.484375 52.554688 C 38.5 52.558594 38.515625 52.5625 38.535156 52.566406 C 38.867188 52.667969 38.902344 53.242188 38.964844 53.457031 C 38.976562 53.488281 38.992188 53.511719 39.015625 53.535156 C 39.101562 53.613281 39.222656 53.675781 39.367188 53.726562 C 39.414062 53.742188 39.457031 53.738281 39.496094 53.714844 C 39.515625 53.703125 39.707031 53.59375 40.070312 53.378906 C 40.238281 53.285156 40.390625 53.308594 40.53125 53.449219 C 40.875 53.792969 41.292969 54.207031 41.78125 54.695312 C 41.914062 54.828125 41.929688 54.992188 41.824219 55.1875 C 41.726562 55.371094 41.625 55.550781 41.515625 55.722656 C 41.496094 55.757812 41.488281 55.792969 41.496094 55.828125 C 41.515625 55.964844 41.570312 56.085938 41.65625 56.199219 C 41.679688 56.226562 41.707031 56.242188 41.742188 56.25 C 41.925781 56.28125 42.109375 56.324219 42.296875 56.378906 C 42.597656 56.464844 42.648438 56.664062 42.648438 56.976562 C 42.644531 57.160156 42.648438 57.566406 42.648438 58.191406 C 42.652344 58.617188 42.6875 58.875 42.242188 58.976562 C 42.058594 59.019531 41.882812 59.054688 41.710938 59.085938 C 41.664062 59.09375 41.632812 59.121094 41.613281 59.164062 L 41.488281 59.46875 C 41.46875 59.515625 41.472656 59.5625 41.5 59.605469 C 41.597656 59.753906 41.691406 59.898438 41.78125 60.042969 C 41.925781 60.273438 41.902344 60.480469 41.714844 60.664062 C 41.269531 61.09375 40.878906 61.484375 40.539062 61.832031 C 40.230469 62.152344 39.800781 61.792969 39.523438 61.59375 C 39.460938 61.550781 39.390625 61.539062 39.320312 61.5625 C 39.195312 61.605469 39.097656 61.664062 39.019531 61.734375 C 38.988281 61.765625 38.96875 61.800781 38.957031 61.84375 C 38.902344 62.066406 38.863281 62.242188 38.835938 62.363281 C 38.789062 62.574219 38.65625 62.6875 38.4375 62.691406 C 38.136719 62.703125 37.835938 62.707031 37.535156 62.707031 C 37.234375 62.707031 36.933594 62.703125 36.632812 62.691406 C 36.414062 62.6875 36.28125 62.574219 36.234375 62.363281 C 36.207031 62.242188 36.167969 62.066406 36.113281 61.84375 C 36.101562 61.800781 36.082031 61.765625 36.050781 61.738281 C 35.976562 61.664062 35.875 61.605469 35.75 61.566406 C 35.679688 61.539062 35.609375 61.550781 35.546875 61.59375 C 35.269531 61.792969 34.839844 62.152344 34.53125 61.835938 C 34.191406 61.484375 33.796875 61.097656 33.355469 60.664062 C 33.167969 60.484375 33.144531 60.277344 33.289062 60.046875 C 33.378906 59.898438 33.472656 59.753906 33.570312 59.605469 C 33.597656 59.5625 33.601562 59.519531 33.582031 59.472656 L 33.457031 59.164062 C 33.4375 59.121094 33.40625 59.09375 33.355469 59.085938 C 33.1875 59.054688 33.011719 59.019531 32.828125 58.980469 C 32.382812 58.878906 32.417969 58.617188 32.417969 58.191406 C 32.421875 57.566406 32.421875 57.164062 32.421875 56.976562 C 32.417969 56.664062 32.46875 56.46875 32.773438 56.378906 C 32.960938 56.328125 33.144531 56.285156 33.328125 56.25 C 33.363281 56.246094 33.390625 56.226562 33.414062 56.199219 C 33.5 56.089844 33.550781 55.964844 33.574219 55.828125 C 33.578125 55.792969 33.570312 55.757812 33.550781 55.726562 C 33.445312 55.550781 33.339844 55.371094 33.242188 55.191406 C 33.140625 54.996094 33.152344 54.828125 33.289062 54.695312 C 33.777344 54.207031 34.191406 53.792969 34.535156 53.449219 C 34.675781 53.308594 34.832031 53.285156 34.996094 53.382812 C 35.363281 53.59375 35.550781 53.703125 35.570312 53.714844 C 35.609375 53.738281 35.65625 53.746094 35.699219 53.726562 C 35.847656 53.675781 35.964844 53.613281 36.054688 53.535156 C 36.078125 53.511719 36.09375 53.488281 36.101562 53.457031 C 36.164062 53.242188 36.199219 52.667969 36.535156 52.566406 C 36.550781 52.5625 36.566406 52.558594 36.582031 52.554688 C 36.589844 52.554688 36.90625 52.550781 37.535156 52.550781 Z M 35.019531 60.863281 L 35.519531 60.574219 C 35.5625 60.550781 35.609375 60.546875 35.65625 60.566406 L 36.773438 61.019531 C 36.777344 61.023438 36.78125 61.023438 36.78125 61.027344 C 36.949219 61.175781 36.992188 61.546875 37.039062 61.714844 C 37.054688 61.761719 37.085938 61.785156 37.132812 61.785156 L 37.964844 61.785156 C 38.015625 61.785156 38.050781 61.757812 38.0625 61.707031 L 38.214844 61.175781 C 38.234375 61.097656 38.285156 61.039062 38.359375 61.007812 L 39.355469 60.582031 C 39.429688 60.546875 39.507812 60.550781 39.578125 60.59375 L 40.058594 60.871094 C 40.101562 60.894531 40.140625 60.890625 40.175781 60.855469 L 40.75 60.28125 C 40.785156 60.246094 40.789062 60.207031 40.765625 60.164062 L 40.433594 59.589844 C 40.429688 59.578125 40.425781 59.5625 40.433594 59.550781 L 40.886719 58.449219 C 40.902344 58.410156 40.929688 58.382812 40.972656 58.367188 L 41.644531 58.132812 C 41.699219 58.109375 41.730469 58.070312 41.730469 58.007812 L 41.730469 57.273438 C 41.730469 57.222656 41.707031 57.191406 41.65625 57.179688 L 41.023438 57 C 40.9375 56.976562 40.878906 56.921875 40.847656 56.835938 L 40.5 55.847656 C 40.476562 55.777344 40.480469 55.707031 40.519531 55.640625 L 40.84375 55.078125 C 40.851562 55.0625 40.851562 55.050781 40.839844 55.042969 L 40.210938 54.414062 C 40.175781 54.375 40.132812 54.371094 40.089844 54.398438 L 39.597656 54.679688 C 39.523438 54.726562 39.445312 54.730469 39.363281 54.695312 L 38.347656 54.277344 C 38.308594 54.261719 38.285156 54.234375 38.269531 54.195312 L 38.027344 53.5 C 38.015625 53.472656 37.996094 53.460938 37.96875 53.460938 L 37.128906 53.460938 C 37.078125 53.460938 37.042969 53.488281 37.027344 53.539062 L 36.851562 54.164062 C 36.839844 54.210938 36.808594 54.246094 36.761719 54.265625 L 35.699219 54.722656 C 35.628906 54.753906 35.558594 54.75 35.492188 54.710938 L 35.003906 54.429688 C 34.933594 54.390625 34.875 54.398438 34.816406 54.453125 L 34.28125 54.992188 C 34.242188 55.03125 34.234375 55.074219 34.261719 55.121094 L 34.574219 55.660156 C 34.621094 55.742188 34.621094 55.820312 34.578125 55.902344 C 34.441406 56.152344 34.332031 56.421875 34.253906 56.714844 C 34.199219 56.921875 34.136719 56.941406 33.929688 57.019531 C 33.734375 57.089844 33.566406 57.140625 33.417969 57.167969 C 33.359375 57.179688 33.328125 57.214844 33.328125 57.273438 L 33.328125 58.089844 C 33.328125 58.128906 33.347656 58.152344 33.386719 58.164062 L 34 58.335938 C 34.066406 58.355469 34.117188 58.398438 34.144531 58.464844 L 34.589844 59.5 C 34.617188 59.5625 34.613281 59.625 34.578125 59.6875 L 34.289062 60.191406 C 34.265625 60.230469 34.269531 60.265625 34.300781 60.300781 L 34.84375 60.839844 C 34.894531 60.894531 34.957031 60.902344 35.019531 60.863281 Z M 35.019531 60.863281 " fill-opacity="1" fill-rule="nonzero"/></g><path fill="#b59862" d="M 59.890625 52.871094 C 60.207031 52.871094 60.363281 53.136719 60.359375 53.429688 C 60.359375 53.613281 60.359375 54.617188 60.363281 56.441406 C 60.363281 56.460938 60.371094 56.476562 60.390625 56.484375 C 60.410156 56.492188 60.425781 56.488281 60.441406 56.472656 C 61.039062 55.839844 61.378906 55.488281 61.457031 55.417969 C 61.683594 55.214844 61.898438 55.214844 62.101562 55.421875 C 62.402344 55.722656 62.214844 55.972656 61.953125 56.234375 C 61.371094 56.820312 60.796875 57.398438 60.234375 57.960938 C 60.117188 58.078125 60.003906 58.136719 59.890625 58.136719 C 59.78125 58.136719 59.667969 58.078125 59.546875 57.960938 C 58.984375 57.398438 58.410156 56.824219 57.828125 56.234375 C 57.570312 55.976562 57.378906 55.726562 57.679688 55.421875 C 57.882812 55.21875 58.097656 55.21875 58.324219 55.421875 C 58.402344 55.492188 58.742188 55.839844 59.339844 56.472656 C 59.355469 56.488281 59.371094 56.492188 59.390625 56.484375 C 59.410156 56.476562 59.421875 56.460938 59.421875 56.441406 C 59.421875 54.617188 59.421875 53.613281 59.417969 53.429688 C 59.417969 53.136719 59.574219 52.871094 59.890625 52.871094 Z M 59.890625 52.871094 " fill-opacity="1" fill-rule="nonzero"/><path fill="#b59862" d="M 30.433594 56.679688 C 29.929688 56.148438 29.261719 55.46875 28.429688 54.636719 C 28.21875 54.429688 28.152344 54.230469 28.226562 54.046875 C 28.355469 53.730469 28.75 53.632812 28.984375 53.878906 C 29.78125 54.707031 30.609375 55.542969 31.46875 56.382812 C 31.710938 56.617188 31.714844 56.851562 31.484375 57.082031 C 30.742188 57.820312 29.988281 58.582031 29.222656 59.359375 C 28.933594 59.65625 28.679688 59.855469 28.339844 59.527344 C 28.320312 59.507812 28.300781 59.480469 28.289062 59.453125 C 28.1875 59.234375 28.226562 59.035156 28.402344 58.859375 C 28.875 58.394531 29.550781 57.707031 30.433594 56.800781 C 30.472656 56.761719 30.472656 56.722656 30.433594 56.679688 Z M 30.433594 56.679688 " fill-opacity="1" fill-rule="nonzero"/><path fill="#b59862" d="M 40.015625 57.644531 C 40.015625 57.972656 39.949219 58.292969 39.824219 58.597656 C 39.695312 58.90625 39.515625 59.175781 39.28125 59.410156 C 39.046875 59.644531 38.777344 59.824219 38.472656 59.953125 C 38.164062 60.078125 37.847656 60.140625 37.515625 60.140625 C 37.183594 60.140625 36.863281 60.078125 36.558594 59.953125 C 36.25 59.824219 35.980469 59.644531 35.746094 59.410156 C 35.511719 59.175781 35.332031 58.90625 35.203125 58.597656 C 35.078125 58.292969 35.015625 57.972656 35.015625 57.644531 C 35.015625 57.3125 35.078125 56.992188 35.203125 56.6875 C 35.332031 56.378906 35.511719 56.109375 35.746094 55.875 C 35.980469 55.640625 36.25 55.460938 36.558594 55.332031 C 36.863281 55.207031 37.183594 55.144531 37.515625 55.144531 C 37.847656 55.144531 38.164062 55.207031 38.472656 55.332031 C 38.777344 55.460938 39.046875 55.640625 39.28125 55.875 C 39.515625 56.109375 39.695312 56.378906 39.824219 56.6875 C 39.949219 56.992188 40.015625 57.3125 40.015625 57.644531 Z M 39.078125 57.636719 C 39.078125 57.429688 39.039062 57.226562 38.960938 57.035156 C 38.882812 56.84375 38.769531 56.675781 38.621094 56.527344 C 38.472656 56.382812 38.304688 56.269531 38.113281 56.1875 C 37.921875 56.109375 37.722656 56.070312 37.515625 56.070312 C 37.308594 56.070312 37.105469 56.109375 36.914062 56.1875 C 36.722656 56.269531 36.554688 56.382812 36.40625 56.527344 C 36.261719 56.675781 36.148438 56.84375 36.070312 57.035156 C 35.988281 57.226562 35.949219 57.429688 35.949219 57.636719 C 35.949219 57.84375 35.988281 58.042969 36.070312 58.234375 C 36.148438 58.425781 36.261719 58.59375 36.40625 58.742188 C 36.554688 58.890625 36.722656 59 36.914062 59.082031 C 37.105469 59.160156 37.308594 59.199219 37.515625 59.199219 C 37.722656 59.199219 37.921875 59.160156 38.113281 59.082031 C 38.304688 59 38.472656 58.890625 38.621094 58.742188 C 38.769531 58.59375 38.882812 58.425781 38.960938 58.234375 C 39.039062 58.042969 39.078125 57.84375 39.078125 57.636719 Z M 39.078125 57.636719 " fill-opacity="1" fill-rule="nonzero"/></svg>