<svg xmlns="http://www.w3.org/2000/svg" xmlns:xlink="http://www.w3.org/1999/xlink" width="100" zoomAndPan="magnify" viewBox="0 0 75 74.999997" height="100" preserveAspectRatio="xMidYMid meet" version="1.0"><defs><clipPath id="1dfd1b0061"><path d="M 17 7.5 L 67.5 7.5 L 67.5 57 L 17 57 Z M 17 7.5 " clip-rule="nonzero"/></clipPath><clipPath id="82bad8da40"><path d="M 7.5 17 L 60 17 L 60 67.5 L 7.5 67.5 Z M 7.5 17 " clip-rule="nonzero"/></clipPath></defs><path fill="#b59862" d="M 30.109375 36.339844 L 27.90625 34.929688 C 27.621094 34.746094 27.246094 34.761719 26.976562 34.972656 L 25.671875 35.984375 L 24.351562 35.746094 L 23.476562 34.347656 C 23.296875 34.058594 22.953125 33.914062 22.621094 33.984375 L 20.066406 34.546875 C 19.734375 34.617188 19.480469 34.894531 19.4375 35.230469 L 19.230469 36.871094 L 18.128906 37.636719 L 16.523438 37.265625 C 16.1875 37.1875 15.84375 37.328125 15.660156 37.617188 L 14.25 39.820312 C 14.066406 40.105469 14.082031 40.476562 14.292969 40.746094 L 15.304688 42.054688 L 15.070312 43.375 L 13.667969 44.25 C 13.378906 44.429688 13.234375 44.773438 13.304688 45.105469 L 13.867188 47.660156 C 13.941406 47.992188 14.214844 48.242188 14.554688 48.285156 L 16.191406 48.492188 L 16.960938 49.59375 L 16.585938 51.203125 C 16.511719 51.535156 16.652344 51.882812 16.9375 52.066406 L 19.140625 53.476562 C 19.425781 53.660156 19.800781 53.640625 20.070312 53.433594 L 21.375 52.421875 L 22.695312 52.65625 L 23.570312 54.058594 C 23.71875 54.296875 23.980469 54.4375 24.253906 54.4375 C 24.3125 54.4375 24.371094 54.433594 24.425781 54.417969 L 26.980469 53.859375 C 27.3125 53.785156 27.566406 53.511719 27.609375 53.171875 L 27.816406 51.535156 L 28.917969 50.765625 L 30.527344 51.136719 C 30.859375 51.214844 31.203125 51.074219 31.386719 50.789062 L 32.796875 48.585938 C 32.980469 48.296875 32.964844 47.925781 32.753906 47.65625 L 31.742188 46.351562 L 31.976562 45.03125 L 33.378906 44.15625 C 33.667969 43.976562 33.8125 43.632812 33.742188 43.296875 L 33.179688 40.746094 C 33.105469 40.410156 32.832031 40.160156 32.492188 40.117188 L 30.855469 39.910156 L 30.085938 38.808594 L 30.460938 37.199219 C 30.539062 36.867188 30.398438 36.523438 30.109375 36.339844 Z M 30.296875 41.464844 L 31.726562 41.648438 L 32.042969 43.089844 L 30.820312 43.851562 C 30.625 43.972656 30.492188 44.167969 30.453125 44.394531 L 30.089844 46.421875 C 30.050781 46.644531 30.109375 46.875 30.246094 47.058594 L 31.128906 48.195312 L 30.335938 49.4375 L 28.929688 49.113281 C 28.710938 49.0625 28.476562 49.105469 28.289062 49.238281 L 26.597656 50.414062 C 26.410156 50.546875 26.289062 50.75 26.257812 50.976562 L 26.078125 52.40625 L 24.636719 52.722656 L 23.875 51.5 C 23.753906 51.304688 23.558594 51.171875 23.332031 51.132812 L 21.304688 50.769531 C 21.257812 50.761719 21.210938 50.757812 21.164062 50.757812 C 20.984375 50.757812 20.8125 50.816406 20.667969 50.925781 L 19.53125 51.808594 L 18.289062 51.015625 L 18.613281 49.609375 C 18.664062 49.386719 18.621094 49.152344 18.488281 48.96875 L 17.3125 47.277344 C 17.179688 47.089844 16.976562 46.96875 16.75 46.9375 L 15.320312 46.757812 L 15.003906 45.316406 L 16.226562 44.554688 C 16.421875 44.433594 16.554688 44.234375 16.59375 44.011719 L 16.957031 41.984375 C 16.996094 41.757812 16.941406 41.527344 16.800781 41.347656 L 15.917969 40.210938 L 16.710938 38.964844 L 18.117188 39.292969 C 18.339844 39.34375 18.574219 39.296875 18.761719 39.167969 L 20.449219 37.988281 C 20.636719 37.859375 20.757812 37.65625 20.789062 37.429688 L 20.96875 36 L 22.410156 35.683594 L 23.171875 36.90625 C 23.292969 37.101562 23.492188 37.234375 23.714844 37.273438 L 25.742188 37.636719 C 25.96875 37.675781 26.199219 37.617188 26.378906 37.480469 L 27.515625 36.59375 L 28.761719 37.390625 L 28.433594 38.792969 C 28.382812 39.015625 28.429688 39.25 28.558594 39.4375 L 29.738281 41.128906 C 29.867188 41.316406 30.070312 41.4375 30.296875 41.464844 Z M 30.296875 41.464844 " fill-opacity="1" fill-rule="nonzero"/><path fill="#b59862" d="M 24.40625 39.257812 C 23.085938 39.019531 21.753906 39.3125 20.652344 40.082031 C 19.550781 40.847656 18.8125 42 18.578125 43.320312 C 18.34375 44.640625 18.636719 45.972656 19.402344 47.074219 C 20.167969 48.175781 21.320312 48.910156 22.640625 49.148438 C 22.9375 49.199219 23.238281 49.226562 23.535156 49.226562 C 24.550781 49.226562 25.542969 48.917969 26.394531 48.324219 C 27.496094 47.554688 28.234375 46.40625 28.46875 45.085938 C 28.707031 43.765625 28.414062 42.429688 27.644531 41.328125 C 26.878906 40.230469 25.726562 39.492188 24.40625 39.257812 Z M 26.882812 44.800781 C 26.722656 45.699219 26.222656 46.480469 25.472656 47 C 24.726562 47.519531 23.820312 47.71875 22.925781 47.558594 C 22.027344 47.398438 21.246094 46.898438 20.726562 46.152344 C 20.203125 45.40625 20.007812 44.5 20.167969 43.601562 C 20.460938 41.953125 21.902344 40.792969 23.523438 40.792969 C 23.71875 40.792969 23.921875 40.808594 24.121094 40.84375 C 25.019531 41.003906 25.800781 41.503906 26.320312 42.253906 C 26.84375 43 27.042969 43.90625 26.882812 44.800781 Z M 26.882812 44.800781 " fill-opacity="1" fill-rule="nonzero"/><path fill="#b59862" d="M 44.675781 53.554688 C 44.964844 53.371094 45.109375 53.027344 45.035156 52.695312 L 44.683594 51.085938 C 44.609375 50.753906 44.335938 50.503906 43.996094 50.460938 L 43.097656 50.347656 L 42.765625 49.871094 L 42.96875 48.984375 C 43.046875 48.652344 42.90625 48.308594 42.617188 48.125 L 41.230469 47.234375 C 40.945312 47.050781 40.570312 47.070312 40.300781 47.277344 L 39.585938 47.835938 L 39.011719 47.734375 L 38.53125 46.960938 C 38.351562 46.671875 38.007812 46.527344 37.675781 46.601562 L 36.066406 46.953125 C 35.734375 47.027344 35.484375 47.300781 35.441406 47.640625 L 35.324219 48.542969 L 34.851562 48.875 L 33.964844 48.667969 C 33.632812 48.589844 33.289062 48.730469 33.105469 49.019531 L 32.214844 50.40625 C 32.03125 50.695312 32.050781 51.066406 32.257812 51.335938 L 32.816406 52.054688 L 32.710938 52.625 L 31.941406 53.105469 C 31.652344 53.285156 31.507812 53.628906 31.582031 53.960938 L 31.933594 55.570312 C 32.007812 55.902344 32.28125 56.15625 32.621094 56.199219 L 33.523438 56.3125 L 33.851562 56.789062 L 33.648438 57.671875 C 33.570312 58.003906 33.710938 58.351562 34 58.535156 L 35.386719 59.421875 C 35.675781 59.605469 36.046875 59.589844 36.316406 59.378906 L 37.03125 58.824219 L 37.605469 58.925781 L 38.085938 59.695312 C 38.234375 59.933594 38.496094 60.074219 38.769531 60.074219 C 38.828125 60.074219 38.882812 60.070312 38.941406 60.058594 L 40.550781 59.703125 C 40.882812 59.628906 41.136719 59.355469 41.179688 59.015625 L 41.292969 58.117188 L 41.769531 57.785156 L 42.652344 57.988281 C 42.984375 58.066406 43.328125 57.925781 43.515625 57.636719 L 44.402344 56.25 C 44.585938 55.964844 44.570312 55.59375 44.359375 55.324219 L 43.804688 54.605469 L 43.90625 54.035156 Z M 42.746094 52.855469 C 42.554688 52.976562 42.421875 53.171875 42.378906 53.398438 L 42.152344 54.675781 C 42.113281 54.898438 42.167969 55.128906 42.308594 55.308594 L 42.738281 55.859375 L 42.460938 56.289062 L 41.785156 56.132812 C 41.5625 56.082031 41.328125 56.125 41.140625 56.257812 L 40.074219 56.996094 C 39.886719 57.128906 39.765625 57.332031 39.738281 57.558594 L 39.648438 58.25 L 39.152344 58.359375 L 38.785156 57.769531 C 38.664062 57.574219 38.464844 57.441406 38.242188 57.402344 L 36.964844 57.171875 C 36.917969 57.164062 36.871094 57.160156 36.824219 57.160156 C 36.644531 57.160156 36.46875 57.21875 36.328125 57.328125 L 35.777344 57.757812 L 35.347656 57.484375 L 35.507812 56.804688 C 35.558594 56.582031 35.511719 56.347656 35.382812 56.160156 L 34.640625 55.09375 C 34.511719 54.910156 34.304688 54.785156 34.078125 54.757812 L 33.386719 54.667969 L 33.28125 54.171875 L 33.871094 53.804688 C 34.066406 53.683594 34.199219 53.484375 34.238281 53.261719 L 34.464844 51.984375 C 34.507812 51.757812 34.449219 51.527344 34.308594 51.347656 L 33.882812 50.796875 L 34.15625 50.371094 L 34.835938 50.527344 C 35.058594 50.578125 35.292969 50.53125 35.480469 50.402344 L 36.542969 49.660156 C 36.730469 49.53125 36.851562 49.328125 36.882812 49.101562 L 36.96875 48.410156 L 37.464844 48.300781 L 37.835938 48.890625 C 37.957031 49.085938 38.152344 49.21875 38.378906 49.257812 L 39.652344 49.484375 C 39.878906 49.527344 40.109375 49.46875 40.289062 49.328125 L 40.839844 48.902344 L 41.269531 49.175781 L 41.113281 49.855469 C 41.058594 50.078125 41.105469 50.3125 41.234375 50.5 L 41.976562 51.5625 C 42.109375 51.75 42.3125 51.875 42.539062 51.902344 L 43.230469 51.988281 L 43.339844 52.484375 Z M 42.746094 52.855469 " fill-opacity="1" fill-rule="nonzero"/><path fill="#b59862" d="M 38.863281 50.226562 C 38.035156 50.078125 37.199219 50.261719 36.507812 50.742188 C 35.816406 51.226562 35.355469 51.945312 35.207031 52.773438 C 34.902344 54.484375 36.042969 56.125 37.753906 56.433594 C 37.941406 56.464844 38.128906 56.480469 38.3125 56.480469 C 39.808594 56.480469 41.140625 55.40625 41.410156 53.882812 C 41.558594 53.054688 41.375 52.21875 40.894531 51.527344 C 40.414062 50.835938 39.691406 50.375 38.863281 50.226562 Z M 39.824219 53.601562 C 39.675781 54.433594 38.875 54.992188 38.039062 54.84375 C 37.203125 54.695312 36.644531 53.894531 36.796875 53.058594 C 36.867188 52.65625 37.09375 52.300781 37.429688 52.066406 C 37.691406 51.886719 37.996094 51.789062 38.304688 51.789062 C 38.398438 51.789062 38.488281 51.796875 38.578125 51.816406 C 38.984375 51.886719 39.335938 52.113281 39.570312 52.449219 C 39.804688 52.785156 39.894531 53.195312 39.824219 53.601562 Z M 39.824219 53.601562 " fill-opacity="1" fill-rule="nonzero"/><path fill="#b59862" d="M 39.507812 37.152344 C 40.089844 37.988281 40.816406 38.691406 41.667969 39.246094 C 42.546875 39.820312 43.523438 40.203125 44.566406 40.390625 C 45.027344 40.472656 45.492188 40.515625 45.953125 40.515625 C 46.535156 40.515625 47.109375 40.449219 47.679688 40.320312 C 48.671875 40.09375 49.597656 39.683594 50.433594 39.101562 C 51.265625 38.519531 51.972656 37.792969 52.523438 36.941406 C 53.097656 36.0625 53.484375 35.085938 53.667969 34.042969 C 53.855469 33 53.832031 31.953125 53.597656 30.929688 C 53.375 29.9375 52.964844 29.011719 52.382812 28.175781 C 51.800781 27.339844 51.074219 26.636719 50.222656 26.082031 C 49.339844 25.511719 48.367188 25.125 47.324219 24.9375 C 46.28125 24.753906 45.234375 24.777344 44.207031 25.007812 C 43.21875 25.234375 42.292969 25.644531 41.457031 26.226562 C 40.621094 26.808594 39.917969 27.535156 39.363281 28.386719 C 38.789062 29.265625 38.40625 30.242188 38.21875 31.285156 C 38.03125 32.328125 38.058594 33.375 38.289062 34.402344 C 38.515625 35.390625 38.925781 36.316406 39.507812 37.152344 Z M 39.808594 31.570312 C 40.101562 29.929688 41.011719 28.503906 42.378906 27.550781 C 43.4375 26.8125 44.667969 26.429688 45.929688 26.429688 C 46.300781 26.429688 46.671875 26.460938 47.039062 26.527344 C 48.679688 26.820312 50.105469 27.734375 51.058594 29.101562 C 52.011719 30.464844 52.375 32.121094 52.082031 33.761719 C 51.789062 35.398438 50.875 36.828125 49.507812 37.777344 C 48.144531 38.730469 46.488281 39.09375 44.847656 38.800781 C 43.210938 38.507812 41.78125 37.59375 40.832031 36.230469 C 39.878906 34.863281 39.515625 33.207031 39.808594 31.570312 Z M 39.808594 31.570312 " fill-opacity="1" fill-rule="nonzero"/><path fill="#b59862" d="M 31.472656 34.039062 C 31.152344 34.21875 30.996094 34.589844 31.089844 34.941406 L 31.792969 37.679688 C 31.882812 38.035156 32.199219 38.28125 32.5625 38.285156 L 34.773438 38.316406 L 35.589844 39.683594 L 34.5625 41.640625 C 34.390625 41.964844 34.460938 42.359375 34.726562 42.609375 L 36.800781 44.53125 C 37.066406 44.777344 37.46875 44.816406 37.777344 44.625 L 39.652344 43.453125 L 41.078125 44.164062 L 41.269531 46.363281 C 41.304688 46.726562 41.574219 47.023438 41.933594 47.089844 L 44.714844 47.585938 C 44.765625 47.59375 44.8125 47.597656 44.859375 47.597656 C 45.167969 47.597656 45.453125 47.421875 45.589844 47.136719 L 46.53125 45.136719 L 48.117188 44.964844 L 49.46875 46.710938 C 49.691406 47 50.082031 47.101562 50.417969 46.960938 L 53.019531 45.878906 L 53.027344 45.875 C 53.363281 45.734375 53.566406 45.386719 53.519531 45.027344 L 53.230469 42.835938 L 54.46875 41.832031 L 56.554688 42.570312 C 56.898438 42.691406 57.28125 42.570312 57.488281 42.269531 L 59.09375 39.941406 C 59.300781 39.644531 59.28125 39.242188 59.046875 38.964844 L 57.621094 37.273438 L 58.121094 35.761719 L 60.273438 35.257812 C 60.628906 35.171875 60.882812 34.863281 60.894531 34.5 L 60.992188 31.671875 C 61.003906 31.308594 60.769531 30.980469 60.421875 30.875 L 58.308594 30.226562 L 57.914062 28.679688 L 59.449219 27.09375 C 59.703125 26.832031 59.75 26.433594 59.5625 26.117188 L 58.117188 23.691406 C 57.929688 23.375 57.558594 23.226562 57.207031 23.324219 L 55.078125 23.921875 L 53.910156 22.835938 L 54.34375 20.671875 C 54.414062 20.3125 54.238281 19.953125 53.914062 19.789062 L 51.382812 18.527344 C 51.054688 18.367188 50.660156 18.441406 50.417969 18.714844 L 48.949219 20.367188 L 47.382812 20.085938 L 46.574219 18.027344 C 46.441406 17.6875 46.097656 17.480469 45.734375 17.519531 L 42.925781 17.828125 C 42.5625 17.867188 42.273438 18.144531 42.214844 18.503906 L 41.875 20.6875 L 40.402344 21.300781 L 38.609375 20.003906 C 38.316406 19.792969 37.914062 19.804688 37.632812 20.03125 L 35.433594 21.808594 C 35.148438 22.039062 35.054688 22.429688 35.203125 22.761719 L 36.09375 24.785156 L 35.1875 26.097656 L 32.980469 25.976562 C 32.617188 25.953125 32.285156 26.179688 32.171875 26.527344 L 31.28125 29.210938 C 31.167969 29.558594 31.300781 29.9375 31.605469 30.136719 L 33.449219 31.355469 L 33.394531 32.949219 Z M 34.714844 30.257812 L 33.007812 29.132812 L 33.507812 27.621094 L 35.550781 27.730469 C 35.828125 27.746094 36.097656 27.617188 36.257812 27.386719 L 37.679688 25.332031 C 37.835938 25.101562 37.867188 24.804688 37.753906 24.546875 L 36.925781 22.675781 L 38.164062 21.675781 L 39.820312 22.875 C 40.050781 23.039062 40.347656 23.074219 40.605469 22.964844 L 42.910156 22.003906 C 43.167969 21.898438 43.355469 21.660156 43.398438 21.386719 L 43.714844 19.363281 L 45.296875 19.191406 L 46.042969 21.097656 C 46.144531 21.355469 46.375 21.546875 46.652344 21.59375 L 49.109375 22.035156 C 49.386719 22.082031 49.667969 21.984375 49.855469 21.777344 L 51.214844 20.25 L 52.640625 20.957031 L 52.238281 22.964844 C 52.183594 23.238281 52.273438 23.523438 52.480469 23.714844 L 54.3125 25.410156 C 54.515625 25.601562 54.808594 25.671875 55.078125 25.597656 L 57.046875 25.046875 L 57.863281 26.414062 L 56.4375 27.882812 C 56.246094 28.085938 56.167969 28.375 56.238281 28.644531 L 56.859375 31.066406 C 56.929688 31.335938 57.136719 31.550781 57.402344 31.636719 L 59.359375 32.234375 L 59.304688 33.828125 L 57.3125 34.292969 C 57.039062 34.359375 56.820312 34.558594 56.730469 34.828125 L 55.949219 37.199219 C 55.859375 37.464844 55.917969 37.757812 56.097656 37.972656 L 57.417969 39.535156 L 56.511719 40.84375 L 54.582031 40.160156 C 54.320312 40.066406 54.023438 40.117188 53.804688 40.292969 L 51.863281 41.863281 C 51.648438 42.039062 51.535156 42.316406 51.570312 42.597656 L 51.835938 44.625 L 50.367188 45.234375 L 49.113281 43.621094 C 48.941406 43.398438 48.667969 43.28125 48.390625 43.3125 L 45.90625 43.582031 C 45.628906 43.613281 45.386719 43.785156 45.265625 44.039062 L 44.390625 45.890625 L 42.824219 45.609375 L 42.644531 43.574219 C 42.621094 43.292969 42.453125 43.046875 42.203125 42.921875 L 39.964844 41.808594 C 39.714844 41.683594 39.417969 41.695312 39.179688 41.84375 L 37.445312 42.929688 L 36.277344 41.84375 L 37.226562 40.035156 C 37.359375 39.785156 37.351562 39.488281 37.207031 39.246094 L 35.929688 37.101562 C 35.785156 36.859375 35.527344 36.710938 35.246094 36.707031 L 33.199219 36.683594 L 32.804688 35.140625 L 34.582031 34.128906 C 34.828125 33.992188 34.980469 33.734375 34.992188 33.457031 L 35.074219 30.960938 C 35.085938 30.679688 34.949219 30.414062 34.714844 30.257812 Z M 34.714844 30.257812 " fill-opacity="1" fill-rule="nonzero"/><g clip-path="url(#1dfd1b0061)"><path fill="#b59862" d="M 67.5 37.5 C 67.5 33.449219 66.707031 29.519531 65.140625 25.824219 C 64.390625 24.042969 63.460938 22.328125 62.375 20.726562 C 61.304688 19.136719 60.070312 17.644531 58.714844 16.285156 C 57.355469 14.929688 55.863281 13.695312 54.273438 12.625 C 52.671875 11.539062 50.957031 10.609375 49.175781 9.859375 C 45.480469 8.292969 41.550781 7.5 37.5 7.5 C 33.777344 7.5 30.144531 8.171875 26.703125 9.503906 C 23.375 10.785156 20.328125 12.636719 17.644531 15.007812 C 17.3125 15.304688 17.28125 15.8125 17.574219 16.148438 C 17.871094 16.480469 18.378906 16.511719 18.714844 16.21875 C 21.253906 13.972656 24.136719 12.222656 27.28125 11.007812 C 30.539062 9.75 33.976562 9.113281 37.5 9.113281 C 41.332031 9.113281 45.050781 9.863281 48.546875 11.34375 C 50.230469 12.054688 51.851562 12.933594 53.371094 13.960938 C 54.875 14.976562 56.289062 16.140625 57.570312 17.425781 C 58.855469 18.710938 60.023438 20.125 61.039062 21.628906 C 62.0625 23.148438 62.945312 24.769531 63.65625 26.449219 C 65.136719 29.949219 65.886719 33.667969 65.886719 37.5 C 65.886719 40.695312 65.359375 43.828125 64.324219 46.816406 C 63.492188 49.210938 62.34375 51.476562 60.90625 53.566406 L 60.640625 51.945312 C 60.566406 51.503906 60.152344 51.207031 59.714844 51.277344 C 59.273438 51.351562 58.976562 51.765625 59.046875 52.207031 L 59.601562 55.597656 C 59.667969 55.992188 60.007812 56.273438 60.398438 56.273438 C 60.441406 56.273438 60.484375 56.269531 60.527344 56.261719 L 63.917969 55.707031 C 64.359375 55.636719 64.65625 55.222656 64.585938 54.78125 C 64.511719 54.34375 64.097656 54.042969 63.660156 54.117188 L 62.335938 54.332031 C 63.808594 52.164062 64.988281 49.820312 65.847656 47.34375 C 66.945312 44.1875 67.5 40.875 67.5 37.5 Z M 67.5 37.5 " fill-opacity="1" fill-rule="nonzero"/></g><g clip-path="url(#82bad8da40)"><path fill="#b59862" d="M 57.902344 57.238281 C 56.609375 58.570312 55.183594 59.785156 53.660156 60.839844 C 52.125 61.90625 50.480469 62.820312 48.769531 63.5625 C 47.027344 64.316406 45.199219 64.898438 43.339844 65.285156 C 41.433594 65.683594 39.46875 65.886719 37.5 65.886719 C 33.667969 65.886719 29.949219 65.136719 26.449219 63.65625 C 24.769531 62.945312 23.148438 62.066406 21.628906 61.039062 C 20.125 60.023438 18.710938 58.859375 17.425781 57.574219 C 16.144531 56.289062 14.976562 54.875 13.960938 53.371094 C 12.933594 51.851562 12.054688 50.230469 11.34375 48.550781 C 9.863281 45.050781 9.113281 41.332031 9.113281 37.5 C 9.113281 33.984375 9.746094 30.554688 11 27.304688 C 11.984375 24.742188 13.332031 22.351562 15.007812 20.179688 L 15.007812 21.441406 C 15.007812 21.886719 15.367188 22.246094 15.8125 22.246094 C 16.257812 22.246094 16.621094 21.886719 16.621094 21.441406 L 16.621094 18.003906 C 16.621094 17.558594 16.257812 17.195312 15.8125 17.195312 L 12.375 17.195312 C 11.929688 17.195312 11.570312 17.558594 11.570312 18.003906 C 11.570312 18.449219 11.929688 18.808594 12.375 18.808594 L 14.03125 18.808594 C 12.117188 21.207031 10.59375 23.863281 9.492188 26.722656 C 8.171875 30.160156 7.5 33.785156 7.5 37.5 C 7.5 41.550781 8.292969 45.480469 9.859375 49.175781 C 10.609375 50.957031 11.539062 52.671875 12.625 54.273438 C 13.695312 55.863281 14.929688 57.355469 16.285156 58.714844 C 17.644531 60.070312 19.136719 61.304688 20.726562 62.375 C 22.328125 63.460938 24.042969 64.390625 25.824219 65.140625 C 29.519531 66.707031 33.449219 67.5 37.5 67.5 C 39.578125 67.5 41.65625 67.285156 43.671875 66.863281 C 45.636719 66.453125 47.566406 65.839844 49.410156 65.042969 C 51.21875 64.261719 52.957031 63.292969 54.582031 62.164062 C 56.191406 61.050781 57.699219 59.769531 59.0625 58.359375 C 59.371094 58.039062 59.363281 57.527344 59.042969 57.21875 C 58.722656 56.910156 58.210938 56.917969 57.902344 57.238281 Z M 57.902344 57.238281 " fill-opacity="1" fill-rule="nonzero"/></g><path fill="#b59862" d="M 43.929688 36.214844 C 44.085938 36.371094 44.292969 36.453125 44.5 36.453125 C 44.707031 36.453125 44.910156 36.371094 45.070312 36.214844 L 49.8125 31.472656 C 50.125 31.15625 50.125 30.648438 49.8125 30.332031 C 49.496094 30.015625 48.984375 30.015625 48.671875 30.332031 L 44.5 34.503906 L 42.671875 32.679688 C 42.359375 32.363281 41.847656 32.363281 41.53125 32.679688 C 41.21875 32.992188 41.21875 33.503906 41.53125 33.820312 Z M 43.929688 36.214844 " fill-opacity="1" fill-rule="nonzero"/></svg>