<svg xmlns="http://www.w3.org/2000/svg" xmlns:xlink="http://www.w3.org/1999/xlink" width="100" zoomAndPan="magnify" viewBox="0 0 75 74.999997" height="100" preserveAspectRatio="xMidYMid meet" version="1.0"><defs><clipPath id="d9a561c885"><path d="M 17.429688 53 L 36 53 L 36 58.8125 L 17.429688 58.8125 Z M 17.429688 53 " clip-rule="nonzero"/></clipPath><clipPath id="777574c13c"><path d="M 29 39 L 57.929688 39 L 57.929688 56 L 29 56 Z M 29 39 " clip-rule="nonzero"/></clipPath><clipPath id="3b74f05c53"><path d="M 47 16.0625 L 52 16.0625 L 52 22 L 47 22 Z M 47 16.0625 " clip-rule="nonzero"/></clipPath></defs><g clip-path="url(#d9a561c885)"><path fill="#b59862" d="M 19.832031 54.5625 L 19.210938 53.328125 C 17.753906 54.058594 17.449219 54.898438 17.449219 55.472656 C 17.449219 57.746094 21.96875 58.929688 26.4375 58.929688 C 30.902344 58.929688 35.425781 57.746094 35.425781 55.472656 C 35.425781 54.898438 35.121094 54.058594 33.660156 53.328125 L 33.039062 54.5625 C 33.78125 54.933594 34.042969 55.285156 34.042969 55.472656 C 34.042969 56.179688 31.355469 57.546875 26.4375 57.546875 C 21.515625 57.546875 18.832031 56.179688 18.832031 55.472656 C 18.832031 55.285156 19.09375 54.933594 19.832031 54.5625 Z M 19.832031 54.5625 " fill-opacity="1" fill-rule="nonzero"/></g><g clip-path="url(#777574c13c)"><path fill="#b59862" d="M 49.253906 43.71875 C 44.964844 43.71875 42.339844 42.527344 42.339844 41.875 C 42.339844 41.738281 42.546875 41.414062 43.328125 41.046875 L 42.734375 39.796875 C 41.265625 40.492188 40.957031 41.3125 40.957031 41.875 C 41.003906 42.578125 41.328125 43.109375 41.929688 43.472656 L 31.96875 49.222656 L 31.96875 48.558594 L 29.203125 47.175781 L 29.203125 55.472656 L 31.96875 55.472656 L 31.96875 50.847656 L 43.402344 44.222656 C 45.304688 44.84375 47.253906 45.136719 49.253906 45.101562 C 53.375 45.101562 57.550781 43.996094 57.550781 41.875 C 57.550781 41.3125 57.242188 40.492188 55.773438 39.792969 L 55.179688 41.042969 C 55.960938 41.414062 56.167969 41.742188 56.167969 41.875 C 56.167969 42.527344 53.539062 43.71875 49.253906 43.71875 Z M 49.253906 43.71875 " fill-opacity="1" fill-rule="nonzero"/></g><path fill="#b59862" d="M 23.304688 30.339844 L 22.652344 29.121094 C 21.527344 29.722656 20.90625 30.570312 20.90625 31.503906 C 20.90625 33.34375 23.28125 34.730469 26.4375 34.730469 C 28.179688 34.828125 29.738281 34.339844 31.113281 33.269531 L 44.183594 37.25 L 44.183594 41.875 L 46.488281 41.875 L 46.488281 34.269531 L 44.183594 35.539062 L 44.183594 35.808594 L 31.886719 32.0625 C 31.9375 31.878906 31.964844 31.695312 31.96875 31.503906 C 31.96875 30.570312 31.34375 29.722656 30.21875 29.121094 L 29.566406 30.339844 C 30.214844 30.6875 30.585938 31.113281 30.585938 31.503906 C 30.585938 32.375 28.8125 33.347656 26.4375 33.347656 C 24.0625 33.347656 22.289062 32.375 22.289062 31.503906 C 22.289062 31.113281 22.660156 30.6875 23.304688 30.339844 Z M 23.304688 30.339844 " fill-opacity="1" fill-rule="nonzero"/><path fill="#b59862" d="M 24.363281 44.410156 L 28.511719 44.410156 L 28.511719 55.472656 L 24.363281 55.472656 Z M 24.363281 44.410156 " fill-opacity="1" fill-rule="nonzero"/><path fill="#b59862" d="M 20.90625 55.472656 L 23.671875 55.472656 L 23.671875 47.175781 L 20.90625 48.558594 Z M 20.90625 55.472656 " fill-opacity="1" fill-rule="nonzero"/><path fill="#b59862" d="M 47.179688 31.738281 L 51.328125 31.738281 L 51.328125 41.878906 L 47.179688 41.878906 Z M 47.179688 31.738281 " fill-opacity="1" fill-rule="nonzero"/><path fill="#b59862" d="M 52.019531 41.875 L 54.324219 41.875 L 54.324219 35.539062 L 52.019531 34.269531 Z M 52.019531 41.875 " fill-opacity="1" fill-rule="nonzero"/><path fill="#b59862" d="M 24.535156 23.667969 L 24.535156 31.503906 L 28.339844 31.503906 L 28.339844 27.417969 L 45.148438 23.738281 C 46.347656 24.699219 47.71875 25.136719 49.253906 25.050781 C 52.011719 25.050781 54.09375 23.820312 54.09375 22.1875 C 54.066406 21.449219 53.746094 20.867188 53.136719 20.445312 L 52.28125 21.527344 C 52.519531 21.683594 52.664062 21.90625 52.710938 22.1875 C 52.710938 22.792969 51.363281 23.667969 49.253906 23.667969 C 47.144531 23.667969 45.796875 22.792969 45.796875 22.1875 C 45.84375 21.90625 45.984375 21.6875 46.222656 21.53125 L 45.367188 20.445312 C 44.757812 20.867188 44.441406 21.449219 44.414062 22.1875 C 44.414062 22.285156 44.421875 22.382812 44.4375 22.480469 L 28.339844 26.003906 L 28.339844 23.667969 Z M 24.535156 23.667969 " fill-opacity="1" fill-rule="nonzero"/><g clip-path="url(#3b74f05c53)"><path fill="#b59862" d="M 47.351562 16.0625 L 51.15625 16.0625 L 51.15625 21.953125 L 47.351562 21.953125 Z M 47.351562 16.0625 " fill-opacity="1" fill-rule="nonzero"/></g></svg>