<svg xmlns="http://www.w3.org/2000/svg" xmlns:xlink="http://www.w3.org/1999/xlink" width="100" zoomAndPan="magnify" viewBox="0 0 75 74.999997" height="100" preserveAspectRatio="xMidYMid meet" version="1.0"><defs><clipPath id="7ed5b6c2c7"><path d="M 8.699219 8.699219 L 66.449219 8.699219 L 66.449219 66.449219 L 8.699219 66.449219 Z M 8.699219 8.699219 " clip-rule="nonzero"/></clipPath></defs><g clip-path="url(#7ed5b6c2c7)"><path fill="#b59862" d="M 40.535156 26.921875 C 41.335938 27.148438 42.105469 27.46875 42.832031 27.871094 L 44.304688 27.21875 C 44.65625 27.0625 45.070312 27.136719 45.339844 27.410156 L 47.589844 29.65625 C 47.859375 29.929688 47.9375 30.339844 47.78125 30.691406 C 47.78125 30.691406 47.128906 32.164062 47.128906 32.164062 C 47.53125 32.890625 47.851562 33.664062 48.082031 34.464844 L 49.582031 35.042969 C 49.941406 35.183594 50.179688 35.527344 50.179688 35.910156 L 50.179688 39.089844 C 50.179688 39.472656 49.941406 39.820312 49.582031 39.957031 C 49.582031 39.957031 48.082031 40.535156 48.082031 40.535156 C 47.851562 41.335938 47.53125 42.105469 47.128906 42.832031 L 47.78125 44.308594 C 47.9375 44.660156 47.859375 45.070312 47.589844 45.339844 L 45.339844 47.589844 C 45.070312 47.859375 44.660156 47.9375 44.308594 47.78125 C 44.308594 47.78125 42.835938 47.128906 42.835938 47.128906 C 42.109375 47.53125 41.335938 47.851562 40.535156 48.082031 L 39.957031 49.582031 C 39.820312 49.941406 39.472656 50.179688 39.089844 50.179688 L 35.910156 50.179688 C 35.527344 50.179688 35.183594 49.941406 35.042969 49.582031 C 35.042969 49.582031 34.464844 48.082031 34.464844 48.082031 C 33.664062 47.851562 32.894531 47.53125 32.164062 47.128906 L 30.691406 47.78125 C 30.339844 47.9375 29.929688 47.859375 29.65625 47.589844 L 27.410156 45.339844 C 27.136719 45.070312 27.0625 44.65625 27.21875 44.304688 C 27.21875 44.304688 27.871094 42.832031 27.871094 42.832031 C 27.46875 42.105469 27.148438 41.335938 26.917969 40.535156 L 25.414062 39.957031 C 25.054688 39.820312 24.820312 39.472656 24.820312 39.089844 L 24.820312 35.910156 C 24.820312 35.527344 25.054688 35.183594 25.414062 35.042969 C 25.414062 35.042969 26.917969 34.464844 26.917969 34.464844 C 27.148438 33.664062 27.46875 32.894531 27.871094 32.164062 L 27.21875 30.691406 C 27.0625 30.339844 27.136719 29.929688 27.410156 29.65625 L 29.65625 27.410156 C 29.929688 27.136719 30.339844 27.0625 30.691406 27.21875 C 30.691406 27.21875 32.164062 27.871094 32.164062 27.871094 C 32.894531 27.46875 33.664062 27.148438 34.460938 26.921875 L 35.042969 25.414062 C 35.183594 25.054688 35.527344 24.820312 35.910156 24.820312 L 39.089844 24.820312 C 39.476562 24.820312 39.820312 25.054688 39.957031 25.414062 Z M 38.972656 28.03125 L 38.453125 26.675781 L 36.546875 26.675781 L 36.023438 28.03125 C 35.914062 28.316406 35.671875 28.53125 35.375 28.601562 C 34.433594 28.824219 33.535156 29.199219 32.710938 29.707031 C 32.449219 29.867188 32.125 29.886719 31.84375 29.761719 L 30.519531 29.175781 L 29.175781 30.519531 L 29.761719 31.84375 C 29.886719 32.125 29.867188 32.449219 29.707031 32.710938 C 29.195312 33.535156 28.824219 34.433594 28.597656 35.378906 C 28.527344 35.675781 28.3125 35.917969 28.027344 36.027344 C 28.027344 36.027344 26.675781 36.546875 26.675781 36.546875 L 26.675781 38.453125 L 28.027344 38.972656 C 28.3125 39.082031 28.527344 39.324219 28.597656 39.621094 C 28.824219 40.5625 29.195312 41.464844 29.703125 42.285156 C 29.867188 42.546875 29.886719 42.871094 29.761719 43.152344 L 29.175781 44.476562 C 29.175781 44.476562 30.519531 45.824219 30.519531 45.824219 L 31.847656 45.238281 C 32.125 45.113281 32.445312 45.132812 32.707031 45.292969 C 33.53125 45.800781 34.429688 46.175781 35.375 46.398438 C 35.675781 46.46875 35.917969 46.683594 36.027344 46.96875 C 36.027344 46.96875 36.546875 48.320312 36.546875 48.320312 L 38.453125 48.320312 L 38.972656 46.96875 C 39.082031 46.683594 39.328125 46.46875 39.625 46.398438 C 40.566406 46.175781 41.464844 45.804688 42.285156 45.296875 C 42.546875 45.132812 42.871094 45.113281 43.152344 45.238281 C 43.152344 45.238281 44.476562 45.824219 44.476562 45.824219 C 44.476562 45.824219 45.824219 44.476562 45.824219 44.476562 L 45.238281 43.152344 C 45.113281 42.871094 45.132812 42.550781 45.292969 42.289062 C 45.800781 41.464844 46.175781 40.566406 46.398438 39.625 C 46.46875 39.328125 46.683594 39.082031 46.96875 38.972656 C 46.96875 38.972656 48.320312 38.453125 48.320312 38.453125 L 48.320312 36.546875 L 46.96875 36.027344 C 46.683594 35.917969 46.46875 35.675781 46.398438 35.375 C 46.175781 34.433594 45.804688 33.535156 45.296875 32.710938 C 45.132812 32.449219 45.113281 32.125 45.238281 31.847656 L 45.824219 30.519531 L 44.476562 29.175781 L 43.152344 29.761719 C 42.871094 29.886719 42.550781 29.867188 42.289062 29.707031 C 41.464844 29.199219 40.566406 28.824219 39.625 28.601562 C 39.328125 28.53125 39.082031 28.316406 38.972656 28.03125 Z M 37.5 31.023438 C 41.074219 31.023438 43.976562 33.921875 43.976562 37.5 C 43.976562 41.074219 41.074219 43.976562 37.5 43.976562 C 33.921875 43.976562 31.023438 41.074219 31.023438 37.5 C 31.023438 33.921875 33.921875 31.023438 37.5 31.023438 Z M 37.5 32.882812 C 34.949219 32.882812 32.882812 34.949219 32.882812 37.5 C 32.882812 40.050781 34.949219 42.117188 37.5 42.117188 C 40.050781 42.117188 42.117188 40.050781 42.117188 37.5 C 42.117188 34.949219 40.050781 32.882812 37.5 32.882812 Z M 36.570312 20.308594 L 36.570312 17.894531 C 36.570312 17.382812 36.984375 16.964844 37.5 16.964844 C 38.011719 16.964844 38.429688 17.382812 38.429688 17.894531 L 38.429688 20.308594 L 38.457031 20.277344 C 38.796875 19.898438 39.386719 19.863281 39.765625 20.207031 C 40.148438 20.546875 40.183594 21.136719 39.839844 21.519531 L 38.191406 23.359375 C 38.015625 23.558594 37.761719 23.671875 37.5 23.671875 C 37.234375 23.671875 36.984375 23.558594 36.804688 23.359375 L 35.15625 21.519531 C 34.816406 21.136719 34.847656 20.546875 35.230469 20.207031 C 35.613281 19.863281 36.199219 19.898438 36.542969 20.277344 Z M 48.996094 24.6875 L 50.703125 22.980469 C 51.066406 22.617188 51.65625 22.617188 52.015625 22.980469 C 52.378906 23.34375 52.378906 23.929688 52.015625 24.292969 L 50.308594 26 L 50.351562 26 C 50.863281 25.96875 51.300781 26.363281 51.332031 26.875 C 51.359375 27.386719 50.96875 27.824219 50.453125 27.855469 L 47.984375 27.992188 C 47.722656 28.007812 47.464844 27.90625 47.277344 27.722656 C 47.089844 27.535156 46.992188 27.277344 47.007812 27.011719 L 47.144531 24.542969 C 47.171875 24.03125 47.609375 23.636719 48.121094 23.667969 C 48.632812 23.695312 49.027344 24.132812 49 24.644531 Z M 54.6875 36.570312 L 57.101562 36.570312 C 57.613281 36.570312 58.03125 36.984375 58.03125 37.5 C 58.03125 38.011719 57.613281 38.429688 57.101562 38.429688 L 54.6875 38.429688 L 54.71875 38.457031 C 55.101562 38.796875 55.132812 39.386719 54.792969 39.765625 C 54.449219 40.148438 53.863281 40.183594 53.480469 39.839844 L 51.636719 38.191406 C 51.441406 38.015625 51.328125 37.761719 51.328125 37.5 C 51.328125 37.234375 51.441406 36.984375 51.636719 36.804688 L 53.480469 35.15625 C 53.863281 34.816406 54.449219 34.847656 54.792969 35.230469 C 55.132812 35.613281 55.101562 36.199219 54.71875 36.542969 Z M 50.308594 48.996094 L 52.015625 50.703125 C 52.378906 51.066406 52.378906 51.65625 52.015625 52.015625 C 51.65625 52.378906 51.066406 52.378906 50.703125 52.015625 L 48.996094 50.308594 L 49 50.351562 C 49.027344 50.863281 48.632812 51.300781 48.121094 51.332031 C 47.609375 51.359375 47.171875 50.96875 47.144531 50.453125 L 47.007812 47.984375 C 46.992188 47.722656 47.089844 47.464844 47.277344 47.277344 C 47.464844 47.089844 47.722656 46.992188 47.984375 47.007812 L 50.453125 47.144531 C 50.96875 47.171875 51.359375 47.609375 51.332031 48.121094 C 51.300781 48.632812 50.863281 49.027344 50.351562 49 Z M 38.429688 54.6875 L 38.429688 57.101562 C 38.429688 57.613281 38.011719 58.03125 37.5 58.03125 C 36.984375 58.03125 36.570312 57.613281 36.570312 57.101562 L 36.570312 54.6875 L 36.542969 54.71875 C 36.199219 55.101562 35.613281 55.132812 35.230469 54.792969 C 34.847656 54.449219 34.816406 53.863281 35.15625 53.480469 L 36.804688 51.636719 C 36.984375 51.441406 37.234375 51.328125 37.5 51.328125 C 37.761719 51.328125 38.015625 51.441406 38.191406 51.636719 L 39.839844 53.480469 C 40.183594 53.863281 40.148438 54.449219 39.765625 54.792969 C 39.386719 55.132812 38.796875 55.101562 38.457031 54.71875 Z M 24.6875 48.996094 L 24.644531 49 C 24.132812 49.027344 23.695312 48.632812 23.667969 48.121094 C 23.636719 47.609375 24.03125 47.171875 24.542969 47.144531 L 27.011719 47.007812 C 27.277344 46.992188 27.535156 47.089844 27.722656 47.277344 C 27.90625 47.464844 28.007812 47.722656 27.992188 47.984375 L 27.855469 50.453125 C 27.824219 50.96875 27.386719 51.359375 26.875 51.332031 C 26.363281 51.300781 25.96875 50.863281 26 50.351562 L 26 50.308594 L 24.292969 52.015625 C 23.929688 52.378906 23.34375 52.378906 22.980469 52.015625 C 22.617188 51.65625 22.617188 51.066406 22.980469 50.703125 Z M 20.308594 36.570312 L 20.277344 36.542969 C 19.898438 36.199219 19.863281 35.613281 20.207031 35.230469 C 20.546875 34.847656 21.136719 34.816406 21.519531 35.15625 L 23.359375 36.804688 C 23.558594 36.984375 23.671875 37.234375 23.671875 37.5 C 23.671875 37.761719 23.558594 38.015625 23.359375 38.191406 L 21.519531 39.839844 C 21.136719 40.183594 20.546875 40.148438 20.207031 39.765625 C 19.863281 39.386719 19.898438 38.796875 20.277344 38.457031 L 20.308594 38.429688 L 17.894531 38.429688 C 17.382812 38.429688 16.964844 38.011719 16.964844 37.5 C 16.964844 36.984375 17.382812 36.570312 17.894531 36.570312 Z M 26 24.6875 L 26 24.644531 C 25.96875 24.132812 26.363281 23.695312 26.875 23.667969 C 27.386719 23.636719 27.824219 24.03125 27.855469 24.542969 L 27.992188 27.011719 C 28.007812 27.277344 27.90625 27.535156 27.722656 27.722656 C 27.535156 27.90625 27.277344 28.007812 27.011719 27.992188 L 24.542969 27.855469 C 24.03125 27.824219 23.636719 27.386719 23.667969 26.875 C 23.695312 26.363281 24.132812 25.96875 24.644531 26 L 24.6875 26 L 22.980469 24.292969 C 22.617188 23.929688 22.617188 23.34375 22.980469 22.980469 C 23.34375 22.617188 23.929688 22.617188 24.292969 22.980469 Z M 37.5 8.699219 C 39.644531 8.699219 41.386719 10.441406 41.386719 12.589844 C 41.386719 14.738281 39.644531 16.480469 37.5 16.480469 C 35.351562 16.480469 33.609375 14.738281 33.609375 12.589844 C 33.609375 10.441406 35.351562 8.699219 37.5 8.699219 Z M 37.5 10.558594 C 36.378906 10.558594 35.46875 11.46875 35.46875 12.589844 C 35.46875 13.710938 36.378906 14.621094 37.5 14.621094 C 38.621094 14.621094 39.53125 13.710938 39.53125 12.589844 C 39.53125 11.46875 38.621094 10.558594 37.5 10.558594 Z M 57.863281 17.136719 C 59.378906 18.652344 59.378906 21.117188 57.863281 22.636719 C 56.34375 24.152344 53.878906 24.152344 52.363281 22.636719 C 50.84375 21.117188 50.84375 18.652344 52.363281 17.136719 C 53.878906 15.617188 56.34375 15.617188 57.863281 17.136719 Z M 56.550781 18.449219 C 55.757812 17.65625 54.46875 17.65625 53.675781 18.449219 C 52.882812 19.242188 52.882812 20.527344 53.675781 21.320312 C 54.46875 22.113281 55.757812 22.113281 56.550781 21.320312 C 57.34375 20.527344 57.34375 19.242188 56.550781 18.449219 Z M 66.296875 37.5 C 66.296875 39.644531 64.554688 41.386719 62.40625 41.386719 C 60.261719 41.386719 58.519531 39.644531 58.519531 37.5 C 58.519531 35.351562 60.261719 33.609375 62.40625 33.609375 C 64.554688 33.609375 66.296875 35.351562 66.296875 37.5 Z M 64.441406 37.5 C 64.441406 36.378906 63.527344 35.46875 62.40625 35.46875 C 61.285156 35.46875 60.375 36.378906 60.375 37.5 C 60.375 38.621094 61.285156 39.53125 62.40625 39.53125 C 63.527344 39.53125 64.441406 38.621094 64.441406 37.5 Z M 57.863281 57.863281 C 56.34375 59.378906 53.878906 59.378906 52.363281 57.863281 C 50.84375 56.34375 50.84375 53.878906 52.363281 52.363281 C 53.878906 50.84375 56.34375 50.84375 57.863281 52.363281 C 59.378906 53.878906 59.378906 56.34375 57.863281 57.863281 Z M 56.550781 56.550781 C 57.34375 55.757812 57.34375 54.46875 56.550781 53.675781 C 55.757812 52.882812 54.46875 52.882812 53.675781 53.675781 C 52.882812 54.46875 52.882812 55.757812 53.675781 56.550781 C 54.46875 57.34375 55.757812 57.34375 56.550781 56.550781 Z M 37.5 66.296875 C 35.351562 66.296875 33.609375 64.554688 33.609375 62.40625 C 33.609375 60.261719 35.351562 58.519531 37.5 58.519531 C 39.644531 58.519531 41.386719 60.261719 41.386719 62.40625 C 41.386719 64.554688 39.644531 66.296875 37.5 66.296875 Z M 37.5 64.441406 C 38.621094 64.441406 39.53125 63.527344 39.53125 62.40625 C 39.53125 61.285156 38.621094 60.375 37.5 60.375 C 36.378906 60.375 35.46875 61.285156 35.46875 62.40625 C 35.46875 63.527344 36.378906 64.441406 37.5 64.441406 Z M 17.136719 57.863281 C 15.617188 56.34375 15.617188 53.878906 17.136719 52.363281 C 18.652344 50.84375 21.117188 50.84375 22.636719 52.363281 C 24.152344 53.878906 24.152344 56.34375 22.636719 57.863281 C 21.117188 59.378906 18.652344 59.378906 17.136719 57.863281 Z M 18.449219 56.550781 C 19.242188 57.34375 20.527344 57.34375 21.320312 56.550781 C 22.113281 55.757812 22.113281 54.46875 21.320312 53.675781 C 20.527344 52.882812 19.242188 52.882812 18.449219 53.675781 C 17.65625 54.46875 17.65625 55.757812 18.449219 56.550781 Z M 8.699219 37.5 C 8.699219 35.351562 10.441406 33.609375 12.589844 33.609375 C 14.738281 33.609375 16.480469 35.351562 16.480469 37.5 C 16.480469 39.644531 14.738281 41.386719 12.589844 41.386719 C 10.441406 41.386719 8.699219 39.644531 8.699219 37.5 Z M 10.558594 37.5 C 10.558594 38.621094 11.46875 39.53125 12.589844 39.53125 C 13.710938 39.53125 14.621094 38.621094 14.621094 37.5 C 14.621094 36.378906 13.710938 35.46875 12.589844 35.46875 C 11.46875 35.46875 10.558594 36.378906 10.558594 37.5 Z M 17.136719 17.136719 C 18.652344 15.617188 21.117188 15.617188 22.636719 17.136719 C 24.152344 18.652344 24.152344 21.117188 22.636719 22.636719 C 21.117188 24.152344 18.652344 24.152344 17.136719 22.636719 C 15.617188 21.117188 15.617188 18.652344 17.136719 17.136719 Z M 18.449219 18.449219 C 17.65625 19.242188 17.65625 20.527344 18.449219 21.320312 C 19.242188 22.113281 20.527344 22.113281 21.320312 21.320312 C 22.113281 20.527344 22.113281 19.242188 21.320312 18.449219 C 20.527344 17.65625 19.242188 17.65625 18.449219 18.449219 Z M 18.449219 18.449219 " fill-opacity="1" fill-rule="evenodd"/></g></svg>